%TF.GenerationSoftware,KiCad,Pcbnew,10.0.1*%
%TF.CreationDate,2026-06-03T15:10:43+02:00*%
%TF.ProjectId,ATMega1608_Dev,41544d65-6761-4313-9630-385f4465762e,3.1.1*%
%TF.SameCoordinates,Original*%
%TF.FileFunction,Copper,L2,Inr*%
%TF.FilePolarity,Positive*%
%FSLAX46Y46*%
G04 Gerber Fmt 4.6, Leading zero omitted, Abs format (unit mm)*
G04 Created by KiCad (PCBNEW 10.0.1) date 2026-06-03 15:10:43*
%MOMM*%
%LPD*%
G01*
G04 APERTURE LIST*
%TA.AperFunction,ComponentPad*%
%ADD10R,1.700000X1.700000*%
%TD*%
%TA.AperFunction,ComponentPad*%
%ADD11C,1.700000*%
%TD*%
%TA.AperFunction,ComponentPad*%
%ADD12C,1.020000*%
%TD*%
%TA.AperFunction,ViaPad*%
%ADD13C,0.508000*%
%TD*%
G04 APERTURE END LIST*
D10*
%TO.N,/UPDI*%
%TO.C,J5*%
X137795001Y-52070000D03*
D11*
%TO.N,/~{RESET}*%
X140335001Y-52070000D03*
%TO.N,/PD4*%
X142875001Y-52070000D03*
%TO.N,/PD5*%
X145415001Y-52070000D03*
%TO.N,/PD6*%
X147955001Y-52070000D03*
%TO.N,/PD7*%
X150495001Y-52070000D03*
%TO.N,/PF5*%
X153035001Y-52070000D03*
%TO.N,/PF4*%
X155575001Y-52070000D03*
%TO.N,/SCL*%
X158115001Y-52070000D03*
%TO.N,/SDA*%
X160655001Y-52070000D03*
%TO.N,/PF1*%
X163195001Y-52070000D03*
%TO.N,/PF0*%
X165735001Y-52070000D03*
%TD*%
D10*
%TO.N,unconnected-(J2-Pin_1-Pad1)*%
%TO.C,J2*%
X114122200Y-69265800D03*
D11*
%TO.N,/DIN*%
X114122200Y-66725800D03*
%TO.N,/DOUT*%
X114122200Y-64185800D03*
%TO.N,GND*%
X114122200Y-61645800D03*
%TO.N,Net-(J2-Pin_5)*%
X114122200Y-59105800D03*
%TO.N,unconnected-(J2-Pin_6-Pad6)*%
X114122200Y-56565800D03*
%TD*%
D12*
%TO.N,/UPDI*%
%TO.C,TC1*%
X167640000Y-67818000D03*
%TO.N,+3.3V*%
X167640000Y-66548000D03*
%TO.N,unconnected-(TC1-Pin_3-Pad3)*%
X167630000Y-65278000D03*
%TO.N,unconnected-(TC1-Pin_4-Pad4)_1*%
X167640000Y-62738000D03*
%TO.N,unconnected-(TC1-Pin_5-Pad5)*%
X167640000Y-61468000D03*
%TO.N,GND*%
X167640000Y-60198000D03*
%TD*%
D10*
%TO.N,/TxD0*%
%TO.C,J3*%
X127550000Y-74041000D03*
D11*
%TO.N,/RxD0*%
X130090000Y-74041000D03*
%TO.N,/PA2*%
X132630000Y-74041000D03*
%TO.N,/PA3*%
X135170000Y-74041000D03*
%TO.N,/MOSI*%
X137710000Y-74041000D03*
%TO.N,/MISO*%
X140250000Y-74041000D03*
%TO.N,/SCK*%
X142790000Y-74041000D03*
%TO.N,/SS*%
X145330000Y-74041000D03*
%TO.N,/DIN*%
X147870000Y-74041000D03*
%TO.N,/DOUT*%
X150410000Y-74041000D03*
%TO.N,/PC2*%
X152950000Y-74041000D03*
%TO.N,/PC3*%
X155490000Y-74041000D03*
%TO.N,/PD0*%
X158030000Y-74041000D03*
%TO.N,/PD1*%
X160570000Y-74041000D03*
%TO.N,/PD2*%
X163110000Y-74041000D03*
%TO.N,/PD3*%
X165650000Y-74041000D03*
%TD*%
D10*
%TO.N,+3.3V*%
%TO.C,J4*%
X114046000Y-74041000D03*
D11*
%TO.N,GND*%
X116586000Y-74041000D03*
%TD*%
D10*
%TO.N,Net-(D1-A)*%
%TO.C,J1*%
X113533000Y-52070000D03*
D11*
%TO.N,GND*%
X116073000Y-52070000D03*
%TD*%
D10*
%TO.N,/USB-5V*%
%TO.C,JP101*%
X122250000Y-59000000D03*
D11*
%TO.N,Net-(J2-Pin_5)*%
X119710000Y-59000000D03*
%TD*%
D13*
%TO.N,/~{RESET}*%
X142748000Y-55372000D03*
%TO.N,GND*%
X157200000Y-59800000D03*
X134340601Y-51359200D03*
X134384401Y-62650401D03*
X140208000Y-55753000D03*
X132225401Y-62650401D03*
X145500000Y-60500000D03*
%TO.N,/UPDI*%
X152313103Y-59903897D03*
%TO.N,/PD4*%
X154940000Y-64008000D03*
%TO.N,/PD5*%
X155518542Y-63628492D03*
%TO.N,/PD6*%
X156096422Y-63194200D03*
%TO.N,/PD7*%
X155448000Y-62230000D03*
%TO.N,+3.3V*%
X129431401Y-67857401D03*
X146431000Y-57150000D03*
X157900000Y-60200000D03*
X140335000Y-60579000D03*
X124587000Y-51308000D03*
%TO.N,/TxD0*%
X145542000Y-62103000D03*
%TO.N,/RxD0*%
X146024100Y-62865000D03*
%TO.N,/PA2*%
X148250000Y-62950000D03*
%TO.N,/PA3*%
X146582435Y-65850065D03*
%TO.N,/MOSI*%
X146558000Y-66548000D03*
%TO.N,/MISO*%
X147499154Y-66260782D03*
%TO.N,/SCK*%
X148054685Y-66617877D03*
%TO.N,/SS*%
X148509404Y-67096795D03*
%TO.N,/PC2*%
X150241000Y-68961000D03*
%TD*%
%TA.AperFunction,Conductor*%
%TO.N,GND*%
G36*
X167612638Y-50310093D02*
G01*
X167638358Y-50354642D01*
X167639500Y-50367700D01*
X167639500Y-57925147D01*
X167621907Y-57973485D01*
X167577358Y-57999205D01*
X167575003Y-57999581D01*
X167505401Y-58009589D01*
X167505393Y-58009591D01*
X167381707Y-58066077D01*
X167381699Y-58066082D01*
X167278931Y-58155132D01*
X167205410Y-58269531D01*
X167167100Y-58400004D01*
X167167100Y-58535995D01*
X167190109Y-58614356D01*
X167205411Y-58666470D01*
X167278931Y-58780868D01*
X167381702Y-58869920D01*
X167443550Y-58898165D01*
X167505394Y-58926408D01*
X167505399Y-58926410D01*
X167575003Y-58936417D01*
X167620344Y-58960711D01*
X167639462Y-59008466D01*
X167639500Y-59010852D01*
X167639500Y-59106965D01*
X167621907Y-59155303D01*
X167577358Y-59181023D01*
X167571671Y-59181803D01*
X167440440Y-59194728D01*
X167248542Y-59252940D01*
X167121861Y-59320652D01*
X167617474Y-59816264D01*
X167639214Y-59862884D01*
X167639500Y-59869438D01*
X167639500Y-59878000D01*
X167612001Y-59878000D01*
X167528865Y-59892659D01*
X167431135Y-59949084D01*
X167358596Y-60035531D01*
X167320000Y-60141575D01*
X167320000Y-60254425D01*
X167358596Y-60360468D01*
X167431135Y-60446916D01*
X167528865Y-60503341D01*
X167612001Y-60518000D01*
X167639500Y-60518000D01*
X167639500Y-60526560D01*
X167621907Y-60574898D01*
X167617474Y-60579735D01*
X167306867Y-60890341D01*
X167288643Y-60903751D01*
X167260666Y-60918435D01*
X167140172Y-61025182D01*
X167140167Y-61025187D01*
X167048720Y-61157671D01*
X167048717Y-61157676D01*
X166991635Y-61308189D01*
X166972231Y-61468000D01*
X166991635Y-61627810D01*
X167048717Y-61778323D01*
X167048720Y-61778328D01*
X167140167Y-61910812D01*
X167140172Y-61910817D01*
X167177926Y-61944263D01*
X167260664Y-62017563D01*
X167296582Y-62036414D01*
X167331206Y-62074456D01*
X167333277Y-62125854D01*
X167301826Y-62166558D01*
X167296587Y-62169583D01*
X167260664Y-62188437D01*
X167140172Y-62295182D01*
X167140167Y-62295187D01*
X167048720Y-62427671D01*
X167048717Y-62427676D01*
X166991635Y-62578189D01*
X166972231Y-62738000D01*
X166991635Y-62897810D01*
X167048717Y-63048323D01*
X167048720Y-63048328D01*
X167140167Y-63180812D01*
X167140172Y-63180817D01*
X167223635Y-63254758D01*
X167260664Y-63287563D01*
X167403206Y-63362375D01*
X167559509Y-63400900D01*
X167564300Y-63400900D01*
X167612638Y-63418493D01*
X167638358Y-63463042D01*
X167639500Y-63476100D01*
X167639500Y-64539900D01*
X167621907Y-64588238D01*
X167577358Y-64613958D01*
X167564300Y-64615100D01*
X167549509Y-64615100D01*
X167393206Y-64653625D01*
X167393203Y-64653626D01*
X167250666Y-64728435D01*
X167250664Y-64728436D01*
X167130172Y-64835182D01*
X167130167Y-64835187D01*
X167038720Y-64967671D01*
X167038717Y-64967676D01*
X166981635Y-65118189D01*
X166962231Y-65278000D01*
X166981635Y-65437810D01*
X167038717Y-65588323D01*
X167038720Y-65588328D01*
X167130167Y-65720812D01*
X167130172Y-65720817D01*
X167250664Y-65827563D01*
X167250666Y-65827564D01*
X167291581Y-65849038D01*
X167326206Y-65887080D01*
X167328277Y-65938478D01*
X167296826Y-65979182D01*
X167291582Y-65982210D01*
X167260664Y-65998437D01*
X167140172Y-66105182D01*
X167140167Y-66105187D01*
X167048720Y-66237671D01*
X167048717Y-66237676D01*
X166991635Y-66388189D01*
X166972231Y-66548000D01*
X166991635Y-66707810D01*
X167048717Y-66858323D01*
X167048720Y-66858328D01*
X167140167Y-66990812D01*
X167140172Y-66990817D01*
X167161470Y-67009685D01*
X167260664Y-67097563D01*
X167296582Y-67116414D01*
X167331206Y-67154456D01*
X167333277Y-67205854D01*
X167301826Y-67246558D01*
X167296587Y-67249583D01*
X167260664Y-67268437D01*
X167140172Y-67375182D01*
X167140167Y-67375187D01*
X167048720Y-67507671D01*
X167048717Y-67507676D01*
X166991635Y-67658189D01*
X166972231Y-67818000D01*
X166991635Y-67977810D01*
X167048717Y-68128323D01*
X167048720Y-68128328D01*
X167140167Y-68260812D01*
X167140172Y-68260817D01*
X167260664Y-68367563D01*
X167260666Y-68367564D01*
X167273306Y-68374198D01*
X167307931Y-68412239D01*
X167310002Y-68463637D01*
X167287606Y-68497615D01*
X167278931Y-68505131D01*
X167205410Y-68619531D01*
X167167100Y-68750004D01*
X167167100Y-68885995D01*
X167205410Y-69016468D01*
X167205411Y-69016470D01*
X167278931Y-69130868D01*
X167381702Y-69219920D01*
X167443550Y-69248165D01*
X167505394Y-69276408D01*
X167505399Y-69276410D01*
X167575003Y-69286417D01*
X167620344Y-69310711D01*
X167639462Y-69358466D01*
X167639500Y-69360852D01*
X167639500Y-75870300D01*
X167621907Y-75918638D01*
X167577358Y-75944358D01*
X167564300Y-75945500D01*
X111835700Y-75945500D01*
X111787362Y-75927907D01*
X111761642Y-75883358D01*
X111760500Y-75870300D01*
X111760500Y-74906055D01*
X113043100Y-74906055D01*
X113043101Y-74906057D01*
X113051972Y-74950659D01*
X113085764Y-75001232D01*
X113085765Y-75001232D01*
X113085766Y-75001234D01*
X113136342Y-75035028D01*
X113180943Y-75043900D01*
X114911056Y-75043899D01*
X114955658Y-75035028D01*
X115006234Y-75001234D01*
X115040028Y-74950658D01*
X115048900Y-74906057D01*
X115048899Y-73787000D01*
X115249455Y-73787000D01*
X116154884Y-73787000D01*
X116126507Y-73831156D01*
X116086000Y-73969111D01*
X116086000Y-74112889D01*
X116126507Y-74250844D01*
X116154884Y-74295000D01*
X115249456Y-74295000D01*
X115297179Y-74483457D01*
X115387580Y-74689549D01*
X115510675Y-74877959D01*
X115663097Y-75043534D01*
X115663100Y-75043537D01*
X115840700Y-75181769D01*
X116038622Y-75288879D01*
X116038624Y-75288880D01*
X116251485Y-75361955D01*
X116251495Y-75361958D01*
X116331999Y-75375392D01*
X116332000Y-75375391D01*
X116332000Y-74474674D01*
X116443685Y-74525680D01*
X116550237Y-74541000D01*
X116621763Y-74541000D01*
X116728315Y-74525680D01*
X116840000Y-74474674D01*
X116840000Y-75375392D01*
X116920504Y-75361958D01*
X116920514Y-75361955D01*
X117133375Y-75288880D01*
X117133377Y-75288879D01*
X117331299Y-75181769D01*
X117508900Y-75043537D01*
X117508902Y-75043534D01*
X117635460Y-74906055D01*
X126547100Y-74906055D01*
X126547101Y-74906057D01*
X126555972Y-74950659D01*
X126589764Y-75001232D01*
X126589765Y-75001232D01*
X126589766Y-75001234D01*
X126640342Y-75035028D01*
X126684943Y-75043900D01*
X128415056Y-75043899D01*
X128459658Y-75035028D01*
X128510234Y-75001234D01*
X128544028Y-74950658D01*
X128552900Y-74906057D01*
X128552899Y-74041000D01*
X129082247Y-74041000D01*
X129101610Y-74237599D01*
X129101610Y-74237601D01*
X129158955Y-74426643D01*
X129158956Y-74426647D01*
X129252086Y-74600881D01*
X129252089Y-74600885D01*
X129377410Y-74753589D01*
X129530114Y-74878910D01*
X129530118Y-74878913D01*
X129530122Y-74878916D01*
X129664343Y-74950658D01*
X129704352Y-74972043D01*
X129704356Y-74972044D01*
X129747593Y-74985159D01*
X129893397Y-75029389D01*
X130090000Y-75048753D01*
X130286603Y-75029389D01*
X130475650Y-74972042D01*
X130649878Y-74878916D01*
X130802589Y-74753589D01*
X130927916Y-74600878D01*
X131021042Y-74426650D01*
X131078389Y-74237603D01*
X131097753Y-74041000D01*
X131622247Y-74041000D01*
X131641610Y-74237599D01*
X131641610Y-74237601D01*
X131698955Y-74426643D01*
X131698956Y-74426647D01*
X131792086Y-74600881D01*
X131792089Y-74600885D01*
X131917410Y-74753589D01*
X132070114Y-74878910D01*
X132070118Y-74878913D01*
X132070122Y-74878916D01*
X132204343Y-74950658D01*
X132244352Y-74972043D01*
X132244356Y-74972044D01*
X132287593Y-74985159D01*
X132433397Y-75029389D01*
X132630000Y-75048753D01*
X132826603Y-75029389D01*
X133015650Y-74972042D01*
X133189878Y-74878916D01*
X133342589Y-74753589D01*
X133467916Y-74600878D01*
X133561042Y-74426650D01*
X133618389Y-74237603D01*
X133637753Y-74041000D01*
X134162247Y-74041000D01*
X134181610Y-74237599D01*
X134181610Y-74237601D01*
X134238955Y-74426643D01*
X134238956Y-74426647D01*
X134332086Y-74600881D01*
X134332089Y-74600885D01*
X134457410Y-74753589D01*
X134610114Y-74878910D01*
X134610118Y-74878913D01*
X134610122Y-74878916D01*
X134744343Y-74950658D01*
X134784352Y-74972043D01*
X134784356Y-74972044D01*
X134827593Y-74985159D01*
X134973397Y-75029389D01*
X135170000Y-75048753D01*
X135366603Y-75029389D01*
X135555650Y-74972042D01*
X135729878Y-74878916D01*
X135882589Y-74753589D01*
X136007916Y-74600878D01*
X136101042Y-74426650D01*
X136158389Y-74237603D01*
X136177753Y-74041000D01*
X136702247Y-74041000D01*
X136721610Y-74237599D01*
X136721610Y-74237601D01*
X136778955Y-74426643D01*
X136778956Y-74426647D01*
X136872086Y-74600881D01*
X136872089Y-74600885D01*
X136997410Y-74753589D01*
X137150114Y-74878910D01*
X137150118Y-74878913D01*
X137150122Y-74878916D01*
X137284343Y-74950658D01*
X137324352Y-74972043D01*
X137324356Y-74972044D01*
X137367593Y-74985159D01*
X137513397Y-75029389D01*
X137710000Y-75048753D01*
X137906603Y-75029389D01*
X138095650Y-74972042D01*
X138269878Y-74878916D01*
X138422589Y-74753589D01*
X138547916Y-74600878D01*
X138641042Y-74426650D01*
X138698389Y-74237603D01*
X138717753Y-74041000D01*
X139242247Y-74041000D01*
X139261610Y-74237599D01*
X139261610Y-74237601D01*
X139318955Y-74426643D01*
X139318956Y-74426647D01*
X139412086Y-74600881D01*
X139412089Y-74600885D01*
X139537410Y-74753589D01*
X139690114Y-74878910D01*
X139690118Y-74878913D01*
X139690122Y-74878916D01*
X139824343Y-74950658D01*
X139864352Y-74972043D01*
X139864356Y-74972044D01*
X139907593Y-74985159D01*
X140053397Y-75029389D01*
X140250000Y-75048753D01*
X140446603Y-75029389D01*
X140635650Y-74972042D01*
X140809878Y-74878916D01*
X140962589Y-74753589D01*
X141087916Y-74600878D01*
X141181042Y-74426650D01*
X141238389Y-74237603D01*
X141257753Y-74041000D01*
X141782247Y-74041000D01*
X141801610Y-74237599D01*
X141801610Y-74237601D01*
X141858955Y-74426643D01*
X141858956Y-74426647D01*
X141952086Y-74600881D01*
X141952089Y-74600885D01*
X142077410Y-74753589D01*
X142230114Y-74878910D01*
X142230118Y-74878913D01*
X142230122Y-74878916D01*
X142364343Y-74950658D01*
X142404352Y-74972043D01*
X142404356Y-74972044D01*
X142447593Y-74985159D01*
X142593397Y-75029389D01*
X142790000Y-75048753D01*
X142986603Y-75029389D01*
X143175650Y-74972042D01*
X143349878Y-74878916D01*
X143502589Y-74753589D01*
X143627916Y-74600878D01*
X143721042Y-74426650D01*
X143778389Y-74237603D01*
X143797753Y-74041000D01*
X144322247Y-74041000D01*
X144341610Y-74237599D01*
X144341610Y-74237601D01*
X144398955Y-74426643D01*
X144398956Y-74426647D01*
X144492086Y-74600881D01*
X144492089Y-74600885D01*
X144617410Y-74753589D01*
X144770114Y-74878910D01*
X144770118Y-74878913D01*
X144770122Y-74878916D01*
X144904343Y-74950658D01*
X144944352Y-74972043D01*
X144944356Y-74972044D01*
X144987593Y-74985159D01*
X145133397Y-75029389D01*
X145330000Y-75048753D01*
X145526603Y-75029389D01*
X145715650Y-74972042D01*
X145889878Y-74878916D01*
X146042589Y-74753589D01*
X146167916Y-74600878D01*
X146261042Y-74426650D01*
X146318389Y-74237603D01*
X146337753Y-74041000D01*
X146862247Y-74041000D01*
X146881610Y-74237599D01*
X146881610Y-74237601D01*
X146938955Y-74426643D01*
X146938956Y-74426647D01*
X147032086Y-74600881D01*
X147032089Y-74600885D01*
X147157410Y-74753589D01*
X147310114Y-74878910D01*
X147310118Y-74878913D01*
X147310122Y-74878916D01*
X147444343Y-74950658D01*
X147484352Y-74972043D01*
X147484356Y-74972044D01*
X147527593Y-74985159D01*
X147673397Y-75029389D01*
X147870000Y-75048753D01*
X148066603Y-75029389D01*
X148255650Y-74972042D01*
X148429878Y-74878916D01*
X148582589Y-74753589D01*
X148707916Y-74600878D01*
X148801042Y-74426650D01*
X148858389Y-74237603D01*
X148877753Y-74041000D01*
X149402247Y-74041000D01*
X149421610Y-74237599D01*
X149421610Y-74237601D01*
X149478955Y-74426643D01*
X149478956Y-74426647D01*
X149572086Y-74600881D01*
X149572089Y-74600885D01*
X149697410Y-74753589D01*
X149850114Y-74878910D01*
X149850118Y-74878913D01*
X149850122Y-74878916D01*
X149984343Y-74950658D01*
X150024352Y-74972043D01*
X150024356Y-74972044D01*
X150067593Y-74985159D01*
X150213397Y-75029389D01*
X150410000Y-75048753D01*
X150606603Y-75029389D01*
X150795650Y-74972042D01*
X150969878Y-74878916D01*
X151122589Y-74753589D01*
X151247916Y-74600878D01*
X151341042Y-74426650D01*
X151398389Y-74237603D01*
X151417753Y-74041000D01*
X151942247Y-74041000D01*
X151961610Y-74237599D01*
X151961610Y-74237601D01*
X152018955Y-74426643D01*
X152018956Y-74426647D01*
X152112086Y-74600881D01*
X152112089Y-74600885D01*
X152237410Y-74753589D01*
X152390114Y-74878910D01*
X152390118Y-74878913D01*
X152390122Y-74878916D01*
X152524343Y-74950658D01*
X152564352Y-74972043D01*
X152564356Y-74972044D01*
X152607593Y-74985159D01*
X152753397Y-75029389D01*
X152950000Y-75048753D01*
X153146603Y-75029389D01*
X153335650Y-74972042D01*
X153509878Y-74878916D01*
X153662589Y-74753589D01*
X153787916Y-74600878D01*
X153881042Y-74426650D01*
X153938389Y-74237603D01*
X153957753Y-74041000D01*
X154482247Y-74041000D01*
X154501610Y-74237599D01*
X154501610Y-74237601D01*
X154558955Y-74426643D01*
X154558956Y-74426647D01*
X154652086Y-74600881D01*
X154652089Y-74600885D01*
X154777410Y-74753589D01*
X154930114Y-74878910D01*
X154930118Y-74878913D01*
X154930122Y-74878916D01*
X155064343Y-74950658D01*
X155104352Y-74972043D01*
X155104356Y-74972044D01*
X155147593Y-74985159D01*
X155293397Y-75029389D01*
X155490000Y-75048753D01*
X155686603Y-75029389D01*
X155875650Y-74972042D01*
X156049878Y-74878916D01*
X156202589Y-74753589D01*
X156327916Y-74600878D01*
X156421042Y-74426650D01*
X156478389Y-74237603D01*
X156497753Y-74041000D01*
X157022247Y-74041000D01*
X157041610Y-74237599D01*
X157041610Y-74237601D01*
X157098955Y-74426643D01*
X157098956Y-74426647D01*
X157192086Y-74600881D01*
X157192089Y-74600885D01*
X157317410Y-74753589D01*
X157470114Y-74878910D01*
X157470118Y-74878913D01*
X157470122Y-74878916D01*
X157604343Y-74950658D01*
X157644352Y-74972043D01*
X157644356Y-74972044D01*
X157687593Y-74985159D01*
X157833397Y-75029389D01*
X158030000Y-75048753D01*
X158226603Y-75029389D01*
X158415650Y-74972042D01*
X158589878Y-74878916D01*
X158742589Y-74753589D01*
X158867916Y-74600878D01*
X158961042Y-74426650D01*
X159018389Y-74237603D01*
X159037753Y-74041000D01*
X159562247Y-74041000D01*
X159581610Y-74237599D01*
X159581610Y-74237601D01*
X159638955Y-74426643D01*
X159638956Y-74426647D01*
X159732086Y-74600881D01*
X159732089Y-74600885D01*
X159857410Y-74753589D01*
X160010114Y-74878910D01*
X160010118Y-74878913D01*
X160010122Y-74878916D01*
X160144343Y-74950658D01*
X160184352Y-74972043D01*
X160184356Y-74972044D01*
X160227593Y-74985159D01*
X160373397Y-75029389D01*
X160570000Y-75048753D01*
X160766603Y-75029389D01*
X160955650Y-74972042D01*
X161129878Y-74878916D01*
X161282589Y-74753589D01*
X161407916Y-74600878D01*
X161501042Y-74426650D01*
X161558389Y-74237603D01*
X161577753Y-74041000D01*
X162102247Y-74041000D01*
X162121610Y-74237599D01*
X162121610Y-74237601D01*
X162178955Y-74426643D01*
X162178956Y-74426647D01*
X162272086Y-74600881D01*
X162272089Y-74600885D01*
X162397410Y-74753589D01*
X162550114Y-74878910D01*
X162550118Y-74878913D01*
X162550122Y-74878916D01*
X162684343Y-74950658D01*
X162724352Y-74972043D01*
X162724356Y-74972044D01*
X162767593Y-74985159D01*
X162913397Y-75029389D01*
X163110000Y-75048753D01*
X163306603Y-75029389D01*
X163495650Y-74972042D01*
X163669878Y-74878916D01*
X163822589Y-74753589D01*
X163947916Y-74600878D01*
X164041042Y-74426650D01*
X164098389Y-74237603D01*
X164117753Y-74041000D01*
X164642247Y-74041000D01*
X164661610Y-74237599D01*
X164661610Y-74237601D01*
X164718955Y-74426643D01*
X164718956Y-74426647D01*
X164812086Y-74600881D01*
X164812089Y-74600885D01*
X164937410Y-74753589D01*
X165090114Y-74878910D01*
X165090118Y-74878913D01*
X165090122Y-74878916D01*
X165224343Y-74950658D01*
X165264352Y-74972043D01*
X165264356Y-74972044D01*
X165307593Y-74985159D01*
X165453397Y-75029389D01*
X165650000Y-75048753D01*
X165846603Y-75029389D01*
X166035650Y-74972042D01*
X166209878Y-74878916D01*
X166362589Y-74753589D01*
X166487916Y-74600878D01*
X166581042Y-74426650D01*
X166638389Y-74237603D01*
X166657753Y-74041000D01*
X166638389Y-73844397D01*
X166581042Y-73655350D01*
X166487916Y-73481122D01*
X166487913Y-73481118D01*
X166487910Y-73481114D01*
X166362589Y-73328410D01*
X166209885Y-73203089D01*
X166209881Y-73203086D01*
X166209879Y-73203085D01*
X166209878Y-73203084D01*
X166075657Y-73131342D01*
X166035647Y-73109956D01*
X166035643Y-73109955D01*
X165846600Y-73052610D01*
X165650000Y-73033247D01*
X165453400Y-73052610D01*
X165453398Y-73052610D01*
X165264356Y-73109955D01*
X165264352Y-73109956D01*
X165090118Y-73203086D01*
X165090114Y-73203089D01*
X164937410Y-73328410D01*
X164812089Y-73481114D01*
X164812086Y-73481118D01*
X164718956Y-73655352D01*
X164718955Y-73655356D01*
X164661610Y-73844398D01*
X164661610Y-73844400D01*
X164642247Y-74041000D01*
X164117753Y-74041000D01*
X164098389Y-73844397D01*
X164041042Y-73655350D01*
X163947916Y-73481122D01*
X163947913Y-73481118D01*
X163947910Y-73481114D01*
X163822589Y-73328410D01*
X163669885Y-73203089D01*
X163669881Y-73203086D01*
X163669879Y-73203085D01*
X163669878Y-73203084D01*
X163535657Y-73131342D01*
X163495647Y-73109956D01*
X163495643Y-73109955D01*
X163306600Y-73052610D01*
X163110000Y-73033247D01*
X162913400Y-73052610D01*
X162913398Y-73052610D01*
X162724356Y-73109955D01*
X162724352Y-73109956D01*
X162550118Y-73203086D01*
X162550114Y-73203089D01*
X162397410Y-73328410D01*
X162272089Y-73481114D01*
X162272086Y-73481118D01*
X162178956Y-73655352D01*
X162178955Y-73655356D01*
X162121610Y-73844398D01*
X162121610Y-73844400D01*
X162102247Y-74041000D01*
X161577753Y-74041000D01*
X161558389Y-73844397D01*
X161501042Y-73655350D01*
X161407916Y-73481122D01*
X161407913Y-73481118D01*
X161407910Y-73481114D01*
X161282589Y-73328410D01*
X161129885Y-73203089D01*
X161129881Y-73203086D01*
X161129879Y-73203085D01*
X161129878Y-73203084D01*
X160995657Y-73131342D01*
X160955647Y-73109956D01*
X160955643Y-73109955D01*
X160766600Y-73052610D01*
X160570000Y-73033247D01*
X160373400Y-73052610D01*
X160373398Y-73052610D01*
X160184356Y-73109955D01*
X160184352Y-73109956D01*
X160010118Y-73203086D01*
X160010114Y-73203089D01*
X159857410Y-73328410D01*
X159732089Y-73481114D01*
X159732086Y-73481118D01*
X159638956Y-73655352D01*
X159638955Y-73655356D01*
X159581610Y-73844398D01*
X159581610Y-73844400D01*
X159562247Y-74041000D01*
X159037753Y-74041000D01*
X159018389Y-73844397D01*
X158961042Y-73655350D01*
X158867916Y-73481122D01*
X158867913Y-73481118D01*
X158867910Y-73481114D01*
X158742589Y-73328410D01*
X158589885Y-73203089D01*
X158589881Y-73203086D01*
X158589879Y-73203085D01*
X158589878Y-73203084D01*
X158455657Y-73131342D01*
X158415647Y-73109956D01*
X158415643Y-73109955D01*
X158226600Y-73052610D01*
X158030000Y-73033247D01*
X157833400Y-73052610D01*
X157833398Y-73052610D01*
X157644356Y-73109955D01*
X157644352Y-73109956D01*
X157470118Y-73203086D01*
X157470114Y-73203089D01*
X157317410Y-73328410D01*
X157192089Y-73481114D01*
X157192086Y-73481118D01*
X157098956Y-73655352D01*
X157098955Y-73655356D01*
X157041610Y-73844398D01*
X157041610Y-73844400D01*
X157022247Y-74041000D01*
X156497753Y-74041000D01*
X156478389Y-73844397D01*
X156421042Y-73655350D01*
X156327916Y-73481122D01*
X156327913Y-73481118D01*
X156327910Y-73481114D01*
X156202589Y-73328410D01*
X156049885Y-73203089D01*
X156049881Y-73203086D01*
X156049879Y-73203085D01*
X156049878Y-73203084D01*
X155915657Y-73131342D01*
X155875647Y-73109956D01*
X155875643Y-73109955D01*
X155686600Y-73052610D01*
X155490000Y-73033247D01*
X155293400Y-73052610D01*
X155293398Y-73052610D01*
X155104356Y-73109955D01*
X155104352Y-73109956D01*
X154930118Y-73203086D01*
X154930114Y-73203089D01*
X154777410Y-73328410D01*
X154652089Y-73481114D01*
X154652086Y-73481118D01*
X154558956Y-73655352D01*
X154558955Y-73655356D01*
X154501610Y-73844398D01*
X154501610Y-73844400D01*
X154482247Y-74041000D01*
X153957753Y-74041000D01*
X153938389Y-73844397D01*
X153881042Y-73655350D01*
X153787916Y-73481122D01*
X153787913Y-73481118D01*
X153787910Y-73481114D01*
X153662589Y-73328410D01*
X153509885Y-73203089D01*
X153509881Y-73203086D01*
X153509879Y-73203085D01*
X153509878Y-73203084D01*
X153375657Y-73131342D01*
X153335647Y-73109956D01*
X153335643Y-73109955D01*
X153146600Y-73052610D01*
X152950000Y-73033247D01*
X152753400Y-73052610D01*
X152753398Y-73052610D01*
X152564356Y-73109955D01*
X152564352Y-73109956D01*
X152390118Y-73203086D01*
X152390114Y-73203089D01*
X152237410Y-73328410D01*
X152112089Y-73481114D01*
X152112086Y-73481118D01*
X152018956Y-73655352D01*
X152018955Y-73655356D01*
X151961610Y-73844398D01*
X151961610Y-73844400D01*
X151942247Y-74041000D01*
X151417753Y-74041000D01*
X151398389Y-73844397D01*
X151341042Y-73655350D01*
X151247916Y-73481122D01*
X151247913Y-73481118D01*
X151247910Y-73481114D01*
X151122589Y-73328410D01*
X150969885Y-73203089D01*
X150969881Y-73203086D01*
X150969879Y-73203085D01*
X150969878Y-73203084D01*
X150835657Y-73131342D01*
X150795647Y-73109956D01*
X150795643Y-73109955D01*
X150606600Y-73052610D01*
X150410000Y-73033247D01*
X150213400Y-73052610D01*
X150213398Y-73052610D01*
X150024356Y-73109955D01*
X150024352Y-73109956D01*
X149850118Y-73203086D01*
X149850114Y-73203089D01*
X149697410Y-73328410D01*
X149572089Y-73481114D01*
X149572086Y-73481118D01*
X149478956Y-73655352D01*
X149478955Y-73655356D01*
X149421610Y-73844398D01*
X149421610Y-73844400D01*
X149402247Y-74041000D01*
X148877753Y-74041000D01*
X148858389Y-73844397D01*
X148801042Y-73655350D01*
X148707916Y-73481122D01*
X148707913Y-73481118D01*
X148707910Y-73481114D01*
X148582589Y-73328410D01*
X148429885Y-73203089D01*
X148429881Y-73203086D01*
X148429879Y-73203085D01*
X148429878Y-73203084D01*
X148295657Y-73131342D01*
X148255647Y-73109956D01*
X148255643Y-73109955D01*
X148066600Y-73052610D01*
X147870000Y-73033247D01*
X147673400Y-73052610D01*
X147673398Y-73052610D01*
X147484356Y-73109955D01*
X147484352Y-73109956D01*
X147310118Y-73203086D01*
X147310114Y-73203089D01*
X147157410Y-73328410D01*
X147032089Y-73481114D01*
X147032086Y-73481118D01*
X146938956Y-73655352D01*
X146938955Y-73655356D01*
X146881610Y-73844398D01*
X146881610Y-73844400D01*
X146862247Y-74041000D01*
X146337753Y-74041000D01*
X146318389Y-73844397D01*
X146261042Y-73655350D01*
X146167916Y-73481122D01*
X146167913Y-73481118D01*
X146167910Y-73481114D01*
X146042589Y-73328410D01*
X145889885Y-73203089D01*
X145889881Y-73203086D01*
X145889879Y-73203085D01*
X145889878Y-73203084D01*
X145755657Y-73131342D01*
X145715647Y-73109956D01*
X145715643Y-73109955D01*
X145526600Y-73052610D01*
X145330000Y-73033247D01*
X145133400Y-73052610D01*
X145133398Y-73052610D01*
X144944356Y-73109955D01*
X144944352Y-73109956D01*
X144770118Y-73203086D01*
X144770114Y-73203089D01*
X144617410Y-73328410D01*
X144492089Y-73481114D01*
X144492086Y-73481118D01*
X144398956Y-73655352D01*
X144398955Y-73655356D01*
X144341610Y-73844398D01*
X144341610Y-73844400D01*
X144322247Y-74041000D01*
X143797753Y-74041000D01*
X143778389Y-73844397D01*
X143721042Y-73655350D01*
X143627916Y-73481122D01*
X143627913Y-73481118D01*
X143627910Y-73481114D01*
X143502589Y-73328410D01*
X143349885Y-73203089D01*
X143349881Y-73203086D01*
X143349879Y-73203085D01*
X143349878Y-73203084D01*
X143215657Y-73131342D01*
X143175647Y-73109956D01*
X143175643Y-73109955D01*
X142986600Y-73052610D01*
X142790000Y-73033247D01*
X142593400Y-73052610D01*
X142593398Y-73052610D01*
X142404356Y-73109955D01*
X142404352Y-73109956D01*
X142230118Y-73203086D01*
X142230114Y-73203089D01*
X142077410Y-73328410D01*
X141952089Y-73481114D01*
X141952086Y-73481118D01*
X141858956Y-73655352D01*
X141858955Y-73655356D01*
X141801610Y-73844398D01*
X141801610Y-73844400D01*
X141782247Y-74041000D01*
X141257753Y-74041000D01*
X141238389Y-73844397D01*
X141181042Y-73655350D01*
X141087916Y-73481122D01*
X141087913Y-73481118D01*
X141087910Y-73481114D01*
X140962589Y-73328410D01*
X140809885Y-73203089D01*
X140809881Y-73203086D01*
X140809879Y-73203085D01*
X140809878Y-73203084D01*
X140675657Y-73131342D01*
X140635647Y-73109956D01*
X140635643Y-73109955D01*
X140446600Y-73052610D01*
X140250000Y-73033247D01*
X140053400Y-73052610D01*
X140053398Y-73052610D01*
X139864356Y-73109955D01*
X139864352Y-73109956D01*
X139690118Y-73203086D01*
X139690114Y-73203089D01*
X139537410Y-73328410D01*
X139412089Y-73481114D01*
X139412086Y-73481118D01*
X139318956Y-73655352D01*
X139318955Y-73655356D01*
X139261610Y-73844398D01*
X139261610Y-73844400D01*
X139242247Y-74041000D01*
X138717753Y-74041000D01*
X138698389Y-73844397D01*
X138641042Y-73655350D01*
X138547916Y-73481122D01*
X138547913Y-73481118D01*
X138547910Y-73481114D01*
X138422589Y-73328410D01*
X138269885Y-73203089D01*
X138269881Y-73203086D01*
X138269879Y-73203085D01*
X138269878Y-73203084D01*
X138135657Y-73131342D01*
X138095647Y-73109956D01*
X138095643Y-73109955D01*
X137906600Y-73052610D01*
X137710000Y-73033247D01*
X137513400Y-73052610D01*
X137513398Y-73052610D01*
X137324356Y-73109955D01*
X137324352Y-73109956D01*
X137150118Y-73203086D01*
X137150114Y-73203089D01*
X136997410Y-73328410D01*
X136872089Y-73481114D01*
X136872086Y-73481118D01*
X136778956Y-73655352D01*
X136778955Y-73655356D01*
X136721610Y-73844398D01*
X136721610Y-73844400D01*
X136702247Y-74041000D01*
X136177753Y-74041000D01*
X136158389Y-73844397D01*
X136101042Y-73655350D01*
X136007916Y-73481122D01*
X136007913Y-73481118D01*
X136007910Y-73481114D01*
X135882589Y-73328410D01*
X135729885Y-73203089D01*
X135729881Y-73203086D01*
X135729879Y-73203085D01*
X135729878Y-73203084D01*
X135595657Y-73131342D01*
X135555647Y-73109956D01*
X135555643Y-73109955D01*
X135366600Y-73052610D01*
X135170000Y-73033247D01*
X134973400Y-73052610D01*
X134973398Y-73052610D01*
X134784356Y-73109955D01*
X134784352Y-73109956D01*
X134610118Y-73203086D01*
X134610114Y-73203089D01*
X134457410Y-73328410D01*
X134332089Y-73481114D01*
X134332086Y-73481118D01*
X134238956Y-73655352D01*
X134238955Y-73655356D01*
X134181610Y-73844398D01*
X134181610Y-73844400D01*
X134162247Y-74041000D01*
X133637753Y-74041000D01*
X133618389Y-73844397D01*
X133561042Y-73655350D01*
X133467916Y-73481122D01*
X133467913Y-73481118D01*
X133467910Y-73481114D01*
X133342589Y-73328410D01*
X133189885Y-73203089D01*
X133189881Y-73203086D01*
X133189879Y-73203085D01*
X133189878Y-73203084D01*
X133055657Y-73131342D01*
X133015647Y-73109956D01*
X133015643Y-73109955D01*
X132826600Y-73052610D01*
X132630000Y-73033247D01*
X132433400Y-73052610D01*
X132433398Y-73052610D01*
X132244356Y-73109955D01*
X132244352Y-73109956D01*
X132070118Y-73203086D01*
X132070114Y-73203089D01*
X131917410Y-73328410D01*
X131792089Y-73481114D01*
X131792086Y-73481118D01*
X131698956Y-73655352D01*
X131698955Y-73655356D01*
X131641610Y-73844398D01*
X131641610Y-73844400D01*
X131622247Y-74041000D01*
X131097753Y-74041000D01*
X131078389Y-73844397D01*
X131021042Y-73655350D01*
X130927916Y-73481122D01*
X130927913Y-73481118D01*
X130927910Y-73481114D01*
X130802589Y-73328410D01*
X130649885Y-73203089D01*
X130649881Y-73203086D01*
X130649879Y-73203085D01*
X130649878Y-73203084D01*
X130515657Y-73131342D01*
X130475647Y-73109956D01*
X130475643Y-73109955D01*
X130286600Y-73052610D01*
X130090000Y-73033247D01*
X129893400Y-73052610D01*
X129893398Y-73052610D01*
X129704356Y-73109955D01*
X129704352Y-73109956D01*
X129530118Y-73203086D01*
X129530114Y-73203089D01*
X129377410Y-73328410D01*
X129252089Y-73481114D01*
X129252086Y-73481118D01*
X129158956Y-73655352D01*
X129158955Y-73655356D01*
X129101610Y-73844398D01*
X129101610Y-73844400D01*
X129082247Y-74041000D01*
X128552899Y-74041000D01*
X128552899Y-73175944D01*
X128544028Y-73131342D01*
X128529738Y-73109956D01*
X128510235Y-73080767D01*
X128510231Y-73080764D01*
X128459658Y-73046972D01*
X128459656Y-73046971D01*
X128415057Y-73038100D01*
X126684944Y-73038100D01*
X126684942Y-73038101D01*
X126640340Y-73046972D01*
X126589767Y-73080764D01*
X126555972Y-73131342D01*
X126555971Y-73131343D01*
X126547100Y-73175942D01*
X126547100Y-74906055D01*
X117635460Y-74906055D01*
X117661324Y-74877959D01*
X117784419Y-74689549D01*
X117874820Y-74483457D01*
X117922544Y-74295000D01*
X117017116Y-74295000D01*
X117045493Y-74250844D01*
X117086000Y-74112889D01*
X117086000Y-73969111D01*
X117045493Y-73831156D01*
X117017116Y-73787000D01*
X117922544Y-73787000D01*
X117874820Y-73598542D01*
X117784419Y-73392450D01*
X117661324Y-73204040D01*
X117508899Y-73038462D01*
X117508898Y-73038461D01*
X117331299Y-72900230D01*
X117133377Y-72793120D01*
X117133375Y-72793119D01*
X116920507Y-72720042D01*
X116920511Y-72720042D01*
X116840000Y-72706606D01*
X116840000Y-73607325D01*
X116728315Y-73556320D01*
X116621763Y-73541000D01*
X116550237Y-73541000D01*
X116443685Y-73556320D01*
X116332000Y-73607325D01*
X116332000Y-72706606D01*
X116251490Y-72720042D01*
X116038624Y-72793119D01*
X116038622Y-72793120D01*
X115840700Y-72900230D01*
X115663101Y-73038461D01*
X115663101Y-73038462D01*
X115510675Y-73204040D01*
X115387580Y-73392450D01*
X115297179Y-73598542D01*
X115249455Y-73787000D01*
X115048899Y-73787000D01*
X115048899Y-73175944D01*
X115040028Y-73131342D01*
X115025738Y-73109956D01*
X115006235Y-73080767D01*
X115006231Y-73080764D01*
X114955658Y-73046972D01*
X114955656Y-73046971D01*
X114911057Y-73038100D01*
X113180944Y-73038100D01*
X113180942Y-73038101D01*
X113136340Y-73046972D01*
X113085767Y-73080764D01*
X113051972Y-73131342D01*
X113051971Y-73131343D01*
X113043100Y-73175942D01*
X113043100Y-74906055D01*
X111760500Y-74906055D01*
X111760500Y-70130855D01*
X113119300Y-70130855D01*
X113119301Y-70130857D01*
X113128172Y-70175459D01*
X113161964Y-70226032D01*
X113161965Y-70226032D01*
X113161966Y-70226034D01*
X113212542Y-70259828D01*
X113257143Y-70268700D01*
X114987256Y-70268699D01*
X115031858Y-70259828D01*
X115082434Y-70226034D01*
X115116228Y-70175458D01*
X115125100Y-70130857D01*
X115125099Y-68961000D01*
X149829028Y-68961000D01*
X149849191Y-69088307D01*
X149907708Y-69203152D01*
X149998847Y-69294291D01*
X149998849Y-69294292D01*
X150113692Y-69352808D01*
X150113694Y-69352809D01*
X150211487Y-69368297D01*
X150240999Y-69372972D01*
X150241000Y-69372972D01*
X150241001Y-69372972D01*
X150261164Y-69369778D01*
X150368306Y-69352809D01*
X150483151Y-69294292D01*
X150574292Y-69203151D01*
X150632809Y-69088306D01*
X150652972Y-68961000D01*
X150642473Y-68894713D01*
X160418434Y-68894713D01*
X160426483Y-68961000D01*
X160447682Y-69135599D01*
X160515193Y-69368671D01*
X160515193Y-69368672D01*
X160619215Y-69587892D01*
X160619221Y-69587902D01*
X160757055Y-69787590D01*
X160925153Y-69962598D01*
X160925155Y-69962600D01*
X161027345Y-70039390D01*
X161119138Y-70108368D01*
X161119140Y-70108369D01*
X161119139Y-70108369D01*
X161333987Y-70221130D01*
X161333997Y-70221135D01*
X161517999Y-70282563D01*
X161564161Y-70297975D01*
X161621830Y-70307347D01*
X161803673Y-70336900D01*
X161803677Y-70336900D01*
X161985562Y-70336900D01*
X161985563Y-70336900D01*
X162166866Y-70322264D01*
X162402469Y-70264193D01*
X162565681Y-70194654D01*
X162625693Y-70169086D01*
X162625695Y-70169084D01*
X162625704Y-70169081D01*
X162830793Y-70039391D01*
X163012421Y-69878482D01*
X163165886Y-69690522D01*
X163287213Y-69480378D01*
X163373259Y-69253493D01*
X163421796Y-69015744D01*
X163431566Y-68773287D01*
X163402318Y-68532403D01*
X163334807Y-68299331D01*
X163334806Y-68299328D01*
X163334806Y-68299327D01*
X163266746Y-68155895D01*
X163230784Y-68080106D01*
X163230778Y-68080097D01*
X163092944Y-67880409D01*
X163005641Y-67789517D01*
X162924849Y-67705404D01*
X162924848Y-67705403D01*
X162924846Y-67705401D01*
X162924844Y-67705399D01*
X162730859Y-67559630D01*
X162730860Y-67559630D01*
X162516012Y-67446869D01*
X162516007Y-67446867D01*
X162516006Y-67446866D01*
X162516003Y-67446865D01*
X162424110Y-67416186D01*
X162285838Y-67370024D01*
X162046329Y-67331100D01*
X162046327Y-67331100D01*
X161864437Y-67331100D01*
X161864433Y-67331100D01*
X161683140Y-67345735D01*
X161683127Y-67345737D01*
X161447532Y-67403806D01*
X161224306Y-67498913D01*
X161224295Y-67498919D01*
X161019206Y-67628608D01*
X161019205Y-67628609D01*
X160837579Y-67789517D01*
X160837572Y-67789525D01*
X160684114Y-67977476D01*
X160684113Y-67977478D01*
X160562789Y-68187618D01*
X160562781Y-68187633D01*
X160476742Y-68414502D01*
X160476740Y-68414506D01*
X160428203Y-68652256D01*
X160418785Y-68885993D01*
X160418434Y-68894713D01*
X150642473Y-68894713D01*
X150632809Y-68833694D01*
X150574292Y-68718849D01*
X150574291Y-68718847D01*
X150483152Y-68627708D01*
X150368306Y-68569191D01*
X150368308Y-68569191D01*
X150241001Y-68549028D01*
X150240999Y-68549028D01*
X150113692Y-68569191D01*
X149998847Y-68627708D01*
X149907708Y-68718847D01*
X149849191Y-68833692D01*
X149829028Y-68960999D01*
X149829028Y-68961000D01*
X115125099Y-68961000D01*
X115125099Y-68400744D01*
X115116228Y-68356142D01*
X115082434Y-68305566D01*
X115031858Y-68271772D01*
X115031856Y-68271771D01*
X114987257Y-68262900D01*
X113257144Y-68262900D01*
X113257142Y-68262901D01*
X113212540Y-68271772D01*
X113161967Y-68305564D01*
X113128172Y-68356142D01*
X113128171Y-68356143D01*
X113119300Y-68400742D01*
X113119300Y-70130855D01*
X111760500Y-70130855D01*
X111760500Y-67857401D01*
X129019429Y-67857401D01*
X129039592Y-67984708D01*
X129098109Y-68099553D01*
X129189248Y-68190692D01*
X129189250Y-68190693D01*
X129304093Y-68249209D01*
X129304095Y-68249210D01*
X129390538Y-68262901D01*
X129431400Y-68269373D01*
X129431401Y-68269373D01*
X129431402Y-68269373D01*
X129451565Y-68266179D01*
X129558707Y-68249210D01*
X129673552Y-68190693D01*
X129764693Y-68099552D01*
X129823210Y-67984707D01*
X129843373Y-67857401D01*
X129823210Y-67730095D01*
X129764693Y-67615250D01*
X129764692Y-67615248D01*
X129673553Y-67524109D01*
X129558707Y-67465592D01*
X129558709Y-67465592D01*
X129431402Y-67445429D01*
X129431400Y-67445429D01*
X129304093Y-67465592D01*
X129189248Y-67524109D01*
X129098109Y-67615248D01*
X129039592Y-67730093D01*
X129019429Y-67857400D01*
X129019429Y-67857401D01*
X111760500Y-67857401D01*
X111760500Y-66725800D01*
X113114447Y-66725800D01*
X113133810Y-66922399D01*
X113133810Y-66922401D01*
X113191155Y-67111443D01*
X113191156Y-67111447D01*
X113284286Y-67285681D01*
X113284289Y-67285685D01*
X113409610Y-67438389D01*
X113562314Y-67563710D01*
X113562318Y-67563713D01*
X113562322Y-67563716D01*
X113736550Y-67656842D01*
X113736552Y-67656843D01*
X113736556Y-67656844D01*
X113740990Y-67658189D01*
X113925597Y-67714189D01*
X114122200Y-67733553D01*
X114318803Y-67714189D01*
X114507850Y-67656842D01*
X114682078Y-67563716D01*
X114834789Y-67438389D01*
X114960116Y-67285678D01*
X115053242Y-67111450D01*
X115110589Y-66922403D01*
X115129953Y-66725800D01*
X115112441Y-66548000D01*
X146146028Y-66548000D01*
X146166191Y-66675307D01*
X146224708Y-66790152D01*
X146315847Y-66881291D01*
X146315849Y-66881292D01*
X146430692Y-66939808D01*
X146430694Y-66939809D01*
X146528487Y-66955297D01*
X146557999Y-66959972D01*
X146558000Y-66959972D01*
X146558001Y-66959972D01*
X146578164Y-66956778D01*
X146685306Y-66939809D01*
X146800151Y-66881292D01*
X146891292Y-66790151D01*
X146949809Y-66675306D01*
X146969972Y-66548000D01*
X146949809Y-66420694D01*
X146891292Y-66305849D01*
X146891291Y-66305847D01*
X146849868Y-66264424D01*
X146848170Y-66260782D01*
X147087182Y-66260782D01*
X147107345Y-66388089D01*
X147165862Y-66502934D01*
X147257001Y-66594073D01*
X147257003Y-66594074D01*
X147371846Y-66652590D01*
X147371848Y-66652591D01*
X147469641Y-66668079D01*
X147499153Y-66672754D01*
X147499154Y-66672754D01*
X147499155Y-66672754D01*
X147559729Y-66663160D01*
X147573404Y-66660994D01*
X147623899Y-66670809D01*
X147656271Y-66710785D01*
X147659442Y-66723503D01*
X147662875Y-66745180D01*
X147662876Y-66745183D01*
X147672211Y-66763503D01*
X147721393Y-66860029D01*
X147812532Y-66951168D01*
X147812534Y-66951169D01*
X147927377Y-67009685D01*
X147927379Y-67009686D01*
X148033996Y-67026572D01*
X148078986Y-67051510D01*
X148094262Y-67091305D01*
X148096506Y-67090950D01*
X148117595Y-67224102D01*
X148176112Y-67338947D01*
X148267251Y-67430086D01*
X148267253Y-67430087D01*
X148382096Y-67488603D01*
X148382098Y-67488604D01*
X148479891Y-67504092D01*
X148509403Y-67508767D01*
X148509404Y-67508767D01*
X148509405Y-67508767D01*
X148529568Y-67505573D01*
X148636710Y-67488604D01*
X148751555Y-67430087D01*
X148842696Y-67338946D01*
X148901213Y-67224101D01*
X148921376Y-67096795D01*
X148920506Y-67091305D01*
X148907579Y-67009685D01*
X148901213Y-66969489D01*
X148842696Y-66854644D01*
X148842695Y-66854642D01*
X148751556Y-66763503D01*
X148636710Y-66704986D01*
X148636711Y-66704986D01*
X148530093Y-66688099D01*
X148485103Y-66663160D01*
X148469827Y-66623367D01*
X148467583Y-66623723D01*
X148462887Y-66594073D01*
X148446494Y-66490571D01*
X148387977Y-66375726D01*
X148387976Y-66375724D01*
X148296837Y-66284585D01*
X148181991Y-66226068D01*
X148181993Y-66226068D01*
X148054686Y-66205905D01*
X148054684Y-66205905D01*
X147980434Y-66217665D01*
X147929939Y-66207850D01*
X147897567Y-66167874D01*
X147894396Y-66155154D01*
X147890963Y-66133476D01*
X147832446Y-66018631D01*
X147832445Y-66018629D01*
X147741306Y-65927490D01*
X147626460Y-65868973D01*
X147626462Y-65868973D01*
X147499155Y-65848810D01*
X147499153Y-65848810D01*
X147371846Y-65868973D01*
X147257001Y-65927490D01*
X147165862Y-66018629D01*
X147107345Y-66133474D01*
X147087182Y-66260781D01*
X147087182Y-66260782D01*
X146848170Y-66260782D01*
X146828128Y-66217804D01*
X146841442Y-66168117D01*
X146849868Y-66158076D01*
X146915726Y-66092217D01*
X146915728Y-66092215D01*
X146974244Y-65977371D01*
X146994407Y-65850065D01*
X146974244Y-65722759D01*
X146973255Y-65720817D01*
X146915726Y-65607912D01*
X146824587Y-65516773D01*
X146709741Y-65458256D01*
X146709743Y-65458256D01*
X146582436Y-65438093D01*
X146582434Y-65438093D01*
X146455127Y-65458256D01*
X146340282Y-65516773D01*
X146249143Y-65607912D01*
X146190626Y-65722757D01*
X146170463Y-65850064D01*
X146170463Y-65850065D01*
X146190626Y-65977372D01*
X146211648Y-66018629D01*
X146249143Y-66092216D01*
X146290567Y-66133640D01*
X146312307Y-66180259D01*
X146298994Y-66229946D01*
X146290568Y-66239988D01*
X146224707Y-66305849D01*
X146166191Y-66420692D01*
X146146028Y-66547999D01*
X146146028Y-66548000D01*
X115112441Y-66548000D01*
X115110589Y-66529197D01*
X115053242Y-66340150D01*
X114960116Y-66165922D01*
X114960113Y-66165918D01*
X114960110Y-66165914D01*
X114834789Y-66013210D01*
X114682085Y-65887889D01*
X114682081Y-65887886D01*
X114682079Y-65887885D01*
X114682078Y-65887884D01*
X114569226Y-65827564D01*
X114507847Y-65794756D01*
X114507843Y-65794755D01*
X114318800Y-65737410D01*
X114122200Y-65718047D01*
X113925600Y-65737410D01*
X113925598Y-65737410D01*
X113736556Y-65794755D01*
X113736552Y-65794756D01*
X113562318Y-65887886D01*
X113562314Y-65887889D01*
X113409610Y-66013210D01*
X113284289Y-66165914D01*
X113284286Y-66165918D01*
X113191156Y-66340152D01*
X113191155Y-66340156D01*
X113133810Y-66529198D01*
X113133810Y-66529200D01*
X113114447Y-66725800D01*
X111760500Y-66725800D01*
X111760500Y-64185800D01*
X113114447Y-64185800D01*
X113133810Y-64382399D01*
X113133810Y-64382401D01*
X113191155Y-64571443D01*
X113191156Y-64571447D01*
X113284286Y-64745681D01*
X113284289Y-64745685D01*
X113409610Y-64898389D01*
X113562314Y-65023710D01*
X113562318Y-65023713D01*
X113562322Y-65023716D01*
X113736550Y-65116842D01*
X113736552Y-65116843D01*
X113736556Y-65116844D01*
X113740990Y-65118189D01*
X113925597Y-65174189D01*
X114122200Y-65193553D01*
X114318803Y-65174189D01*
X114507850Y-65116842D01*
X114682078Y-65023716D01*
X114834789Y-64898389D01*
X114960116Y-64745678D01*
X115053242Y-64571450D01*
X115110589Y-64382403D01*
X115129953Y-64185800D01*
X115112441Y-64008000D01*
X154528028Y-64008000D01*
X154548191Y-64135307D01*
X154606708Y-64250152D01*
X154697847Y-64341291D01*
X154697849Y-64341292D01*
X154812692Y-64399808D01*
X154812694Y-64399809D01*
X154910487Y-64415297D01*
X154939999Y-64419972D01*
X154940000Y-64419972D01*
X154940001Y-64419972D01*
X154960164Y-64416778D01*
X155067306Y-64399809D01*
X155182151Y-64341292D01*
X155273292Y-64250151D01*
X155331809Y-64135306D01*
X155339268Y-64088205D01*
X155359295Y-64052075D01*
X165883257Y-64052075D01*
X165913820Y-64225407D01*
X165983530Y-64387011D01*
X166088633Y-64528188D01*
X166223457Y-64641321D01*
X166223461Y-64641323D01*
X166380738Y-64720309D01*
X166380740Y-64720310D01*
X166551999Y-64760900D01*
X166552003Y-64760900D01*
X166683854Y-64760900D01*
X166683854Y-64760899D01*
X166814813Y-64745592D01*
X166980201Y-64685396D01*
X167127249Y-64588681D01*
X167248029Y-64460661D01*
X167336031Y-64308238D01*
X167386509Y-64139630D01*
X167396743Y-63963925D01*
X167366180Y-63790596D01*
X167366179Y-63790594D01*
X167366179Y-63790592D01*
X167296469Y-63628988D01*
X167241639Y-63555339D01*
X167191367Y-63487812D01*
X167191366Y-63487811D01*
X167056542Y-63374678D01*
X167056538Y-63374676D01*
X166899261Y-63295690D01*
X166728003Y-63255100D01*
X166728001Y-63255100D01*
X166596153Y-63255100D01*
X166596145Y-63255100D01*
X166465189Y-63270407D01*
X166465188Y-63270407D01*
X166299801Y-63330603D01*
X166299800Y-63330603D01*
X166299799Y-63330604D01*
X166252137Y-63361951D01*
X166152750Y-63427319D01*
X166031969Y-63555340D01*
X165943968Y-63707763D01*
X165893491Y-63876367D01*
X165893491Y-63876369D01*
X165883257Y-64052075D01*
X155359295Y-64052075D01*
X155364206Y-64043216D01*
X155412229Y-64024781D01*
X155425292Y-64025695D01*
X155518542Y-64040464D01*
X155645848Y-64020301D01*
X155760693Y-63961784D01*
X155851834Y-63870643D01*
X155910351Y-63755798D01*
X155926259Y-63655355D01*
X155951196Y-63610367D01*
X155999219Y-63591932D01*
X156012284Y-63592846D01*
X156096422Y-63606172D01*
X156223728Y-63586009D01*
X156338573Y-63527492D01*
X156429714Y-63436351D01*
X156488231Y-63321506D01*
X156508394Y-63194200D01*
X156508069Y-63192151D01*
X156489880Y-63077307D01*
X156488231Y-63066894D01*
X156429714Y-62952049D01*
X156429713Y-62952047D01*
X156338574Y-62860908D01*
X156223728Y-62802391D01*
X156223730Y-62802391D01*
X156096423Y-62782228D01*
X156096421Y-62782228D01*
X155969114Y-62802391D01*
X155854269Y-62860908D01*
X155763130Y-62952047D01*
X155704613Y-63066892D01*
X155688705Y-63167334D01*
X155663767Y-63212324D01*
X155615743Y-63230759D01*
X155602668Y-63229844D01*
X155570048Y-63224677D01*
X155518543Y-63216520D01*
X155518541Y-63216520D01*
X155391234Y-63236683D01*
X155276389Y-63295200D01*
X155185250Y-63386339D01*
X155126733Y-63501184D01*
X155119273Y-63548285D01*
X155094334Y-63593275D01*
X155046311Y-63611709D01*
X155033236Y-63610794D01*
X154940002Y-63596028D01*
X154939999Y-63596028D01*
X154812692Y-63616191D01*
X154697847Y-63674708D01*
X154606708Y-63765847D01*
X154548191Y-63880692D01*
X154528028Y-64007999D01*
X154528028Y-64008000D01*
X115112441Y-64008000D01*
X115110589Y-63989197D01*
X115053242Y-63800150D01*
X114960116Y-63625922D01*
X114960113Y-63625918D01*
X114960110Y-63625914D01*
X114834789Y-63473210D01*
X114682085Y-63347889D01*
X114682081Y-63347886D01*
X114682079Y-63347885D01*
X114682078Y-63347884D01*
X114569226Y-63287564D01*
X114507847Y-63254756D01*
X114507843Y-63254755D01*
X114318800Y-63197410D01*
X114122200Y-63178047D01*
X113925600Y-63197410D01*
X113925598Y-63197410D01*
X113736556Y-63254755D01*
X113736552Y-63254756D01*
X113562318Y-63347886D01*
X113562314Y-63347889D01*
X113409610Y-63473210D01*
X113284289Y-63625914D01*
X113284286Y-63625918D01*
X113191156Y-63800152D01*
X113191155Y-63800156D01*
X113133810Y-63989198D01*
X113133810Y-63989200D01*
X113114447Y-64185800D01*
X111760500Y-64185800D01*
X111760500Y-61391800D01*
X112785655Y-61391800D01*
X113691084Y-61391800D01*
X113662707Y-61435956D01*
X113622200Y-61573911D01*
X113622200Y-61717689D01*
X113662707Y-61855644D01*
X113691084Y-61899800D01*
X112785656Y-61899800D01*
X112833379Y-62088257D01*
X112923780Y-62294349D01*
X113046875Y-62482759D01*
X113199297Y-62648334D01*
X113199301Y-62648338D01*
X113376900Y-62786569D01*
X113574822Y-62893679D01*
X113574824Y-62893680D01*
X113787685Y-62966755D01*
X113787695Y-62966758D01*
X113868199Y-62980192D01*
X113868200Y-62980191D01*
X113868200Y-62079474D01*
X113979885Y-62130480D01*
X114086437Y-62145800D01*
X114157963Y-62145800D01*
X114264515Y-62130480D01*
X114376200Y-62079474D01*
X114376200Y-62980192D01*
X114456704Y-62966758D01*
X114456714Y-62966755D01*
X114669575Y-62893680D01*
X114669577Y-62893679D01*
X114867499Y-62786569D01*
X115045098Y-62648338D01*
X115045102Y-62648334D01*
X115197524Y-62482759D01*
X115320619Y-62294349D01*
X115404553Y-62103000D01*
X145130028Y-62103000D01*
X145150191Y-62230307D01*
X145208708Y-62345152D01*
X145299847Y-62436291D01*
X145299849Y-62436292D01*
X145414692Y-62494808D01*
X145414694Y-62494809D01*
X145542000Y-62514972D01*
X145619415Y-62502710D01*
X145669907Y-62512525D01*
X145702280Y-62552500D01*
X145701383Y-62603932D01*
X145692019Y-62621180D01*
X145690810Y-62622843D01*
X145632291Y-62737692D01*
X145612128Y-62864999D01*
X145612128Y-62865000D01*
X145632291Y-62992307D01*
X145690808Y-63107152D01*
X145781947Y-63198291D01*
X145781949Y-63198292D01*
X145896792Y-63256808D01*
X145896794Y-63256809D01*
X145982650Y-63270407D01*
X146024099Y-63276972D01*
X146024100Y-63276972D01*
X146024101Y-63276972D01*
X146044264Y-63273778D01*
X146151406Y-63256809D01*
X146266251Y-63198292D01*
X146357392Y-63107151D01*
X146415909Y-62992306D01*
X146422610Y-62950000D01*
X147838028Y-62950000D01*
X147858191Y-63077307D01*
X147916708Y-63192152D01*
X148007847Y-63283291D01*
X148007849Y-63283292D01*
X148122692Y-63341808D01*
X148122694Y-63341809D01*
X148220487Y-63357297D01*
X148249999Y-63361972D01*
X148250000Y-63361972D01*
X148250001Y-63361972D01*
X148270164Y-63358778D01*
X148377306Y-63341809D01*
X148492151Y-63283292D01*
X148583292Y-63192151D01*
X148641809Y-63077306D01*
X148661972Y-62950000D01*
X148641809Y-62822694D01*
X148583292Y-62707849D01*
X148583291Y-62707847D01*
X148492152Y-62616708D01*
X148377306Y-62558191D01*
X148377308Y-62558191D01*
X148250001Y-62538028D01*
X148249999Y-62538028D01*
X148122692Y-62558191D01*
X148007847Y-62616708D01*
X147916708Y-62707847D01*
X147858191Y-62822692D01*
X147838028Y-62949999D01*
X147838028Y-62950000D01*
X146422610Y-62950000D01*
X146436072Y-62865000D01*
X146415909Y-62737694D01*
X146357392Y-62622849D01*
X146357391Y-62622847D01*
X146266252Y-62531708D01*
X146151406Y-62473191D01*
X146151408Y-62473191D01*
X146024101Y-62453028D01*
X146024099Y-62453028D01*
X145946686Y-62465289D01*
X145896191Y-62455474D01*
X145863819Y-62415498D01*
X145864717Y-62364066D01*
X145874088Y-62346809D01*
X145875290Y-62345153D01*
X145875291Y-62345152D01*
X145875292Y-62345151D01*
X145933809Y-62230306D01*
X145933857Y-62230000D01*
X155036028Y-62230000D01*
X155056191Y-62357307D01*
X155114708Y-62472152D01*
X155205847Y-62563291D01*
X155205849Y-62563292D01*
X155320692Y-62621808D01*
X155320694Y-62621809D01*
X155418487Y-62637297D01*
X155447999Y-62641972D01*
X155448000Y-62641972D01*
X155448001Y-62641972D01*
X155468164Y-62638778D01*
X155575306Y-62621809D01*
X155690151Y-62563292D01*
X155781292Y-62472151D01*
X155839809Y-62357306D01*
X155859972Y-62230000D01*
X155839809Y-62102694D01*
X155781292Y-61987849D01*
X155781291Y-61987847D01*
X155690152Y-61896708D01*
X155575306Y-61838191D01*
X155575308Y-61838191D01*
X155448001Y-61818028D01*
X155447999Y-61818028D01*
X155320692Y-61838191D01*
X155205847Y-61896708D01*
X155114708Y-61987847D01*
X155056191Y-62102692D01*
X155036028Y-62229999D01*
X155036028Y-62230000D01*
X145933857Y-62230000D01*
X145953972Y-62103000D01*
X145933809Y-61975694D01*
X145875292Y-61860849D01*
X145875291Y-61860847D01*
X145784152Y-61769708D01*
X145669306Y-61711191D01*
X145669308Y-61711191D01*
X145542001Y-61691028D01*
X145541999Y-61691028D01*
X145414692Y-61711191D01*
X145299847Y-61769708D01*
X145208708Y-61860847D01*
X145150191Y-61975692D01*
X145130028Y-62102999D01*
X145130028Y-62103000D01*
X115404553Y-62103000D01*
X115411020Y-62088257D01*
X115458744Y-61899800D01*
X114553316Y-61899800D01*
X114581693Y-61855644D01*
X114622200Y-61717689D01*
X114622200Y-61573911D01*
X114581693Y-61435956D01*
X114553316Y-61391800D01*
X115458744Y-61391800D01*
X115411020Y-61203342D01*
X115320619Y-60997250D01*
X115197524Y-60808840D01*
X115045102Y-60643265D01*
X115045098Y-60643261D01*
X114962536Y-60579000D01*
X139923028Y-60579000D01*
X139943191Y-60706307D01*
X140001708Y-60821152D01*
X140092847Y-60912291D01*
X140092849Y-60912292D01*
X140207692Y-60970808D01*
X140207694Y-60970809D01*
X140305487Y-60986297D01*
X140334999Y-60990972D01*
X140335000Y-60990972D01*
X140335001Y-60990972D01*
X140355164Y-60987778D01*
X140462306Y-60970809D01*
X140577151Y-60912292D01*
X140668292Y-60821151D01*
X140726809Y-60706306D01*
X140746972Y-60579000D01*
X140726809Y-60451694D01*
X140668292Y-60336849D01*
X140668291Y-60336847D01*
X140577152Y-60245708D01*
X140462306Y-60187191D01*
X140462308Y-60187191D01*
X140335001Y-60167028D01*
X140334999Y-60167028D01*
X140207692Y-60187191D01*
X140092847Y-60245708D01*
X140001708Y-60336847D01*
X139943191Y-60451692D01*
X139923028Y-60578999D01*
X139923028Y-60579000D01*
X114962536Y-60579000D01*
X114867499Y-60505030D01*
X114669577Y-60397920D01*
X114669575Y-60397919D01*
X114456707Y-60324842D01*
X114456711Y-60324842D01*
X114376200Y-60311406D01*
X114376200Y-61212125D01*
X114264515Y-61161120D01*
X114157963Y-61145800D01*
X114086437Y-61145800D01*
X113979885Y-61161120D01*
X113868200Y-61212125D01*
X113868200Y-60311406D01*
X113787690Y-60324842D01*
X113574824Y-60397919D01*
X113574822Y-60397920D01*
X113376900Y-60505030D01*
X113199301Y-60643261D01*
X113199297Y-60643265D01*
X113046875Y-60808840D01*
X112923780Y-60997250D01*
X112833379Y-61203342D01*
X112785655Y-61391800D01*
X111760500Y-61391800D01*
X111760500Y-59105800D01*
X113114447Y-59105800D01*
X113133810Y-59302399D01*
X113133810Y-59302401D01*
X113191155Y-59491443D01*
X113191156Y-59491447D01*
X113202189Y-59512088D01*
X113282182Y-59661746D01*
X113284286Y-59665681D01*
X113284289Y-59665685D01*
X113409610Y-59818389D01*
X113562314Y-59943710D01*
X113562318Y-59943713D01*
X113562322Y-59943716D01*
X113682128Y-60007753D01*
X113736552Y-60036843D01*
X113736556Y-60036844D01*
X113779793Y-60049959D01*
X113925597Y-60094189D01*
X114122200Y-60113553D01*
X114318803Y-60094189D01*
X114507850Y-60036842D01*
X114682078Y-59943716D01*
X114834789Y-59818389D01*
X114960116Y-59665678D01*
X115053242Y-59491450D01*
X115110589Y-59302403D01*
X115129953Y-59105800D01*
X115119532Y-59000000D01*
X118702247Y-59000000D01*
X118721610Y-59196599D01*
X118721610Y-59196601D01*
X118778955Y-59385643D01*
X118778956Y-59385647D01*
X118872086Y-59559881D01*
X118872089Y-59559885D01*
X118997410Y-59712589D01*
X119150114Y-59837910D01*
X119150118Y-59837913D01*
X119150122Y-59837916D01*
X119284343Y-59909658D01*
X119324352Y-59931043D01*
X119324356Y-59931044D01*
X119366111Y-59943710D01*
X119513397Y-59988389D01*
X119710000Y-60007753D01*
X119906603Y-59988389D01*
X120095650Y-59931042D01*
X120219104Y-59865055D01*
X121247100Y-59865055D01*
X121247101Y-59865057D01*
X121255972Y-59909659D01*
X121289764Y-59960232D01*
X121289765Y-59960232D01*
X121289766Y-59960234D01*
X121340342Y-59994028D01*
X121384943Y-60002900D01*
X123115056Y-60002899D01*
X123159658Y-59994028D01*
X123210234Y-59960234D01*
X123244028Y-59909658D01*
X123245174Y-59903897D01*
X151901131Y-59903897D01*
X151921294Y-60031204D01*
X151979811Y-60146049D01*
X152070950Y-60237188D01*
X152070952Y-60237189D01*
X152185795Y-60295705D01*
X152185797Y-60295706D01*
X152283590Y-60311194D01*
X152313102Y-60315869D01*
X152313103Y-60315869D01*
X152313104Y-60315869D01*
X152333267Y-60312675D01*
X152440409Y-60295706D01*
X152555254Y-60237189D01*
X152592443Y-60200000D01*
X157488028Y-60200000D01*
X157508191Y-60327307D01*
X157566708Y-60442152D01*
X157657847Y-60533291D01*
X157657849Y-60533292D01*
X157772692Y-60591808D01*
X157772694Y-60591809D01*
X157870487Y-60607297D01*
X157899999Y-60611972D01*
X157900000Y-60611972D01*
X157900001Y-60611972D01*
X157920164Y-60608778D01*
X158027306Y-60591809D01*
X158142151Y-60533292D01*
X158233292Y-60442151D01*
X158291809Y-60327306D01*
X158311972Y-60200000D01*
X158311655Y-60198000D01*
X166617074Y-60198000D01*
X166636728Y-60397559D01*
X166694942Y-60589462D01*
X166762651Y-60716136D01*
X166762652Y-60716137D01*
X167280790Y-60198000D01*
X167280790Y-60197999D01*
X166762652Y-59679861D01*
X166694940Y-59806542D01*
X166636728Y-59998440D01*
X166617074Y-60198000D01*
X158311655Y-60198000D01*
X158291809Y-60072694D01*
X158233292Y-59957849D01*
X158233291Y-59957847D01*
X158142152Y-59866708D01*
X158027306Y-59808191D01*
X158027308Y-59808191D01*
X157900001Y-59788028D01*
X157899999Y-59788028D01*
X157772692Y-59808191D01*
X157657847Y-59866708D01*
X157566708Y-59957847D01*
X157508191Y-60072692D01*
X157488028Y-60199999D01*
X157488028Y-60200000D01*
X152592443Y-60200000D01*
X152646395Y-60146048D01*
X152704912Y-60031203D01*
X152725075Y-59903897D01*
X152704912Y-59776591D01*
X152646395Y-59661746D01*
X152646394Y-59661744D01*
X152555255Y-59570605D01*
X152440409Y-59512088D01*
X152440411Y-59512088D01*
X152313104Y-59491925D01*
X152313102Y-59491925D01*
X152185795Y-59512088D01*
X152070950Y-59570605D01*
X151979811Y-59661744D01*
X151921294Y-59776589D01*
X151901131Y-59903896D01*
X151901131Y-59903897D01*
X123245174Y-59903897D01*
X123252900Y-59865057D01*
X123252899Y-58134944D01*
X123244028Y-58090342D01*
X123229738Y-58068956D01*
X123210235Y-58039767D01*
X123210231Y-58039764D01*
X123159658Y-58005972D01*
X123159656Y-58005971D01*
X123115057Y-57997100D01*
X121384944Y-57997100D01*
X121384942Y-57997101D01*
X121340340Y-58005972D01*
X121289767Y-58039764D01*
X121255972Y-58090342D01*
X121255971Y-58090343D01*
X121247100Y-58134942D01*
X121247100Y-59865055D01*
X120219104Y-59865055D01*
X120269878Y-59837916D01*
X120422589Y-59712589D01*
X120547916Y-59559878D01*
X120641042Y-59385650D01*
X120698389Y-59196603D01*
X120717753Y-59000000D01*
X120698389Y-58803397D01*
X120662392Y-58684734D01*
X120641044Y-58614356D01*
X120641043Y-58614352D01*
X120641042Y-58614350D01*
X120547916Y-58440122D01*
X120547913Y-58440118D01*
X120547910Y-58440114D01*
X120422589Y-58287410D01*
X120269885Y-58162089D01*
X120269881Y-58162086D01*
X120269879Y-58162085D01*
X120269878Y-58162084D01*
X120135657Y-58090342D01*
X120095647Y-58068956D01*
X120095643Y-58068955D01*
X119906600Y-58011610D01*
X119710000Y-57992247D01*
X119513400Y-58011610D01*
X119513398Y-58011610D01*
X119324356Y-58068955D01*
X119324352Y-58068956D01*
X119150118Y-58162086D01*
X119150114Y-58162089D01*
X118997410Y-58287410D01*
X118872089Y-58440114D01*
X118872086Y-58440118D01*
X118778956Y-58614352D01*
X118778955Y-58614356D01*
X118721610Y-58803398D01*
X118721610Y-58803400D01*
X118702247Y-59000000D01*
X115119532Y-59000000D01*
X115110589Y-58909197D01*
X115053242Y-58720150D01*
X114960116Y-58545922D01*
X114960113Y-58545918D01*
X114960110Y-58545914D01*
X114834789Y-58393210D01*
X114682085Y-58267889D01*
X114682081Y-58267886D01*
X114682079Y-58267885D01*
X114682078Y-58267884D01*
X114594964Y-58221321D01*
X114507847Y-58174756D01*
X114507843Y-58174755D01*
X114318800Y-58117410D01*
X114122200Y-58098047D01*
X113925600Y-58117410D01*
X113925598Y-58117410D01*
X113736556Y-58174755D01*
X113736552Y-58174756D01*
X113562318Y-58267886D01*
X113562314Y-58267889D01*
X113409610Y-58393210D01*
X113284289Y-58545914D01*
X113284286Y-58545918D01*
X113191156Y-58720152D01*
X113191155Y-58720156D01*
X113133810Y-58909198D01*
X113133810Y-58909200D01*
X113114447Y-59105800D01*
X111760500Y-59105800D01*
X111760500Y-56565800D01*
X113114447Y-56565800D01*
X113133810Y-56762399D01*
X113133810Y-56762401D01*
X113191155Y-56951443D01*
X113191156Y-56951447D01*
X113284286Y-57125681D01*
X113284289Y-57125685D01*
X113409610Y-57278389D01*
X113562314Y-57403710D01*
X113562318Y-57403713D01*
X113562322Y-57403716D01*
X113711198Y-57483291D01*
X113736552Y-57496843D01*
X113736556Y-57496844D01*
X113779793Y-57509959D01*
X113925597Y-57554189D01*
X114122200Y-57573553D01*
X114318803Y-57554189D01*
X114507850Y-57496842D01*
X114682078Y-57403716D01*
X114834789Y-57278389D01*
X114940155Y-57150000D01*
X146019028Y-57150000D01*
X146039191Y-57277307D01*
X146097708Y-57392152D01*
X146188847Y-57483291D01*
X146188849Y-57483292D01*
X146303692Y-57541808D01*
X146303694Y-57541809D01*
X146401487Y-57557297D01*
X146430999Y-57561972D01*
X146431000Y-57561972D01*
X146431001Y-57561972D01*
X146451164Y-57558778D01*
X146558306Y-57541809D01*
X146673151Y-57483292D01*
X146764292Y-57392151D01*
X146822809Y-57277306D01*
X146842972Y-57150000D01*
X146822809Y-57022694D01*
X146786507Y-56951447D01*
X146764291Y-56907847D01*
X146673152Y-56816708D01*
X146558306Y-56758191D01*
X146558308Y-56758191D01*
X146431001Y-56738028D01*
X146430999Y-56738028D01*
X146303692Y-56758191D01*
X146188847Y-56816708D01*
X146097708Y-56907847D01*
X146039191Y-57022692D01*
X146019028Y-57149999D01*
X146019028Y-57150000D01*
X114940155Y-57150000D01*
X114960116Y-57125678D01*
X115053242Y-56951450D01*
X115110589Y-56762403D01*
X115129953Y-56565800D01*
X115110589Y-56369197D01*
X115053242Y-56180150D01*
X114960116Y-56005922D01*
X114960113Y-56005918D01*
X114960110Y-56005914D01*
X114834789Y-55853210D01*
X114682085Y-55727889D01*
X114682081Y-55727886D01*
X114682079Y-55727885D01*
X114682078Y-55727884D01*
X114594964Y-55681321D01*
X114507847Y-55634756D01*
X114507843Y-55634755D01*
X114318800Y-55577410D01*
X114122200Y-55558047D01*
X113925600Y-55577410D01*
X113925598Y-55577410D01*
X113736556Y-55634755D01*
X113736552Y-55634756D01*
X113562318Y-55727886D01*
X113562314Y-55727889D01*
X113409610Y-55853210D01*
X113284289Y-56005914D01*
X113284286Y-56005918D01*
X113191156Y-56180152D01*
X113191155Y-56180156D01*
X113133810Y-56369198D01*
X113133810Y-56369200D01*
X113114447Y-56565800D01*
X111760500Y-56565800D01*
X111760500Y-55372000D01*
X142336028Y-55372000D01*
X142356191Y-55499307D01*
X142414708Y-55614152D01*
X142505847Y-55705291D01*
X142505849Y-55705292D01*
X142620692Y-55763808D01*
X142620694Y-55763809D01*
X142718487Y-55779297D01*
X142747999Y-55783972D01*
X142748000Y-55783972D01*
X142748001Y-55783972D01*
X142768164Y-55780778D01*
X142875306Y-55763809D01*
X142990151Y-55705292D01*
X143081292Y-55614151D01*
X143139809Y-55499306D01*
X143159972Y-55372000D01*
X143139809Y-55244694D01*
X143081292Y-55129849D01*
X143081291Y-55129847D01*
X142990152Y-55038708D01*
X142875306Y-54980191D01*
X142875308Y-54980191D01*
X142748001Y-54960028D01*
X142747999Y-54960028D01*
X142620692Y-54980191D01*
X142505847Y-55038708D01*
X142414708Y-55129847D01*
X142356191Y-55244692D01*
X142336028Y-55371999D01*
X142336028Y-55372000D01*
X111760500Y-55372000D01*
X111760500Y-53857911D01*
X120413434Y-53857911D01*
X120442682Y-54098799D01*
X120510193Y-54331871D01*
X120510193Y-54331872D01*
X120614215Y-54551092D01*
X120614221Y-54551102D01*
X120752055Y-54750790D01*
X120920153Y-54925798D01*
X120920155Y-54925800D01*
X120965705Y-54960028D01*
X121114138Y-55071568D01*
X121114140Y-55071569D01*
X121114139Y-55071569D01*
X121229826Y-55132286D01*
X121328997Y-55184335D01*
X121509789Y-55244692D01*
X121559161Y-55261175D01*
X121616830Y-55270547D01*
X121798673Y-55300100D01*
X121798677Y-55300100D01*
X121980562Y-55300100D01*
X121980563Y-55300100D01*
X122161866Y-55285464D01*
X122397469Y-55227393D01*
X122560681Y-55157854D01*
X122620693Y-55132286D01*
X122620695Y-55132284D01*
X122620704Y-55132281D01*
X122825793Y-55002591D01*
X123007421Y-54841682D01*
X123160886Y-54653722D01*
X123282213Y-54443578D01*
X123368259Y-54216693D01*
X123416796Y-53978944D01*
X123426566Y-53736487D01*
X123397318Y-53495603D01*
X123329807Y-53262531D01*
X123329806Y-53262528D01*
X123329806Y-53262527D01*
X123242129Y-53077753D01*
X123225784Y-53043306D01*
X123196612Y-53001043D01*
X123151064Y-52935055D01*
X136792101Y-52935055D01*
X136792102Y-52935057D01*
X136800973Y-52979659D01*
X136834765Y-53030232D01*
X136834766Y-53030232D01*
X136834767Y-53030234D01*
X136885343Y-53064028D01*
X136929944Y-53072900D01*
X138660057Y-53072899D01*
X138704659Y-53064028D01*
X138755235Y-53030234D01*
X138789029Y-52979658D01*
X138797901Y-52935057D01*
X138797900Y-52070000D01*
X139327248Y-52070000D01*
X139346611Y-52266599D01*
X139346611Y-52266601D01*
X139403956Y-52455643D01*
X139403957Y-52455647D01*
X139424966Y-52494952D01*
X139476736Y-52591808D01*
X139497087Y-52629881D01*
X139497090Y-52629885D01*
X139622411Y-52782589D01*
X139775115Y-52907910D01*
X139775119Y-52907913D01*
X139775123Y-52907916D01*
X139909344Y-52979658D01*
X139949353Y-53001043D01*
X139949357Y-53001044D01*
X139992594Y-53014159D01*
X140138398Y-53058389D01*
X140335001Y-53077753D01*
X140531604Y-53058389D01*
X140720651Y-53001042D01*
X140894879Y-52907916D01*
X141047590Y-52782589D01*
X141172917Y-52629878D01*
X141266043Y-52455650D01*
X141323390Y-52266603D01*
X141342754Y-52070000D01*
X141867248Y-52070000D01*
X141886611Y-52266599D01*
X141886611Y-52266601D01*
X141943956Y-52455643D01*
X141943957Y-52455647D01*
X141964966Y-52494952D01*
X142016736Y-52591808D01*
X142037087Y-52629881D01*
X142037090Y-52629885D01*
X142162411Y-52782589D01*
X142315115Y-52907910D01*
X142315119Y-52907913D01*
X142315123Y-52907916D01*
X142449344Y-52979658D01*
X142489353Y-53001043D01*
X142489357Y-53001044D01*
X142532594Y-53014159D01*
X142678398Y-53058389D01*
X142875001Y-53077753D01*
X143071604Y-53058389D01*
X143260651Y-53001042D01*
X143434879Y-52907916D01*
X143587590Y-52782589D01*
X143712917Y-52629878D01*
X143806043Y-52455650D01*
X143863390Y-52266603D01*
X143882754Y-52070000D01*
X144407248Y-52070000D01*
X144426611Y-52266599D01*
X144426611Y-52266601D01*
X144483956Y-52455643D01*
X144483957Y-52455647D01*
X144504966Y-52494952D01*
X144556736Y-52591808D01*
X144577087Y-52629881D01*
X144577090Y-52629885D01*
X144702411Y-52782589D01*
X144855115Y-52907910D01*
X144855119Y-52907913D01*
X144855123Y-52907916D01*
X144989344Y-52979658D01*
X145029353Y-53001043D01*
X145029357Y-53001044D01*
X145072594Y-53014159D01*
X145218398Y-53058389D01*
X145415001Y-53077753D01*
X145611604Y-53058389D01*
X145800651Y-53001042D01*
X145974879Y-52907916D01*
X146127590Y-52782589D01*
X146252917Y-52629878D01*
X146346043Y-52455650D01*
X146403390Y-52266603D01*
X146422754Y-52070000D01*
X146947248Y-52070000D01*
X146966611Y-52266599D01*
X146966611Y-52266601D01*
X147023956Y-52455643D01*
X147023957Y-52455647D01*
X147044966Y-52494952D01*
X147096736Y-52591808D01*
X147117087Y-52629881D01*
X147117090Y-52629885D01*
X147242411Y-52782589D01*
X147395115Y-52907910D01*
X147395119Y-52907913D01*
X147395123Y-52907916D01*
X147529344Y-52979658D01*
X147569353Y-53001043D01*
X147569357Y-53001044D01*
X147612594Y-53014159D01*
X147758398Y-53058389D01*
X147955001Y-53077753D01*
X148151604Y-53058389D01*
X148340651Y-53001042D01*
X148514879Y-52907916D01*
X148667590Y-52782589D01*
X148792917Y-52629878D01*
X148886043Y-52455650D01*
X148943390Y-52266603D01*
X148962754Y-52070000D01*
X149487248Y-52070000D01*
X149506611Y-52266599D01*
X149506611Y-52266601D01*
X149563956Y-52455643D01*
X149563957Y-52455647D01*
X149584966Y-52494952D01*
X149636736Y-52591808D01*
X149657087Y-52629881D01*
X149657090Y-52629885D01*
X149782411Y-52782589D01*
X149935115Y-52907910D01*
X149935119Y-52907913D01*
X149935123Y-52907916D01*
X150069344Y-52979658D01*
X150109353Y-53001043D01*
X150109357Y-53001044D01*
X150152594Y-53014159D01*
X150298398Y-53058389D01*
X150495001Y-53077753D01*
X150691604Y-53058389D01*
X150880651Y-53001042D01*
X151054879Y-52907916D01*
X151207590Y-52782589D01*
X151332917Y-52629878D01*
X151426043Y-52455650D01*
X151483390Y-52266603D01*
X151502754Y-52070000D01*
X152027248Y-52070000D01*
X152046611Y-52266599D01*
X152046611Y-52266601D01*
X152103956Y-52455643D01*
X152103957Y-52455647D01*
X152124966Y-52494952D01*
X152176736Y-52591808D01*
X152197087Y-52629881D01*
X152197090Y-52629885D01*
X152322411Y-52782589D01*
X152475115Y-52907910D01*
X152475119Y-52907913D01*
X152475123Y-52907916D01*
X152609344Y-52979658D01*
X152649353Y-53001043D01*
X152649357Y-53001044D01*
X152692594Y-53014159D01*
X152838398Y-53058389D01*
X153035001Y-53077753D01*
X153231604Y-53058389D01*
X153420651Y-53001042D01*
X153594879Y-52907916D01*
X153747590Y-52782589D01*
X153872917Y-52629878D01*
X153966043Y-52455650D01*
X154023390Y-52266603D01*
X154042754Y-52070000D01*
X154567248Y-52070000D01*
X154586611Y-52266599D01*
X154586611Y-52266601D01*
X154643956Y-52455643D01*
X154643957Y-52455647D01*
X154664966Y-52494952D01*
X154716736Y-52591808D01*
X154737087Y-52629881D01*
X154737090Y-52629885D01*
X154862411Y-52782589D01*
X155015115Y-52907910D01*
X155015119Y-52907913D01*
X155015123Y-52907916D01*
X155149344Y-52979658D01*
X155189353Y-53001043D01*
X155189357Y-53001044D01*
X155232594Y-53014159D01*
X155378398Y-53058389D01*
X155575001Y-53077753D01*
X155771604Y-53058389D01*
X155960651Y-53001042D01*
X156134879Y-52907916D01*
X156287590Y-52782589D01*
X156412917Y-52629878D01*
X156506043Y-52455650D01*
X156563390Y-52266603D01*
X156582754Y-52070000D01*
X157107248Y-52070000D01*
X157126611Y-52266599D01*
X157126611Y-52266601D01*
X157183956Y-52455643D01*
X157183957Y-52455647D01*
X157204966Y-52494952D01*
X157256736Y-52591808D01*
X157277087Y-52629881D01*
X157277090Y-52629885D01*
X157402411Y-52782589D01*
X157555115Y-52907910D01*
X157555119Y-52907913D01*
X157555123Y-52907916D01*
X157689344Y-52979658D01*
X157729353Y-53001043D01*
X157729357Y-53001044D01*
X157772594Y-53014159D01*
X157918398Y-53058389D01*
X158115001Y-53077753D01*
X158311604Y-53058389D01*
X158500651Y-53001042D01*
X158674879Y-52907916D01*
X158827590Y-52782589D01*
X158952917Y-52629878D01*
X159046043Y-52455650D01*
X159103390Y-52266603D01*
X159122754Y-52070000D01*
X159647248Y-52070000D01*
X159666611Y-52266599D01*
X159666611Y-52266601D01*
X159723956Y-52455643D01*
X159723957Y-52455647D01*
X159744966Y-52494952D01*
X159796736Y-52591808D01*
X159817087Y-52629881D01*
X159817090Y-52629885D01*
X159942411Y-52782589D01*
X160095115Y-52907910D01*
X160095119Y-52907913D01*
X160095123Y-52907916D01*
X160229344Y-52979658D01*
X160269353Y-53001043D01*
X160269357Y-53001044D01*
X160312594Y-53014159D01*
X160458398Y-53058389D01*
X160655001Y-53077753D01*
X160851604Y-53058389D01*
X161040651Y-53001042D01*
X161214879Y-52907916D01*
X161367590Y-52782589D01*
X161492917Y-52629878D01*
X161586043Y-52455650D01*
X161643390Y-52266603D01*
X161662754Y-52070000D01*
X162187248Y-52070000D01*
X162206611Y-52266599D01*
X162206611Y-52266601D01*
X162263956Y-52455643D01*
X162263957Y-52455647D01*
X162284966Y-52494952D01*
X162336736Y-52591808D01*
X162357087Y-52629881D01*
X162357090Y-52629885D01*
X162482411Y-52782589D01*
X162635115Y-52907910D01*
X162635119Y-52907913D01*
X162635123Y-52907916D01*
X162769344Y-52979658D01*
X162809353Y-53001043D01*
X162809357Y-53001044D01*
X162852594Y-53014159D01*
X162998398Y-53058389D01*
X163195001Y-53077753D01*
X163391604Y-53058389D01*
X163580651Y-53001042D01*
X163754879Y-52907916D01*
X163907590Y-52782589D01*
X164032917Y-52629878D01*
X164126043Y-52455650D01*
X164183390Y-52266603D01*
X164202754Y-52070000D01*
X164727248Y-52070000D01*
X164746611Y-52266599D01*
X164746611Y-52266601D01*
X164803956Y-52455643D01*
X164803957Y-52455647D01*
X164824966Y-52494952D01*
X164876736Y-52591808D01*
X164897087Y-52629881D01*
X164897090Y-52629885D01*
X165022411Y-52782589D01*
X165175115Y-52907910D01*
X165175119Y-52907913D01*
X165175123Y-52907916D01*
X165309344Y-52979658D01*
X165349353Y-53001043D01*
X165349357Y-53001044D01*
X165392594Y-53014159D01*
X165538398Y-53058389D01*
X165735001Y-53077753D01*
X165931604Y-53058389D01*
X166120651Y-53001042D01*
X166294879Y-52907916D01*
X166447590Y-52782589D01*
X166572917Y-52629878D01*
X166666043Y-52455650D01*
X166723390Y-52266603D01*
X166742754Y-52070000D01*
X166723390Y-51873397D01*
X166676849Y-51719972D01*
X166666045Y-51684356D01*
X166666044Y-51684352D01*
X166643028Y-51641292D01*
X166572917Y-51510122D01*
X166572914Y-51510118D01*
X166572911Y-51510114D01*
X166447590Y-51357410D01*
X166294886Y-51232089D01*
X166294882Y-51232086D01*
X166294880Y-51232085D01*
X166294879Y-51232084D01*
X166198734Y-51180694D01*
X166120648Y-51138956D01*
X166120644Y-51138955D01*
X165931601Y-51081610D01*
X165735001Y-51062247D01*
X165538401Y-51081610D01*
X165538399Y-51081610D01*
X165349357Y-51138955D01*
X165349353Y-51138956D01*
X165175119Y-51232086D01*
X165175115Y-51232089D01*
X165022411Y-51357410D01*
X164897090Y-51510114D01*
X164897087Y-51510118D01*
X164803957Y-51684352D01*
X164803956Y-51684356D01*
X164746611Y-51873398D01*
X164746611Y-51873400D01*
X164727248Y-52070000D01*
X164202754Y-52070000D01*
X164183390Y-51873397D01*
X164136849Y-51719972D01*
X164126045Y-51684356D01*
X164126044Y-51684352D01*
X164103028Y-51641292D01*
X164032917Y-51510122D01*
X164032914Y-51510118D01*
X164032911Y-51510114D01*
X163907590Y-51357410D01*
X163754886Y-51232089D01*
X163754882Y-51232086D01*
X163754880Y-51232085D01*
X163754879Y-51232084D01*
X163658734Y-51180694D01*
X163580648Y-51138956D01*
X163580644Y-51138955D01*
X163391601Y-51081610D01*
X163195001Y-51062247D01*
X162998401Y-51081610D01*
X162998399Y-51081610D01*
X162809357Y-51138955D01*
X162809353Y-51138956D01*
X162635119Y-51232086D01*
X162635115Y-51232089D01*
X162482411Y-51357410D01*
X162357090Y-51510114D01*
X162357087Y-51510118D01*
X162263957Y-51684352D01*
X162263956Y-51684356D01*
X162206611Y-51873398D01*
X162206611Y-51873400D01*
X162187248Y-52070000D01*
X161662754Y-52070000D01*
X161643390Y-51873397D01*
X161596849Y-51719972D01*
X161586045Y-51684356D01*
X161586044Y-51684352D01*
X161563028Y-51641292D01*
X161492917Y-51510122D01*
X161492914Y-51510118D01*
X161492911Y-51510114D01*
X161367590Y-51357410D01*
X161214886Y-51232089D01*
X161214882Y-51232086D01*
X161214880Y-51232085D01*
X161214879Y-51232084D01*
X161118734Y-51180694D01*
X161040648Y-51138956D01*
X161040644Y-51138955D01*
X160851601Y-51081610D01*
X160655001Y-51062247D01*
X160458401Y-51081610D01*
X160458399Y-51081610D01*
X160269357Y-51138955D01*
X160269353Y-51138956D01*
X160095119Y-51232086D01*
X160095115Y-51232089D01*
X159942411Y-51357410D01*
X159817090Y-51510114D01*
X159817087Y-51510118D01*
X159723957Y-51684352D01*
X159723956Y-51684356D01*
X159666611Y-51873398D01*
X159666611Y-51873400D01*
X159647248Y-52070000D01*
X159122754Y-52070000D01*
X159103390Y-51873397D01*
X159056849Y-51719972D01*
X159046045Y-51684356D01*
X159046044Y-51684352D01*
X159023028Y-51641292D01*
X158952917Y-51510122D01*
X158952914Y-51510118D01*
X158952911Y-51510114D01*
X158827590Y-51357410D01*
X158674886Y-51232089D01*
X158674882Y-51232086D01*
X158674880Y-51232085D01*
X158674879Y-51232084D01*
X158578734Y-51180694D01*
X158500648Y-51138956D01*
X158500644Y-51138955D01*
X158311601Y-51081610D01*
X158115001Y-51062247D01*
X157918401Y-51081610D01*
X157918399Y-51081610D01*
X157729357Y-51138955D01*
X157729353Y-51138956D01*
X157555119Y-51232086D01*
X157555115Y-51232089D01*
X157402411Y-51357410D01*
X157277090Y-51510114D01*
X157277087Y-51510118D01*
X157183957Y-51684352D01*
X157183956Y-51684356D01*
X157126611Y-51873398D01*
X157126611Y-51873400D01*
X157107248Y-52070000D01*
X156582754Y-52070000D01*
X156563390Y-51873397D01*
X156516849Y-51719972D01*
X156506045Y-51684356D01*
X156506044Y-51684352D01*
X156483028Y-51641292D01*
X156412917Y-51510122D01*
X156412914Y-51510118D01*
X156412911Y-51510114D01*
X156287590Y-51357410D01*
X156134886Y-51232089D01*
X156134882Y-51232086D01*
X156134880Y-51232085D01*
X156134879Y-51232084D01*
X156038734Y-51180694D01*
X155960648Y-51138956D01*
X155960644Y-51138955D01*
X155771601Y-51081610D01*
X155575001Y-51062247D01*
X155378401Y-51081610D01*
X155378399Y-51081610D01*
X155189357Y-51138955D01*
X155189353Y-51138956D01*
X155015119Y-51232086D01*
X155015115Y-51232089D01*
X154862411Y-51357410D01*
X154737090Y-51510114D01*
X154737087Y-51510118D01*
X154643957Y-51684352D01*
X154643956Y-51684356D01*
X154586611Y-51873398D01*
X154586611Y-51873400D01*
X154567248Y-52070000D01*
X154042754Y-52070000D01*
X154023390Y-51873397D01*
X153976849Y-51719972D01*
X153966045Y-51684356D01*
X153966044Y-51684352D01*
X153943028Y-51641292D01*
X153872917Y-51510122D01*
X153872914Y-51510118D01*
X153872911Y-51510114D01*
X153747590Y-51357410D01*
X153594886Y-51232089D01*
X153594882Y-51232086D01*
X153594880Y-51232085D01*
X153594879Y-51232084D01*
X153498734Y-51180694D01*
X153420648Y-51138956D01*
X153420644Y-51138955D01*
X153231601Y-51081610D01*
X153035001Y-51062247D01*
X152838401Y-51081610D01*
X152838399Y-51081610D01*
X152649357Y-51138955D01*
X152649353Y-51138956D01*
X152475119Y-51232086D01*
X152475115Y-51232089D01*
X152322411Y-51357410D01*
X152197090Y-51510114D01*
X152197087Y-51510118D01*
X152103957Y-51684352D01*
X152103956Y-51684356D01*
X152046611Y-51873398D01*
X152046611Y-51873400D01*
X152027248Y-52070000D01*
X151502754Y-52070000D01*
X151483390Y-51873397D01*
X151436849Y-51719972D01*
X151426045Y-51684356D01*
X151426044Y-51684352D01*
X151403028Y-51641292D01*
X151332917Y-51510122D01*
X151332914Y-51510118D01*
X151332911Y-51510114D01*
X151207590Y-51357410D01*
X151054886Y-51232089D01*
X151054882Y-51232086D01*
X151054880Y-51232085D01*
X151054879Y-51232084D01*
X150958734Y-51180694D01*
X150880648Y-51138956D01*
X150880644Y-51138955D01*
X150691601Y-51081610D01*
X150495001Y-51062247D01*
X150298401Y-51081610D01*
X150298399Y-51081610D01*
X150109357Y-51138955D01*
X150109353Y-51138956D01*
X149935119Y-51232086D01*
X149935115Y-51232089D01*
X149782411Y-51357410D01*
X149657090Y-51510114D01*
X149657087Y-51510118D01*
X149563957Y-51684352D01*
X149563956Y-51684356D01*
X149506611Y-51873398D01*
X149506611Y-51873400D01*
X149487248Y-52070000D01*
X148962754Y-52070000D01*
X148943390Y-51873397D01*
X148896849Y-51719972D01*
X148886045Y-51684356D01*
X148886044Y-51684352D01*
X148863028Y-51641292D01*
X148792917Y-51510122D01*
X148792914Y-51510118D01*
X148792911Y-51510114D01*
X148667590Y-51357410D01*
X148514886Y-51232089D01*
X148514882Y-51232086D01*
X148514880Y-51232085D01*
X148514879Y-51232084D01*
X148418734Y-51180694D01*
X148340648Y-51138956D01*
X148340644Y-51138955D01*
X148151601Y-51081610D01*
X147955001Y-51062247D01*
X147758401Y-51081610D01*
X147758399Y-51081610D01*
X147569357Y-51138955D01*
X147569353Y-51138956D01*
X147395119Y-51232086D01*
X147395115Y-51232089D01*
X147242411Y-51357410D01*
X147117090Y-51510114D01*
X147117087Y-51510118D01*
X147023957Y-51684352D01*
X147023956Y-51684356D01*
X146966611Y-51873398D01*
X146966611Y-51873400D01*
X146947248Y-52070000D01*
X146422754Y-52070000D01*
X146403390Y-51873397D01*
X146356849Y-51719972D01*
X146346045Y-51684356D01*
X146346044Y-51684352D01*
X146323028Y-51641292D01*
X146252917Y-51510122D01*
X146252914Y-51510118D01*
X146252911Y-51510114D01*
X146127590Y-51357410D01*
X145974886Y-51232089D01*
X145974882Y-51232086D01*
X145974880Y-51232085D01*
X145974879Y-51232084D01*
X145878734Y-51180694D01*
X145800648Y-51138956D01*
X145800644Y-51138955D01*
X145611601Y-51081610D01*
X145415001Y-51062247D01*
X145218401Y-51081610D01*
X145218399Y-51081610D01*
X145029357Y-51138955D01*
X145029353Y-51138956D01*
X144855119Y-51232086D01*
X144855115Y-51232089D01*
X144702411Y-51357410D01*
X144577090Y-51510114D01*
X144577087Y-51510118D01*
X144483957Y-51684352D01*
X144483956Y-51684356D01*
X144426611Y-51873398D01*
X144426611Y-51873400D01*
X144407248Y-52070000D01*
X143882754Y-52070000D01*
X143863390Y-51873397D01*
X143816849Y-51719972D01*
X143806045Y-51684356D01*
X143806044Y-51684352D01*
X143783028Y-51641292D01*
X143712917Y-51510122D01*
X143712914Y-51510118D01*
X143712911Y-51510114D01*
X143587590Y-51357410D01*
X143434886Y-51232089D01*
X143434882Y-51232086D01*
X143434880Y-51232085D01*
X143434879Y-51232084D01*
X143338734Y-51180694D01*
X143260648Y-51138956D01*
X143260644Y-51138955D01*
X143071601Y-51081610D01*
X142875001Y-51062247D01*
X142678401Y-51081610D01*
X142678399Y-51081610D01*
X142489357Y-51138955D01*
X142489353Y-51138956D01*
X142315119Y-51232086D01*
X142315115Y-51232089D01*
X142162411Y-51357410D01*
X142037090Y-51510114D01*
X142037087Y-51510118D01*
X141943957Y-51684352D01*
X141943956Y-51684356D01*
X141886611Y-51873398D01*
X141886611Y-51873400D01*
X141867248Y-52070000D01*
X141342754Y-52070000D01*
X141323390Y-51873397D01*
X141276849Y-51719972D01*
X141266045Y-51684356D01*
X141266044Y-51684352D01*
X141243028Y-51641292D01*
X141172917Y-51510122D01*
X141172914Y-51510118D01*
X141172911Y-51510114D01*
X141047590Y-51357410D01*
X140894886Y-51232089D01*
X140894882Y-51232086D01*
X140894880Y-51232085D01*
X140894879Y-51232084D01*
X140798734Y-51180694D01*
X140720648Y-51138956D01*
X140720644Y-51138955D01*
X140531601Y-51081610D01*
X140335001Y-51062247D01*
X140138401Y-51081610D01*
X140138399Y-51081610D01*
X139949357Y-51138955D01*
X139949353Y-51138956D01*
X139775119Y-51232086D01*
X139775115Y-51232089D01*
X139622411Y-51357410D01*
X139497090Y-51510114D01*
X139497087Y-51510118D01*
X139403957Y-51684352D01*
X139403956Y-51684356D01*
X139346611Y-51873398D01*
X139346611Y-51873400D01*
X139327248Y-52070000D01*
X138797900Y-52070000D01*
X138797900Y-51204944D01*
X138789029Y-51160342D01*
X138774739Y-51138956D01*
X138755236Y-51109767D01*
X138755232Y-51109764D01*
X138704659Y-51075972D01*
X138704657Y-51075971D01*
X138660058Y-51067100D01*
X136929945Y-51067100D01*
X136929943Y-51067101D01*
X136885341Y-51075972D01*
X136834768Y-51109764D01*
X136800973Y-51160342D01*
X136800972Y-51160343D01*
X136792101Y-51204942D01*
X136792101Y-52935055D01*
X123151064Y-52935055D01*
X123087944Y-52843609D01*
X122919846Y-52668601D01*
X122919844Y-52668599D01*
X122725859Y-52522830D01*
X122725860Y-52522830D01*
X122511012Y-52410069D01*
X122511007Y-52410067D01*
X122511006Y-52410066D01*
X122511003Y-52410065D01*
X122419110Y-52379386D01*
X122280838Y-52333224D01*
X122041329Y-52294300D01*
X122041327Y-52294300D01*
X121859437Y-52294300D01*
X121859433Y-52294300D01*
X121678140Y-52308935D01*
X121678127Y-52308937D01*
X121442532Y-52367006D01*
X121219306Y-52462113D01*
X121219295Y-52462119D01*
X121014206Y-52591808D01*
X121014205Y-52591809D01*
X120832579Y-52752717D01*
X120832572Y-52752725D01*
X120679114Y-52940676D01*
X120679113Y-52940678D01*
X120557789Y-53150818D01*
X120557781Y-53150833D01*
X120471742Y-53377702D01*
X120471740Y-53377706D01*
X120423203Y-53615456D01*
X120413434Y-53857911D01*
X111760500Y-53857911D01*
X111760500Y-52935055D01*
X112530100Y-52935055D01*
X112530101Y-52935057D01*
X112538972Y-52979659D01*
X112572764Y-53030232D01*
X112572765Y-53030232D01*
X112572766Y-53030234D01*
X112623342Y-53064028D01*
X112667943Y-53072900D01*
X114398056Y-53072899D01*
X114442658Y-53064028D01*
X114493234Y-53030234D01*
X114527028Y-52979658D01*
X114535900Y-52935057D01*
X114535899Y-51816000D01*
X114736455Y-51816000D01*
X115641884Y-51816000D01*
X115613507Y-51860156D01*
X115573000Y-51998111D01*
X115573000Y-52141889D01*
X115613507Y-52279844D01*
X115641884Y-52324000D01*
X114736456Y-52324000D01*
X114784179Y-52512457D01*
X114874580Y-52718549D01*
X114997675Y-52906959D01*
X115150097Y-53072534D01*
X115150100Y-53072537D01*
X115327700Y-53210769D01*
X115525622Y-53317879D01*
X115525624Y-53317880D01*
X115738485Y-53390955D01*
X115738495Y-53390958D01*
X115818999Y-53404392D01*
X115819000Y-53404391D01*
X115819000Y-52503674D01*
X115930685Y-52554680D01*
X116037237Y-52570000D01*
X116108763Y-52570000D01*
X116215315Y-52554680D01*
X116327000Y-52503674D01*
X116327000Y-53404392D01*
X116407504Y-53390958D01*
X116407514Y-53390955D01*
X116620375Y-53317880D01*
X116620377Y-53317879D01*
X116818299Y-53210769D01*
X116995900Y-53072537D01*
X116995902Y-53072534D01*
X117148324Y-52906959D01*
X117271419Y-52718549D01*
X117361820Y-52512457D01*
X117409544Y-52324000D01*
X116504116Y-52324000D01*
X116532493Y-52279844D01*
X116573000Y-52141889D01*
X116573000Y-51998111D01*
X116532493Y-51860156D01*
X116504116Y-51816000D01*
X117409544Y-51816000D01*
X117361820Y-51627542D01*
X117271419Y-51421450D01*
X117197298Y-51308000D01*
X124175028Y-51308000D01*
X124195191Y-51435307D01*
X124253708Y-51550152D01*
X124344847Y-51641291D01*
X124344849Y-51641292D01*
X124459692Y-51699808D01*
X124459694Y-51699809D01*
X124557487Y-51715297D01*
X124586999Y-51719972D01*
X124587000Y-51719972D01*
X124587001Y-51719972D01*
X124607164Y-51716778D01*
X124714306Y-51699809D01*
X124829151Y-51641292D01*
X124920292Y-51550151D01*
X124978809Y-51435306D01*
X124998972Y-51308000D01*
X124978809Y-51180694D01*
X124920292Y-51065849D01*
X124920291Y-51065847D01*
X124829152Y-50974708D01*
X124714306Y-50916191D01*
X124714308Y-50916191D01*
X124587001Y-50896028D01*
X124586999Y-50896028D01*
X124459692Y-50916191D01*
X124344847Y-50974708D01*
X124253708Y-51065847D01*
X124195191Y-51180692D01*
X124175028Y-51307999D01*
X124175028Y-51308000D01*
X117197298Y-51308000D01*
X117148324Y-51233040D01*
X116995899Y-51067462D01*
X116995898Y-51067461D01*
X116818299Y-50929230D01*
X116620377Y-50822120D01*
X116620375Y-50822119D01*
X116407507Y-50749042D01*
X116407511Y-50749042D01*
X116327000Y-50735606D01*
X116327000Y-51636325D01*
X116215315Y-51585320D01*
X116108763Y-51570000D01*
X116037237Y-51570000D01*
X115930685Y-51585320D01*
X115819000Y-51636325D01*
X115819000Y-50735606D01*
X115738490Y-50749042D01*
X115525624Y-50822119D01*
X115525622Y-50822120D01*
X115327700Y-50929230D01*
X115150101Y-51067461D01*
X115150101Y-51067462D01*
X114997675Y-51233040D01*
X114874580Y-51421450D01*
X114784179Y-51627542D01*
X114736455Y-51816000D01*
X114535899Y-51816000D01*
X114535899Y-51204944D01*
X114527028Y-51160342D01*
X114512738Y-51138956D01*
X114493235Y-51109767D01*
X114493231Y-51109764D01*
X114442658Y-51075972D01*
X114442656Y-51075971D01*
X114398057Y-51067100D01*
X112667944Y-51067100D01*
X112667942Y-51067101D01*
X112623340Y-51075972D01*
X112572767Y-51109764D01*
X112538972Y-51160342D01*
X112538971Y-51160343D01*
X112530100Y-51204942D01*
X112530100Y-52935055D01*
X111760500Y-52935055D01*
X111760500Y-50367700D01*
X111778093Y-50319362D01*
X111822642Y-50293642D01*
X111835700Y-50292500D01*
X167564300Y-50292500D01*
X167612638Y-50310093D01*
G37*
%TD.AperFunction*%
%TD*%
M02*
