M48
; DRILL file KiCad 10.0.1 date 2026-06-03T15:10:43
; FORMAT={-:-/ absolute / metric / decimal}
; #@! TF.CreationDate,2026-06-03T15:10:43+02:00
; #@! TF.GenerationSoftware,Kicad,Pcbnew,10.0.1
; #@! TF.FileFunction,MixedPlating,1,4
FMAT,2
METRIC
; #@! TA.AperFunction,Plated,PTH,ViaDrill
T1C0.254
; #@! TA.AperFunction,Plated,PTH,ComponentDrill
T2C0.640
; #@! TA.AperFunction,Plated,PTH,ComponentDrill
T3C1.000
; #@! TA.AperFunction,NonPlated,NPTH,ComponentDrill
T4C0.640
; #@! TA.AperFunction,NonPlated,NPTH,ComponentDrill
T5C1.200
; #@! TA.AperFunction,NonPlated,NPTH,ComponentDrill
T6C2.700
%
G90
G05
T1
X124.587Y-51.308
X129.431Y-67.857
X132.225Y-62.65
X134.341Y-51.359
X134.384Y-62.65
X140.208Y-55.753
X140.335Y-60.579
X142.748Y-55.372
X145.5Y-60.5
X145.542Y-62.103
X146.024Y-62.865
X146.431Y-57.15
X146.558Y-66.548
X146.582Y-65.85
X147.499Y-66.261
X148.055Y-66.618
X148.25Y-62.95
X148.509Y-67.097
X150.241Y-68.961
X152.313Y-59.904
X154.94Y-64.008
X155.448Y-62.23
X155.519Y-63.628
X156.096Y-63.194
X157.2Y-59.8
X157.9Y-60.2
T2
X167.63Y-65.278
X167.64Y-60.198
X167.64Y-61.468
X167.64Y-62.738
X167.64Y-66.548
X167.64Y-67.818
T3
X113.533Y-52.07
X114.046Y-74.041
X114.122Y-56.566
X114.122Y-59.106
X114.122Y-61.646
X114.122Y-64.186
X114.122Y-66.726
X114.122Y-69.266
X116.073Y-52.07
X116.586Y-74.041
X119.71Y-59.0
X122.25Y-59.0
X127.55Y-74.041
X130.09Y-74.041
X132.63Y-74.041
X135.17Y-74.041
X137.71Y-74.041
X137.795Y-52.07
X140.25Y-74.041
X140.335Y-52.07
X142.79Y-74.041
X142.875Y-52.07
X145.33Y-74.041
X145.415Y-52.07
X147.87Y-74.041
X147.955Y-52.07
X150.41Y-74.041
X150.495Y-52.07
X152.95Y-74.041
X153.035Y-52.07
X155.49Y-74.041
X155.575Y-52.07
X158.03Y-74.041
X158.115Y-52.07
X160.57Y-74.041
X160.655Y-52.07
X163.11Y-74.041
X163.195Y-52.07
X165.65Y-74.041
X165.735Y-52.07
T4
X167.64Y-58.468
X167.64Y-68.818
T5
X166.64Y-64.008
T6
X121.92Y-53.797
X161.925Y-68.834
M30
