%TF.GenerationSoftware,KiCad,Pcbnew,10.0.1*%
%TF.CreationDate,2026-06-03T15:10:43+02:00*%
%TF.ProjectId,ATMega1608_Dev,41544d65-6761-4313-9630-385f4465762e,3.1.1*%
%TF.SameCoordinates,Original*%
%TF.FileFunction,Soldermask,Top*%
%TF.FilePolarity,Negative*%
%FSLAX46Y46*%
G04 Gerber Fmt 4.6, Leading zero omitted, Abs format (unit mm)*
G04 Created by KiCad (PCBNEW 10.0.1) date 2026-06-03 15:10:43*
%MOMM*%
%LPD*%
G01*
G04 APERTURE LIST*
G04 Aperture macros list*
%AMRoundRect*
0 Rectangle with rounded corners*
0 $1 Rounding radius*
0 $2 $3 $4 $5 $6 $7 $8 $9 X,Y pos of 4 corners*
0 Add a 4 corners polygon primitive as box body*
4,1,4,$2,$3,$4,$5,$6,$7,$8,$9,$2,$3,0*
0 Add four circle primitives for the rounded corners*
1,1,$1+$1,$2,$3*
1,1,$1+$1,$4,$5*
1,1,$1+$1,$6,$7*
1,1,$1+$1,$8,$9*
0 Add four rect primitives between the rounded corners*
20,1,$1+$1,$2,$3,$4,$5,0*
20,1,$1+$1,$4,$5,$6,$7,0*
20,1,$1+$1,$6,$7,$8,$9,0*
20,1,$1+$1,$8,$9,$2,$3,0*%
%AMFreePoly0*
4,1,23,0.500000,-0.750000,0.000000,-0.750000,0.000000,-0.745722,-0.065263,-0.745722,-0.191342,-0.711940,-0.304381,-0.646677,-0.396677,-0.554381,-0.461940,-0.441342,-0.495722,-0.315263,-0.495722,-0.250000,-0.500000,-0.250000,-0.500000,0.250000,-0.495722,0.250000,-0.495722,0.315263,-0.461940,0.441342,-0.396677,0.554381,-0.304381,0.646677,-0.191342,0.711940,-0.065263,0.745722,0.000000,0.745722,
0.000000,0.750000,0.500000,0.750000,0.500000,-0.750000,0.500000,-0.750000,$1*%
%AMFreePoly1*
4,1,23,0.000000,0.745722,0.065263,0.745722,0.191342,0.711940,0.304381,0.646677,0.396677,0.554381,0.461940,0.441342,0.495722,0.315263,0.495722,0.250000,0.500000,0.250000,0.500000,-0.250000,0.495722,-0.250000,0.495722,-0.315263,0.461940,-0.441342,0.396677,-0.554381,0.304381,-0.646677,0.191342,-0.711940,0.065263,-0.745722,0.000000,-0.745722,0.000000,-0.750000,-0.500000,-0.750000,
-0.500000,0.750000,0.000000,0.750000,0.000000,0.745722,0.000000,0.745722,$1*%
G04 Aperture macros list end*
%ADD10RoundRect,0.250000X0.250000X0.475000X-0.250000X0.475000X-0.250000X-0.475000X0.250000X-0.475000X0*%
%ADD11R,1.700000X1.700000*%
%ADD12C,1.700000*%
%ADD13RoundRect,0.250000X0.475000X-0.337500X0.475000X0.337500X-0.475000X0.337500X-0.475000X-0.337500X0*%
%ADD14RoundRect,0.250000X1.000000X0.650000X-1.000000X0.650000X-1.000000X-0.650000X1.000000X-0.650000X0*%
%ADD15RoundRect,0.250000X-0.450000X0.262500X-0.450000X-0.262500X0.450000X-0.262500X0.450000X0.262500X0*%
%ADD16C,0.640000*%
%ADD17C,1.200000*%
%ADD18C,1.020000*%
%ADD19R,2.560000X1.020000*%
%ADD20RoundRect,0.243750X0.456250X-0.243750X0.456250X0.243750X-0.456250X0.243750X-0.456250X-0.243750X0*%
%ADD21C,2.700000*%
%ADD22RoundRect,0.250000X0.262500X0.450000X-0.262500X0.450000X-0.262500X-0.450000X0.262500X-0.450000X0*%
%ADD23FreePoly0,180.000000*%
%ADD24FreePoly1,180.000000*%
%ADD25RoundRect,0.375000X-0.625000X-0.375000X0.625000X-0.375000X0.625000X0.375000X-0.625000X0.375000X0*%
%ADD26RoundRect,0.500000X-0.500000X-1.400000X0.500000X-1.400000X0.500000X1.400000X-0.500000X1.400000X0*%
%ADD27RoundRect,0.250000X0.450000X-0.262500X0.450000X0.262500X-0.450000X0.262500X-0.450000X-0.262500X0*%
%ADD28RoundRect,0.250000X-0.159099X0.512652X-0.512652X0.159099X0.159099X-0.512652X0.512652X-0.159099X0*%
%ADD29RoundRect,0.137500X-0.327037X-0.521491X0.521491X0.327037X0.327037X0.521491X-0.521491X-0.327037X0*%
%ADD30RoundRect,0.137500X0.327037X-0.521491X0.521491X-0.327037X-0.327037X0.521491X-0.521491X0.327037X0*%
G04 APERTURE END LIST*
%TO.C,JP102*%
G36*
X126850001Y-51930001D02*
G01*
X127150001Y-51930001D01*
X127150001Y-53430001D01*
X126850001Y-53430001D01*
X126850001Y-51930001D01*
G37*
%TD*%
D10*
%TO.C,C6*%
X143318260Y-56832499D03*
X141418260Y-56832499D03*
%TD*%
D11*
%TO.C,J5*%
X137795001Y-52070000D03*
D12*
X140335001Y-52070000D03*
X142875001Y-52070000D03*
X145415001Y-52070000D03*
X147955001Y-52070000D03*
X150495001Y-52070000D03*
X153035001Y-52070000D03*
X155575001Y-52070000D03*
X158115001Y-52070000D03*
X160655001Y-52070000D03*
X163195001Y-52070000D03*
X165735001Y-52070000D03*
%TD*%
D13*
%TO.C,C5*%
X127710800Y-65897700D03*
X127710800Y-63822700D03*
%TD*%
D14*
%TO.C,D1*%
X124618999Y-66801999D03*
X120618999Y-66801999D03*
%TD*%
D11*
%TO.C,J2*%
X114122200Y-69265800D03*
D12*
X114122200Y-66725800D03*
X114122200Y-64185800D03*
X114122200Y-61645800D03*
X114122200Y-59105800D03*
X114122200Y-56565800D03*
%TD*%
D15*
%TO.C,R12*%
X141935200Y-67618600D03*
X141935200Y-69443600D03*
%TD*%
D16*
%TO.C,TC1*%
X167640000Y-58468000D03*
D17*
X166640000Y-64008000D03*
D16*
X167640000Y-68818000D03*
D18*
X167640000Y-67818000D03*
D19*
X167005000Y-67818000D03*
D18*
X167640000Y-66548000D03*
D19*
X167005000Y-66548000D03*
D18*
X167630000Y-65278000D03*
D19*
X167005000Y-65278000D03*
D18*
X167640000Y-62738000D03*
D19*
X167005000Y-62738000D03*
D18*
X167640000Y-61468000D03*
D19*
X167005000Y-61468000D03*
D18*
X167640000Y-60198000D03*
D19*
X167005000Y-60198000D03*
%TD*%
D20*
%TO.C,D3*%
X130429001Y-53539001D03*
X130429001Y-51664001D03*
%TD*%
D21*
%TO.C,H2*%
X121920000Y-53797200D03*
%TD*%
D22*
%TO.C,R10*%
X143321363Y-58991501D03*
X141496363Y-58991501D03*
%TD*%
D11*
%TO.C,J3*%
X127550000Y-74041000D03*
D12*
X130090000Y-74041000D03*
X132630000Y-74041000D03*
X135170000Y-74041000D03*
X137710000Y-74041000D03*
X140250000Y-74041000D03*
X142790000Y-74041000D03*
X145330000Y-74041000D03*
X147870000Y-74041000D03*
X150410000Y-74041000D03*
X152950000Y-74041000D03*
X155490000Y-74041000D03*
X158030000Y-74041000D03*
X160570000Y-74041000D03*
X163110000Y-74041000D03*
X165650000Y-74041000D03*
%TD*%
D23*
%TO.C,JP102*%
X127650001Y-52680001D03*
D24*
X126350001Y-52680001D03*
%TD*%
D11*
%TO.C,J4*%
X114046000Y-74041000D03*
D12*
X116586000Y-74041000D03*
%TD*%
D21*
%TO.C,H1*%
X161925000Y-68834000D03*
%TD*%
D25*
%TO.C,U1*%
X130200000Y-61200000D03*
X130200000Y-63500000D03*
D26*
X136500000Y-63500000D03*
D25*
X130200000Y-65800000D03*
%TD*%
D11*
%TO.C,J1*%
X113533000Y-52070000D03*
D12*
X116073000Y-52070000D03*
%TD*%
D11*
%TO.C,JP101*%
X122250000Y-59000000D03*
D12*
X119710000Y-59000000D03*
%TD*%
D27*
%TO.C,R2*%
X132715000Y-53514000D03*
X132715000Y-51689000D03*
%TD*%
D15*
%TO.C,R11*%
X144399000Y-65866000D03*
X144399000Y-67691000D03*
%TD*%
D28*
%TO.C,C7*%
X147610751Y-58002249D03*
X146267249Y-59345751D03*
%TD*%
D29*
%TO.C,U3*%
X147349769Y-63955433D03*
X147915454Y-64521118D03*
X148481140Y-65086804D03*
X149046825Y-65652489D03*
X149612511Y-66218175D03*
X150178196Y-66783860D03*
X150743882Y-67349546D03*
X151309567Y-67915231D03*
D30*
X153236433Y-67915231D03*
X153802118Y-67349546D03*
X154367804Y-66783860D03*
X154933489Y-66218175D03*
X155499175Y-65652489D03*
X156064860Y-65086804D03*
X156630546Y-64521118D03*
X157196231Y-63955433D03*
D29*
X157196231Y-62028567D03*
X156630546Y-61462882D03*
X156064860Y-60897196D03*
X155499175Y-60331511D03*
X154933489Y-59765825D03*
X154367804Y-59200140D03*
X153802118Y-58634454D03*
X153236433Y-58068769D03*
D30*
X151309567Y-58068769D03*
X150743882Y-58634454D03*
X150178196Y-59200140D03*
X149612511Y-59765825D03*
X149046825Y-60331511D03*
X148481140Y-60897196D03*
X147915454Y-61462882D03*
X147349769Y-62028567D03*
%TD*%
D14*
%TO.C,D2*%
X124618999Y-62992000D03*
X120618999Y-62992000D03*
%TD*%
M02*
