%TF.GenerationSoftware,KiCad,Pcbnew,10.0.1*%
%TF.CreationDate,2026-06-03T15:10:43+02:00*%
%TF.ProjectId,ATMega1608_Dev,41544d65-6761-4313-9630-385f4465762e,3.1.1*%
%TF.SameCoordinates,Original*%
%TF.FileFunction,Legend,Bot*%
%TF.FilePolarity,Positive*%
%FSLAX46Y46*%
G04 Gerber Fmt 4.6, Leading zero omitted, Abs format (unit mm)*
G04 Created by KiCad (PCBNEW 10.0.1) date 2026-06-03 15:10:43*
%MOMM*%
%LPD*%
G01*
G04 APERTURE LIST*
%ADD10C,0.076200*%
%ADD11C,0.010000*%
%ADD12C,0.100000*%
G04 APERTURE END LIST*
D10*
X143853107Y-62926978D02*
X143611202Y-62926978D01*
X143901488Y-63072121D02*
X143732154Y-62564121D01*
X143732154Y-62564121D02*
X143562821Y-63072121D01*
X143466059Y-62564121D02*
X143175773Y-62564121D01*
X143320916Y-63072121D02*
X143320916Y-62564121D01*
X143006439Y-63072121D02*
X143006439Y-62564121D01*
X143006439Y-62564121D02*
X142837106Y-62926978D01*
X142837106Y-62926978D02*
X142667772Y-62564121D01*
X142667772Y-62564121D02*
X142667772Y-63072121D01*
X142232344Y-63047931D02*
X142280725Y-63072121D01*
X142280725Y-63072121D02*
X142377487Y-63072121D01*
X142377487Y-63072121D02*
X142425868Y-63047931D01*
X142425868Y-63047931D02*
X142450059Y-62999550D01*
X142450059Y-62999550D02*
X142450059Y-62806026D01*
X142450059Y-62806026D02*
X142425868Y-62757645D01*
X142425868Y-62757645D02*
X142377487Y-62733454D01*
X142377487Y-62733454D02*
X142280725Y-62733454D01*
X142280725Y-62733454D02*
X142232344Y-62757645D01*
X142232344Y-62757645D02*
X142208154Y-62806026D01*
X142208154Y-62806026D02*
X142208154Y-62854407D01*
X142208154Y-62854407D02*
X142450059Y-62902788D01*
X141772725Y-62733454D02*
X141772725Y-63144692D01*
X141772725Y-63144692D02*
X141796915Y-63193073D01*
X141796915Y-63193073D02*
X141821106Y-63217264D01*
X141821106Y-63217264D02*
X141869487Y-63241454D01*
X141869487Y-63241454D02*
X141942058Y-63241454D01*
X141942058Y-63241454D02*
X141990439Y-63217264D01*
X141772725Y-63047931D02*
X141821106Y-63072121D01*
X141821106Y-63072121D02*
X141917868Y-63072121D01*
X141917868Y-63072121D02*
X141966249Y-63047931D01*
X141966249Y-63047931D02*
X141990439Y-63023740D01*
X141990439Y-63023740D02*
X142014630Y-62975359D01*
X142014630Y-62975359D02*
X142014630Y-62830216D01*
X142014630Y-62830216D02*
X141990439Y-62781835D01*
X141990439Y-62781835D02*
X141966249Y-62757645D01*
X141966249Y-62757645D02*
X141917868Y-62733454D01*
X141917868Y-62733454D02*
X141821106Y-62733454D01*
X141821106Y-62733454D02*
X141772725Y-62757645D01*
X141313106Y-63072121D02*
X141313106Y-62806026D01*
X141313106Y-62806026D02*
X141337296Y-62757645D01*
X141337296Y-62757645D02*
X141385677Y-62733454D01*
X141385677Y-62733454D02*
X141482439Y-62733454D01*
X141482439Y-62733454D02*
X141530820Y-62757645D01*
X141313106Y-63047931D02*
X141361487Y-63072121D01*
X141361487Y-63072121D02*
X141482439Y-63072121D01*
X141482439Y-63072121D02*
X141530820Y-63047931D01*
X141530820Y-63047931D02*
X141555011Y-62999550D01*
X141555011Y-62999550D02*
X141555011Y-62951169D01*
X141555011Y-62951169D02*
X141530820Y-62902788D01*
X141530820Y-62902788D02*
X141482439Y-62878597D01*
X141482439Y-62878597D02*
X141361487Y-62878597D01*
X141361487Y-62878597D02*
X141313106Y-62854407D01*
X140805106Y-63072121D02*
X141095392Y-63072121D01*
X140950249Y-63072121D02*
X140950249Y-62564121D01*
X140950249Y-62564121D02*
X140998630Y-62636692D01*
X140998630Y-62636692D02*
X141047011Y-62685073D01*
X141047011Y-62685073D02*
X141095392Y-62709264D01*
X140369677Y-62564121D02*
X140466439Y-62564121D01*
X140466439Y-62564121D02*
X140514820Y-62588311D01*
X140514820Y-62588311D02*
X140539010Y-62612502D01*
X140539010Y-62612502D02*
X140587391Y-62685073D01*
X140587391Y-62685073D02*
X140611582Y-62781835D01*
X140611582Y-62781835D02*
X140611582Y-62975359D01*
X140611582Y-62975359D02*
X140587391Y-63023740D01*
X140587391Y-63023740D02*
X140563201Y-63047931D01*
X140563201Y-63047931D02*
X140514820Y-63072121D01*
X140514820Y-63072121D02*
X140418058Y-63072121D01*
X140418058Y-63072121D02*
X140369677Y-63047931D01*
X140369677Y-63047931D02*
X140345486Y-63023740D01*
X140345486Y-63023740D02*
X140321296Y-62975359D01*
X140321296Y-62975359D02*
X140321296Y-62854407D01*
X140321296Y-62854407D02*
X140345486Y-62806026D01*
X140345486Y-62806026D02*
X140369677Y-62781835D01*
X140369677Y-62781835D02*
X140418058Y-62757645D01*
X140418058Y-62757645D02*
X140514820Y-62757645D01*
X140514820Y-62757645D02*
X140563201Y-62781835D01*
X140563201Y-62781835D02*
X140587391Y-62806026D01*
X140587391Y-62806026D02*
X140611582Y-62854407D01*
X140006819Y-62564121D02*
X139958438Y-62564121D01*
X139958438Y-62564121D02*
X139910057Y-62588311D01*
X139910057Y-62588311D02*
X139885867Y-62612502D01*
X139885867Y-62612502D02*
X139861676Y-62660883D01*
X139861676Y-62660883D02*
X139837486Y-62757645D01*
X139837486Y-62757645D02*
X139837486Y-62878597D01*
X139837486Y-62878597D02*
X139861676Y-62975359D01*
X139861676Y-62975359D02*
X139885867Y-63023740D01*
X139885867Y-63023740D02*
X139910057Y-63047931D01*
X139910057Y-63047931D02*
X139958438Y-63072121D01*
X139958438Y-63072121D02*
X140006819Y-63072121D01*
X140006819Y-63072121D02*
X140055200Y-63047931D01*
X140055200Y-63047931D02*
X140079391Y-63023740D01*
X140079391Y-63023740D02*
X140103581Y-62975359D01*
X140103581Y-62975359D02*
X140127772Y-62878597D01*
X140127772Y-62878597D02*
X140127772Y-62757645D01*
X140127772Y-62757645D02*
X140103581Y-62660883D01*
X140103581Y-62660883D02*
X140079391Y-62612502D01*
X140079391Y-62612502D02*
X140055200Y-62588311D01*
X140055200Y-62588311D02*
X140006819Y-62564121D01*
X139547200Y-62781835D02*
X139595581Y-62757645D01*
X139595581Y-62757645D02*
X139619771Y-62733454D01*
X139619771Y-62733454D02*
X139643962Y-62685073D01*
X139643962Y-62685073D02*
X139643962Y-62660883D01*
X139643962Y-62660883D02*
X139619771Y-62612502D01*
X139619771Y-62612502D02*
X139595581Y-62588311D01*
X139595581Y-62588311D02*
X139547200Y-62564121D01*
X139547200Y-62564121D02*
X139450438Y-62564121D01*
X139450438Y-62564121D02*
X139402057Y-62588311D01*
X139402057Y-62588311D02*
X139377866Y-62612502D01*
X139377866Y-62612502D02*
X139353676Y-62660883D01*
X139353676Y-62660883D02*
X139353676Y-62685073D01*
X139353676Y-62685073D02*
X139377866Y-62733454D01*
X139377866Y-62733454D02*
X139402057Y-62757645D01*
X139402057Y-62757645D02*
X139450438Y-62781835D01*
X139450438Y-62781835D02*
X139547200Y-62781835D01*
X139547200Y-62781835D02*
X139595581Y-62806026D01*
X139595581Y-62806026D02*
X139619771Y-62830216D01*
X139619771Y-62830216D02*
X139643962Y-62878597D01*
X139643962Y-62878597D02*
X139643962Y-62975359D01*
X139643962Y-62975359D02*
X139619771Y-63023740D01*
X139619771Y-63023740D02*
X139595581Y-63047931D01*
X139595581Y-63047931D02*
X139547200Y-63072121D01*
X139547200Y-63072121D02*
X139450438Y-63072121D01*
X139450438Y-63072121D02*
X139402057Y-63047931D01*
X139402057Y-63047931D02*
X139377866Y-63023740D01*
X139377866Y-63023740D02*
X139353676Y-62975359D01*
X139353676Y-62975359D02*
X139353676Y-62878597D01*
X139353676Y-62878597D02*
X139377866Y-62830216D01*
X139377866Y-62830216D02*
X139402057Y-62806026D01*
X139402057Y-62806026D02*
X139450438Y-62781835D01*
X138748913Y-63072121D02*
X138748913Y-62564121D01*
X138748913Y-62564121D02*
X138627961Y-62564121D01*
X138627961Y-62564121D02*
X138555389Y-62588311D01*
X138555389Y-62588311D02*
X138507008Y-62636692D01*
X138507008Y-62636692D02*
X138482818Y-62685073D01*
X138482818Y-62685073D02*
X138458627Y-62781835D01*
X138458627Y-62781835D02*
X138458627Y-62854407D01*
X138458627Y-62854407D02*
X138482818Y-62951169D01*
X138482818Y-62951169D02*
X138507008Y-62999550D01*
X138507008Y-62999550D02*
X138555389Y-63047931D01*
X138555389Y-63047931D02*
X138627961Y-63072121D01*
X138627961Y-63072121D02*
X138748913Y-63072121D01*
X138047389Y-63047931D02*
X138095770Y-63072121D01*
X138095770Y-63072121D02*
X138192532Y-63072121D01*
X138192532Y-63072121D02*
X138240913Y-63047931D01*
X138240913Y-63047931D02*
X138265104Y-62999550D01*
X138265104Y-62999550D02*
X138265104Y-62806026D01*
X138265104Y-62806026D02*
X138240913Y-62757645D01*
X138240913Y-62757645D02*
X138192532Y-62733454D01*
X138192532Y-62733454D02*
X138095770Y-62733454D01*
X138095770Y-62733454D02*
X138047389Y-62757645D01*
X138047389Y-62757645D02*
X138023199Y-62806026D01*
X138023199Y-62806026D02*
X138023199Y-62854407D01*
X138023199Y-62854407D02*
X138265104Y-62902788D01*
X137853865Y-62733454D02*
X137732913Y-63072121D01*
X137732913Y-63072121D02*
X137611960Y-62733454D01*
X143538630Y-63889973D02*
X143707964Y-63648068D01*
X143828916Y-63889973D02*
X143828916Y-63381973D01*
X143828916Y-63381973D02*
X143635392Y-63381973D01*
X143635392Y-63381973D02*
X143587011Y-63406163D01*
X143587011Y-63406163D02*
X143562821Y-63430354D01*
X143562821Y-63430354D02*
X143538630Y-63478735D01*
X143538630Y-63478735D02*
X143538630Y-63551306D01*
X143538630Y-63551306D02*
X143562821Y-63599687D01*
X143562821Y-63599687D02*
X143587011Y-63623878D01*
X143587011Y-63623878D02*
X143635392Y-63648068D01*
X143635392Y-63648068D02*
X143828916Y-63648068D01*
X143127392Y-63865783D02*
X143175773Y-63889973D01*
X143175773Y-63889973D02*
X143272535Y-63889973D01*
X143272535Y-63889973D02*
X143320916Y-63865783D01*
X143320916Y-63865783D02*
X143345107Y-63817402D01*
X143345107Y-63817402D02*
X143345107Y-63623878D01*
X143345107Y-63623878D02*
X143320916Y-63575497D01*
X143320916Y-63575497D02*
X143272535Y-63551306D01*
X143272535Y-63551306D02*
X143175773Y-63551306D01*
X143175773Y-63551306D02*
X143127392Y-63575497D01*
X143127392Y-63575497D02*
X143103202Y-63623878D01*
X143103202Y-63623878D02*
X143103202Y-63672259D01*
X143103202Y-63672259D02*
X143345107Y-63720640D01*
X142933868Y-63551306D02*
X142812916Y-63889973D01*
X142812916Y-63889973D02*
X142691963Y-63551306D01*
X141845296Y-63889973D02*
X142135582Y-63889973D01*
X141990439Y-63889973D02*
X141990439Y-63381973D01*
X141990439Y-63381973D02*
X142038820Y-63454544D01*
X142038820Y-63454544D02*
X142087201Y-63502925D01*
X142087201Y-63502925D02*
X142135582Y-63527116D01*
X141627581Y-63841592D02*
X141603391Y-63865783D01*
X141603391Y-63865783D02*
X141627581Y-63889973D01*
X141627581Y-63889973D02*
X141651772Y-63865783D01*
X141651772Y-63865783D02*
X141627581Y-63841592D01*
X141627581Y-63841592D02*
X141627581Y-63889973D01*
X141409867Y-63430354D02*
X141385676Y-63406163D01*
X141385676Y-63406163D02*
X141337295Y-63381973D01*
X141337295Y-63381973D02*
X141216343Y-63381973D01*
X141216343Y-63381973D02*
X141167962Y-63406163D01*
X141167962Y-63406163D02*
X141143771Y-63430354D01*
X141143771Y-63430354D02*
X141119581Y-63478735D01*
X141119581Y-63478735D02*
X141119581Y-63527116D01*
X141119581Y-63527116D02*
X141143771Y-63599687D01*
X141143771Y-63599687D02*
X141434057Y-63889973D01*
X141434057Y-63889973D02*
X141119581Y-63889973D01*
D11*
%TO.C,LG2*%
X143704562Y-65782850D02*
X143787313Y-65810053D01*
X143862406Y-65855484D01*
X143934298Y-65921302D01*
X143972846Y-65965567D01*
X144012256Y-66023961D01*
X144037446Y-66084586D01*
X144050861Y-66153865D01*
X144054948Y-66238222D01*
X144054669Y-66284307D01*
X144052460Y-66325450D01*
X144046894Y-66357582D01*
X144036586Y-66388122D01*
X144020148Y-66424489D01*
X144006200Y-66451728D01*
X143947665Y-66537429D01*
X143875619Y-66606617D01*
X143791947Y-66657741D01*
X143698531Y-66689250D01*
X143665434Y-66696225D01*
X143624960Y-66703094D01*
X143591999Y-66704919D01*
X143557698Y-66701947D01*
X143513200Y-66694426D01*
X143461934Y-66682002D01*
X143371434Y-66644112D01*
X143292345Y-66589836D01*
X143226528Y-66521770D01*
X143175840Y-66442511D01*
X143142140Y-66354654D01*
X143127286Y-66260795D01*
X143133136Y-66163530D01*
X143159399Y-66067220D01*
X143204418Y-65978494D01*
X143265373Y-65903419D01*
X143340184Y-65843641D01*
X143426768Y-65800809D01*
X143523043Y-65776571D01*
X143626928Y-65772576D01*
X143704562Y-65782850D01*
G36*
X143704562Y-65782850D02*
G01*
X143787313Y-65810053D01*
X143862406Y-65855484D01*
X143934298Y-65921302D01*
X143972846Y-65965567D01*
X144012256Y-66023961D01*
X144037446Y-66084586D01*
X144050861Y-66153865D01*
X144054948Y-66238222D01*
X144054669Y-66284307D01*
X144052460Y-66325450D01*
X144046894Y-66357582D01*
X144036586Y-66388122D01*
X144020148Y-66424489D01*
X144006200Y-66451728D01*
X143947665Y-66537429D01*
X143875619Y-66606617D01*
X143791947Y-66657741D01*
X143698531Y-66689250D01*
X143665434Y-66696225D01*
X143624960Y-66703094D01*
X143591999Y-66704919D01*
X143557698Y-66701947D01*
X143513200Y-66694426D01*
X143461934Y-66682002D01*
X143371434Y-66644112D01*
X143292345Y-66589836D01*
X143226528Y-66521770D01*
X143175840Y-66442511D01*
X143142140Y-66354654D01*
X143127286Y-66260795D01*
X143133136Y-66163530D01*
X143159399Y-66067220D01*
X143204418Y-65978494D01*
X143265373Y-65903419D01*
X143340184Y-65843641D01*
X143426768Y-65800809D01*
X143523043Y-65776571D01*
X143626928Y-65772576D01*
X143704562Y-65782850D01*
G37*
X141238711Y-66712033D02*
X141334268Y-66729523D01*
X141498558Y-66774564D01*
X141652589Y-66837656D01*
X141798509Y-66919915D01*
X141938466Y-67022457D01*
X142074608Y-67146399D01*
X142118473Y-67191661D01*
X142230758Y-67323865D01*
X142323972Y-67461832D01*
X142400719Y-67609750D01*
X142463603Y-67771803D01*
X142467420Y-67783391D01*
X142517507Y-67969392D01*
X142550899Y-68165521D01*
X142567584Y-68367568D01*
X142567551Y-68571325D01*
X142550791Y-68772581D01*
X142517292Y-68967128D01*
X142467044Y-69150756D01*
X142423190Y-69268053D01*
X142345348Y-69430951D01*
X142251828Y-69584866D01*
X142144822Y-69726671D01*
X142026519Y-69853239D01*
X141899111Y-69961441D01*
X141821606Y-70014120D01*
X141694725Y-70083750D01*
X141557243Y-70142468D01*
X141415716Y-70187587D01*
X141276702Y-70216422D01*
X141262597Y-70218106D01*
X141219153Y-70221434D01*
X141161723Y-70224275D01*
X141096122Y-70226373D01*
X141028167Y-70227468D01*
X140901378Y-70225140D01*
X140753673Y-70212136D01*
X140615779Y-70187133D01*
X140482014Y-70149318D01*
X140458562Y-70140889D01*
X140410612Y-70121408D01*
X140354140Y-70096473D01*
X140292379Y-70067722D01*
X140228563Y-70036790D01*
X140165926Y-70005315D01*
X140107703Y-69974934D01*
X140057127Y-69947283D01*
X140017433Y-69923999D01*
X139991854Y-69906718D01*
X139983625Y-69897079D01*
X139985076Y-69893984D01*
X139996250Y-69874079D01*
X140017134Y-69838420D01*
X140046265Y-69789459D01*
X140082181Y-69729646D01*
X140123420Y-69661433D01*
X140168517Y-69587271D01*
X140349785Y-69290008D01*
X140396315Y-69334539D01*
X140487723Y-69412865D01*
X140601334Y-69487439D01*
X140719122Y-69541474D01*
X140839559Y-69574290D01*
X140961117Y-69585211D01*
X141002585Y-69583868D01*
X141120080Y-69565612D01*
X141230089Y-69526617D01*
X141331430Y-69467670D01*
X141422921Y-69389557D01*
X141503380Y-69293064D01*
X141571627Y-69178978D01*
X141587908Y-69144724D01*
X141633982Y-69021240D01*
X141669106Y-68882918D01*
X141693197Y-68733561D01*
X141706173Y-68576973D01*
X141707949Y-68416956D01*
X141698443Y-68257314D01*
X141677572Y-68101850D01*
X141645252Y-67954366D01*
X141601399Y-67818667D01*
X141563982Y-67732076D01*
X141499185Y-67618688D01*
X141423772Y-67525070D01*
X141337418Y-67450959D01*
X141239795Y-67396094D01*
X141130577Y-67360212D01*
X141009439Y-67343051D01*
X140940038Y-67341880D01*
X140817168Y-67356141D01*
X140701664Y-67391241D01*
X140594953Y-67446682D01*
X140498464Y-67521964D01*
X140482720Y-67536440D01*
X140452150Y-67562962D01*
X140429809Y-67580138D01*
X140419691Y-67584787D01*
X140417706Y-67582597D01*
X140403241Y-67563721D01*
X140379400Y-67530397D01*
X140348029Y-67485380D01*
X140310974Y-67431425D01*
X140270083Y-67371285D01*
X140227202Y-67307718D01*
X140184178Y-67243476D01*
X140142857Y-67181315D01*
X140105086Y-67123991D01*
X140072712Y-67074257D01*
X140047582Y-67034868D01*
X140031542Y-67008580D01*
X140026439Y-66998147D01*
X140031050Y-66993941D01*
X140050267Y-66988933D01*
X140059838Y-66986386D01*
X140087809Y-66975249D01*
X140129448Y-66956802D01*
X140180995Y-66932725D01*
X140238690Y-66904699D01*
X140249957Y-66899154D01*
X140427687Y-66819889D01*
X140597490Y-66760385D01*
X140761430Y-66720245D01*
X140921571Y-66699071D01*
X141079977Y-66696466D01*
X141238711Y-66712033D01*
G36*
X141238711Y-66712033D02*
G01*
X141334268Y-66729523D01*
X141498558Y-66774564D01*
X141652589Y-66837656D01*
X141798509Y-66919915D01*
X141938466Y-67022457D01*
X142074608Y-67146399D01*
X142118473Y-67191661D01*
X142230758Y-67323865D01*
X142323972Y-67461832D01*
X142400719Y-67609750D01*
X142463603Y-67771803D01*
X142467420Y-67783391D01*
X142517507Y-67969392D01*
X142550899Y-68165521D01*
X142567584Y-68367568D01*
X142567551Y-68571325D01*
X142550791Y-68772581D01*
X142517292Y-68967128D01*
X142467044Y-69150756D01*
X142423190Y-69268053D01*
X142345348Y-69430951D01*
X142251828Y-69584866D01*
X142144822Y-69726671D01*
X142026519Y-69853239D01*
X141899111Y-69961441D01*
X141821606Y-70014120D01*
X141694725Y-70083750D01*
X141557243Y-70142468D01*
X141415716Y-70187587D01*
X141276702Y-70216422D01*
X141262597Y-70218106D01*
X141219153Y-70221434D01*
X141161723Y-70224275D01*
X141096122Y-70226373D01*
X141028167Y-70227468D01*
X140901378Y-70225140D01*
X140753673Y-70212136D01*
X140615779Y-70187133D01*
X140482014Y-70149318D01*
X140458562Y-70140889D01*
X140410612Y-70121408D01*
X140354140Y-70096473D01*
X140292379Y-70067722D01*
X140228563Y-70036790D01*
X140165926Y-70005315D01*
X140107703Y-69974934D01*
X140057127Y-69947283D01*
X140017433Y-69923999D01*
X139991854Y-69906718D01*
X139983625Y-69897079D01*
X139985076Y-69893984D01*
X139996250Y-69874079D01*
X140017134Y-69838420D01*
X140046265Y-69789459D01*
X140082181Y-69729646D01*
X140123420Y-69661433D01*
X140168517Y-69587271D01*
X140349785Y-69290008D01*
X140396315Y-69334539D01*
X140487723Y-69412865D01*
X140601334Y-69487439D01*
X140719122Y-69541474D01*
X140839559Y-69574290D01*
X140961117Y-69585211D01*
X141002585Y-69583868D01*
X141120080Y-69565612D01*
X141230089Y-69526617D01*
X141331430Y-69467670D01*
X141422921Y-69389557D01*
X141503380Y-69293064D01*
X141571627Y-69178978D01*
X141587908Y-69144724D01*
X141633982Y-69021240D01*
X141669106Y-68882918D01*
X141693197Y-68733561D01*
X141706173Y-68576973D01*
X141707949Y-68416956D01*
X141698443Y-68257314D01*
X141677572Y-68101850D01*
X141645252Y-67954366D01*
X141601399Y-67818667D01*
X141563982Y-67732076D01*
X141499185Y-67618688D01*
X141423772Y-67525070D01*
X141337418Y-67450959D01*
X141239795Y-67396094D01*
X141130577Y-67360212D01*
X141009439Y-67343051D01*
X140940038Y-67341880D01*
X140817168Y-67356141D01*
X140701664Y-67391241D01*
X140594953Y-67446682D01*
X140498464Y-67521964D01*
X140482720Y-67536440D01*
X140452150Y-67562962D01*
X140429809Y-67580138D01*
X140419691Y-67584787D01*
X140417706Y-67582597D01*
X140403241Y-67563721D01*
X140379400Y-67530397D01*
X140348029Y-67485380D01*
X140310974Y-67431425D01*
X140270083Y-67371285D01*
X140227202Y-67307718D01*
X140184178Y-67243476D01*
X140142857Y-67181315D01*
X140105086Y-67123991D01*
X140072712Y-67074257D01*
X140047582Y-67034868D01*
X140031542Y-67008580D01*
X140026439Y-66998147D01*
X140031050Y-66993941D01*
X140050267Y-66988933D01*
X140059838Y-66986386D01*
X140087809Y-66975249D01*
X140129448Y-66956802D01*
X140180995Y-66932725D01*
X140238690Y-66904699D01*
X140249957Y-66899154D01*
X140427687Y-66819889D01*
X140597490Y-66760385D01*
X140761430Y-66720245D01*
X140921571Y-66699071D01*
X141079977Y-66696466D01*
X141238711Y-66712033D01*
G37*
X137435994Y-68992711D02*
X137435268Y-69070158D01*
X137426689Y-69221594D01*
X137407833Y-69358283D01*
X137377837Y-69484276D01*
X137335836Y-69603625D01*
X137280969Y-69720381D01*
X137214167Y-69831179D01*
X137123363Y-69944739D01*
X137019708Y-70040211D01*
X136903887Y-70117073D01*
X136776586Y-70174797D01*
X136638489Y-70212858D01*
X136600793Y-70218666D01*
X136521752Y-70224396D01*
X136433629Y-70224583D01*
X136344236Y-70219539D01*
X136261384Y-70209578D01*
X136192887Y-70195012D01*
X136162035Y-70185364D01*
X136084730Y-70155123D01*
X136007679Y-70117617D01*
X135938200Y-70076614D01*
X135883615Y-70035879D01*
X135860916Y-70016505D01*
X135838201Y-69998662D01*
X135826779Y-69991778D01*
X135825537Y-69993424D01*
X135822728Y-70011205D01*
X135820776Y-70044370D01*
X135820045Y-70087733D01*
X135820045Y-70183689D01*
X134961896Y-70183689D01*
X134996161Y-70122974D01*
X135001355Y-70113868D01*
X135009715Y-70099249D01*
X135017288Y-70085173D01*
X135024112Y-70070540D01*
X135030227Y-70054249D01*
X135035673Y-70035198D01*
X135040487Y-70012286D01*
X135044708Y-69984413D01*
X135048377Y-69950478D01*
X135051531Y-69909379D01*
X135054211Y-69860015D01*
X135056454Y-69801286D01*
X135058299Y-69732090D01*
X135059787Y-69651326D01*
X135060955Y-69557894D01*
X135061844Y-69450692D01*
X135062491Y-69328620D01*
X135062936Y-69190576D01*
X135063218Y-69035459D01*
X135063375Y-68862168D01*
X135063448Y-68669603D01*
X135063474Y-68456662D01*
X135063485Y-68320530D01*
X135865200Y-68320530D01*
X135865200Y-69470721D01*
X135935756Y-69517089D01*
X135976417Y-69540791D01*
X136030546Y-69566639D01*
X136079689Y-69584829D01*
X136143165Y-69600551D01*
X136239331Y-69611541D01*
X136323900Y-69603365D01*
X136397219Y-69575805D01*
X136459637Y-69528642D01*
X136511502Y-69461658D01*
X136553160Y-69374633D01*
X136584962Y-69267350D01*
X136587545Y-69255009D01*
X136596000Y-69193772D01*
X136601663Y-69116692D01*
X136604576Y-69029002D01*
X136604783Y-68935934D01*
X136602330Y-68842720D01*
X136597261Y-68754594D01*
X136589619Y-68676788D01*
X136579448Y-68614533D01*
X136578167Y-68608666D01*
X136549126Y-68498121D01*
X136514610Y-68407575D01*
X136473456Y-68334953D01*
X136424499Y-68278181D01*
X136366574Y-68235184D01*
X136334620Y-68219615D01*
X136261784Y-68200722D01*
X136180443Y-68197465D01*
X136095319Y-68209389D01*
X136011133Y-68236040D01*
X135932608Y-68276962D01*
X135865200Y-68320530D01*
X135063485Y-68320530D01*
X135063493Y-68222245D01*
X135063689Y-66537378D01*
X135969017Y-66537378D01*
X135944585Y-66574067D01*
X135938318Y-66583647D01*
X135912208Y-66629981D01*
X135894469Y-66677102D01*
X135882908Y-66732251D01*
X135875331Y-66802667D01*
X135874839Y-66809650D01*
X135873062Y-66847641D01*
X135871444Y-66901576D01*
X135869999Y-66968703D01*
X135868740Y-67046271D01*
X135867680Y-67131528D01*
X135866829Y-67221724D01*
X135866203Y-67314107D01*
X135865812Y-67405925D01*
X135865670Y-67494427D01*
X135865790Y-67576862D01*
X135866183Y-67650479D01*
X135866862Y-67712526D01*
X135867841Y-67760251D01*
X135869132Y-67790904D01*
X135870747Y-67801733D01*
X135878957Y-67797333D01*
X135900647Y-67782362D01*
X135930014Y-67760448D01*
X135978879Y-67726236D01*
X136067125Y-67679714D01*
X136165916Y-67646046D01*
X136278510Y-67624231D01*
X136408164Y-67613265D01*
X136500670Y-67612219D01*
X136622011Y-67622014D01*
X136732099Y-67646174D01*
X136835389Y-67685785D01*
X136936338Y-67741932D01*
X136981503Y-67772883D01*
X137086911Y-67864115D01*
X137178538Y-67973106D01*
X137256332Y-68099726D01*
X137320241Y-68243845D01*
X137370214Y-68405332D01*
X137406198Y-68584059D01*
X137428143Y-68779895D01*
X137433900Y-68935934D01*
X137435994Y-68992711D01*
G36*
X137435994Y-68992711D02*
G01*
X137435268Y-69070158D01*
X137426689Y-69221594D01*
X137407833Y-69358283D01*
X137377837Y-69484276D01*
X137335836Y-69603625D01*
X137280969Y-69720381D01*
X137214167Y-69831179D01*
X137123363Y-69944739D01*
X137019708Y-70040211D01*
X136903887Y-70117073D01*
X136776586Y-70174797D01*
X136638489Y-70212858D01*
X136600793Y-70218666D01*
X136521752Y-70224396D01*
X136433629Y-70224583D01*
X136344236Y-70219539D01*
X136261384Y-70209578D01*
X136192887Y-70195012D01*
X136162035Y-70185364D01*
X136084730Y-70155123D01*
X136007679Y-70117617D01*
X135938200Y-70076614D01*
X135883615Y-70035879D01*
X135860916Y-70016505D01*
X135838201Y-69998662D01*
X135826779Y-69991778D01*
X135825537Y-69993424D01*
X135822728Y-70011205D01*
X135820776Y-70044370D01*
X135820045Y-70087733D01*
X135820045Y-70183689D01*
X134961896Y-70183689D01*
X134996161Y-70122974D01*
X135001355Y-70113868D01*
X135009715Y-70099249D01*
X135017288Y-70085173D01*
X135024112Y-70070540D01*
X135030227Y-70054249D01*
X135035673Y-70035198D01*
X135040487Y-70012286D01*
X135044708Y-69984413D01*
X135048377Y-69950478D01*
X135051531Y-69909379D01*
X135054211Y-69860015D01*
X135056454Y-69801286D01*
X135058299Y-69732090D01*
X135059787Y-69651326D01*
X135060955Y-69557894D01*
X135061844Y-69450692D01*
X135062491Y-69328620D01*
X135062936Y-69190576D01*
X135063218Y-69035459D01*
X135063375Y-68862168D01*
X135063448Y-68669603D01*
X135063474Y-68456662D01*
X135063485Y-68320530D01*
X135865200Y-68320530D01*
X135865200Y-69470721D01*
X135935756Y-69517089D01*
X135976417Y-69540791D01*
X136030546Y-69566639D01*
X136079689Y-69584829D01*
X136143165Y-69600551D01*
X136239331Y-69611541D01*
X136323900Y-69603365D01*
X136397219Y-69575805D01*
X136459637Y-69528642D01*
X136511502Y-69461658D01*
X136553160Y-69374633D01*
X136584962Y-69267350D01*
X136587545Y-69255009D01*
X136596000Y-69193772D01*
X136601663Y-69116692D01*
X136604576Y-69029002D01*
X136604783Y-68935934D01*
X136602330Y-68842720D01*
X136597261Y-68754594D01*
X136589619Y-68676788D01*
X136579448Y-68614533D01*
X136578167Y-68608666D01*
X136549126Y-68498121D01*
X136514610Y-68407575D01*
X136473456Y-68334953D01*
X136424499Y-68278181D01*
X136366574Y-68235184D01*
X136334620Y-68219615D01*
X136261784Y-68200722D01*
X136180443Y-68197465D01*
X136095319Y-68209389D01*
X136011133Y-68236040D01*
X135932608Y-68276962D01*
X135865200Y-68320530D01*
X135063485Y-68320530D01*
X135063493Y-68222245D01*
X135063689Y-66537378D01*
X135969017Y-66537378D01*
X135944585Y-66574067D01*
X135938318Y-66583647D01*
X135912208Y-66629981D01*
X135894469Y-66677102D01*
X135882908Y-66732251D01*
X135875331Y-66802667D01*
X135874839Y-66809650D01*
X135873062Y-66847641D01*
X135871444Y-66901576D01*
X135869999Y-66968703D01*
X135868740Y-67046271D01*
X135867680Y-67131528D01*
X135866829Y-67221724D01*
X135866203Y-67314107D01*
X135865812Y-67405925D01*
X135865670Y-67494427D01*
X135865790Y-67576862D01*
X135866183Y-67650479D01*
X135866862Y-67712526D01*
X135867841Y-67760251D01*
X135869132Y-67790904D01*
X135870747Y-67801733D01*
X135878957Y-67797333D01*
X135900647Y-67782362D01*
X135930014Y-67760448D01*
X135978879Y-67726236D01*
X136067125Y-67679714D01*
X136165916Y-67646046D01*
X136278510Y-67624231D01*
X136408164Y-67613265D01*
X136500670Y-67612219D01*
X136622011Y-67622014D01*
X136732099Y-67646174D01*
X136835389Y-67685785D01*
X136936338Y-67741932D01*
X136981503Y-67772883D01*
X137086911Y-67864115D01*
X137178538Y-67973106D01*
X137256332Y-68099726D01*
X137320241Y-68243845D01*
X137370214Y-68405332D01*
X137406198Y-68584059D01*
X137428143Y-68779895D01*
X137433900Y-68935934D01*
X137435994Y-68992711D01*
G37*
X139977755Y-69393467D02*
X139977261Y-69427363D01*
X139973632Y-69502202D01*
X139966022Y-69564401D01*
X139953688Y-69620984D01*
X139909313Y-69747076D01*
X139846400Y-69861679D01*
X139766238Y-69962568D01*
X139669740Y-70048924D01*
X139557822Y-70119932D01*
X139431397Y-70174776D01*
X139291378Y-70212638D01*
X139255149Y-70218351D01*
X139176155Y-70224313D01*
X139087841Y-70224646D01*
X138998075Y-70219659D01*
X138914722Y-70209666D01*
X138845651Y-70194978D01*
X138759187Y-70164749D01*
X138649286Y-70110057D01*
X138551956Y-70042543D01*
X138489867Y-69991556D01*
X138486605Y-70087622D01*
X138483343Y-70183689D01*
X138060450Y-70183689D01*
X138049543Y-70183686D01*
X137955056Y-70183380D01*
X137868331Y-70182616D01*
X137791837Y-70181451D01*
X137728043Y-70179942D01*
X137679418Y-70178147D01*
X137648433Y-70176121D01*
X137637556Y-70173922D01*
X137637578Y-70173463D01*
X137644614Y-70157910D01*
X137660434Y-70135071D01*
X137664734Y-70129638D01*
X137675777Y-70115606D01*
X137685311Y-70102186D01*
X137693461Y-70087722D01*
X137700352Y-70070556D01*
X137706111Y-70049034D01*
X137710862Y-70021498D01*
X137714731Y-69986292D01*
X137717844Y-69941760D01*
X137720325Y-69886246D01*
X137722300Y-69818093D01*
X137723894Y-69735645D01*
X137725234Y-69637246D01*
X137726444Y-69521239D01*
X137727649Y-69385968D01*
X137728595Y-69274586D01*
X138529378Y-69274586D01*
X138529378Y-69470462D01*
X138574048Y-69526973D01*
X138586785Y-69542212D01*
X138633604Y-69584844D01*
X138694255Y-69620672D01*
X138704897Y-69625850D01*
X138743676Y-69642745D01*
X138778692Y-69652909D01*
X138818722Y-69658325D01*
X138872541Y-69660978D01*
X138890648Y-69661383D01*
X138966011Y-69658540D01*
X139026743Y-69646620D01*
X139078452Y-69624037D01*
X139126746Y-69589211D01*
X139131803Y-69584798D01*
X139180272Y-69529160D01*
X139208459Y-69465333D01*
X139217752Y-69390282D01*
X139210520Y-69318693D01*
X139185796Y-69255645D01*
X139141249Y-69197758D01*
X139086319Y-69150808D01*
X139013894Y-69110961D01*
X138927340Y-69083263D01*
X138824670Y-69067096D01*
X138703894Y-69061842D01*
X138695007Y-69061857D01*
X138639660Y-69062655D01*
X138592736Y-69064488D01*
X138558953Y-69067111D01*
X138543028Y-69070274D01*
X138538943Y-69076741D01*
X138534572Y-69098875D01*
X138531604Y-69137988D01*
X138529914Y-69195939D01*
X138529378Y-69274586D01*
X137728595Y-69274586D01*
X137728975Y-69229778D01*
X137730228Y-69087012D01*
X137731651Y-68941942D01*
X137733176Y-68816027D01*
X137734933Y-68707436D01*
X137737051Y-68614334D01*
X137739660Y-68534891D01*
X137742890Y-68467273D01*
X137746869Y-68409649D01*
X137751728Y-68360185D01*
X137757597Y-68317050D01*
X137764604Y-68278410D01*
X137772880Y-68242434D01*
X137782554Y-68207289D01*
X137793756Y-68171142D01*
X137806616Y-68132161D01*
X137822090Y-68089091D01*
X137864994Y-67996871D01*
X137918735Y-67917099D01*
X137987576Y-67842965D01*
X138065185Y-67779405D01*
X138169761Y-67717725D01*
X138289244Y-67670202D01*
X138424508Y-67636567D01*
X138576426Y-67616552D01*
X138745872Y-67609889D01*
X138803890Y-67610287D01*
X138869398Y-67612335D01*
X138930693Y-67616704D01*
X138992097Y-67624035D01*
X139057932Y-67634969D01*
X139132520Y-67650147D01*
X139220184Y-67670209D01*
X139325245Y-67695797D01*
X139353806Y-67702820D01*
X139429054Y-67720776D01*
X139499388Y-67736820D01*
X139560567Y-67750028D01*
X139608354Y-67759474D01*
X139638511Y-67764231D01*
X139666783Y-67767910D01*
X139693060Y-67773187D01*
X139703059Y-67777942D01*
X139699952Y-67786781D01*
X139689194Y-67814072D01*
X139671864Y-67856906D01*
X139649126Y-67912425D01*
X139622147Y-67977772D01*
X139592090Y-68050089D01*
X139585493Y-68065879D01*
X139546907Y-68156484D01*
X139515768Y-68226217D01*
X139491917Y-68275405D01*
X139475198Y-68304374D01*
X139465454Y-68313452D01*
X139457766Y-68311405D01*
X139431415Y-68301760D01*
X139392982Y-68286190D01*
X139347822Y-68266815D01*
X139253293Y-68228814D01*
X139116480Y-68187780D01*
X138975289Y-68162612D01*
X138937314Y-68158611D01*
X138834059Y-68156447D01*
X138746952Y-68169622D01*
X138675129Y-68198756D01*
X138617731Y-68244466D01*
X138573896Y-68307372D01*
X138542762Y-68388092D01*
X138523470Y-68487245D01*
X138516050Y-68546224D01*
X138677936Y-68539445D01*
X138804495Y-68537813D01*
X138955951Y-68544194D01*
X139104396Y-68558777D01*
X139240578Y-68580882D01*
X139305245Y-68595821D01*
X139437490Y-68638741D01*
X139559762Y-68695340D01*
X139669685Y-68764017D01*
X139764883Y-68843170D01*
X139842980Y-68931196D01*
X139901599Y-69026493D01*
X139925595Y-69078864D01*
X139951232Y-69149590D01*
X139967478Y-69220812D01*
X139975822Y-69299712D01*
X139977690Y-69390282D01*
X139977755Y-69393467D01*
G36*
X139977755Y-69393467D02*
G01*
X139977261Y-69427363D01*
X139973632Y-69502202D01*
X139966022Y-69564401D01*
X139953688Y-69620984D01*
X139909313Y-69747076D01*
X139846400Y-69861679D01*
X139766238Y-69962568D01*
X139669740Y-70048924D01*
X139557822Y-70119932D01*
X139431397Y-70174776D01*
X139291378Y-70212638D01*
X139255149Y-70218351D01*
X139176155Y-70224313D01*
X139087841Y-70224646D01*
X138998075Y-70219659D01*
X138914722Y-70209666D01*
X138845651Y-70194978D01*
X138759187Y-70164749D01*
X138649286Y-70110057D01*
X138551956Y-70042543D01*
X138489867Y-69991556D01*
X138486605Y-70087622D01*
X138483343Y-70183689D01*
X138060450Y-70183689D01*
X138049543Y-70183686D01*
X137955056Y-70183380D01*
X137868331Y-70182616D01*
X137791837Y-70181451D01*
X137728043Y-70179942D01*
X137679418Y-70178147D01*
X137648433Y-70176121D01*
X137637556Y-70173922D01*
X137637578Y-70173463D01*
X137644614Y-70157910D01*
X137660434Y-70135071D01*
X137664734Y-70129638D01*
X137675777Y-70115606D01*
X137685311Y-70102186D01*
X137693461Y-70087722D01*
X137700352Y-70070556D01*
X137706111Y-70049034D01*
X137710862Y-70021498D01*
X137714731Y-69986292D01*
X137717844Y-69941760D01*
X137720325Y-69886246D01*
X137722300Y-69818093D01*
X137723894Y-69735645D01*
X137725234Y-69637246D01*
X137726444Y-69521239D01*
X137727649Y-69385968D01*
X137728595Y-69274586D01*
X138529378Y-69274586D01*
X138529378Y-69470462D01*
X138574048Y-69526973D01*
X138586785Y-69542212D01*
X138633604Y-69584844D01*
X138694255Y-69620672D01*
X138704897Y-69625850D01*
X138743676Y-69642745D01*
X138778692Y-69652909D01*
X138818722Y-69658325D01*
X138872541Y-69660978D01*
X138890648Y-69661383D01*
X138966011Y-69658540D01*
X139026743Y-69646620D01*
X139078452Y-69624037D01*
X139126746Y-69589211D01*
X139131803Y-69584798D01*
X139180272Y-69529160D01*
X139208459Y-69465333D01*
X139217752Y-69390282D01*
X139210520Y-69318693D01*
X139185796Y-69255645D01*
X139141249Y-69197758D01*
X139086319Y-69150808D01*
X139013894Y-69110961D01*
X138927340Y-69083263D01*
X138824670Y-69067096D01*
X138703894Y-69061842D01*
X138695007Y-69061857D01*
X138639660Y-69062655D01*
X138592736Y-69064488D01*
X138558953Y-69067111D01*
X138543028Y-69070274D01*
X138538943Y-69076741D01*
X138534572Y-69098875D01*
X138531604Y-69137988D01*
X138529914Y-69195939D01*
X138529378Y-69274586D01*
X137728595Y-69274586D01*
X137728975Y-69229778D01*
X137730228Y-69087012D01*
X137731651Y-68941942D01*
X137733176Y-68816027D01*
X137734933Y-68707436D01*
X137737051Y-68614334D01*
X137739660Y-68534891D01*
X137742890Y-68467273D01*
X137746869Y-68409649D01*
X137751728Y-68360185D01*
X137757597Y-68317050D01*
X137764604Y-68278410D01*
X137772880Y-68242434D01*
X137782554Y-68207289D01*
X137793756Y-68171142D01*
X137806616Y-68132161D01*
X137822090Y-68089091D01*
X137864994Y-67996871D01*
X137918735Y-67917099D01*
X137987576Y-67842965D01*
X138065185Y-67779405D01*
X138169761Y-67717725D01*
X138289244Y-67670202D01*
X138424508Y-67636567D01*
X138576426Y-67616552D01*
X138745872Y-67609889D01*
X138803890Y-67610287D01*
X138869398Y-67612335D01*
X138930693Y-67616704D01*
X138992097Y-67624035D01*
X139057932Y-67634969D01*
X139132520Y-67650147D01*
X139220184Y-67670209D01*
X139325245Y-67695797D01*
X139353806Y-67702820D01*
X139429054Y-67720776D01*
X139499388Y-67736820D01*
X139560567Y-67750028D01*
X139608354Y-67759474D01*
X139638511Y-67764231D01*
X139666783Y-67767910D01*
X139693060Y-67773187D01*
X139703059Y-67777942D01*
X139699952Y-67786781D01*
X139689194Y-67814072D01*
X139671864Y-67856906D01*
X139649126Y-67912425D01*
X139622147Y-67977772D01*
X139592090Y-68050089D01*
X139585493Y-68065879D01*
X139546907Y-68156484D01*
X139515768Y-68226217D01*
X139491917Y-68275405D01*
X139475198Y-68304374D01*
X139465454Y-68313452D01*
X139457766Y-68311405D01*
X139431415Y-68301760D01*
X139392982Y-68286190D01*
X139347822Y-68266815D01*
X139253293Y-68228814D01*
X139116480Y-68187780D01*
X138975289Y-68162612D01*
X138937314Y-68158611D01*
X138834059Y-68156447D01*
X138746952Y-68169622D01*
X138675129Y-68198756D01*
X138617731Y-68244466D01*
X138573896Y-68307372D01*
X138542762Y-68388092D01*
X138523470Y-68487245D01*
X138516050Y-68546224D01*
X138677936Y-68539445D01*
X138804495Y-68537813D01*
X138955951Y-68544194D01*
X139104396Y-68558777D01*
X139240578Y-68580882D01*
X139305245Y-68595821D01*
X139437490Y-68638741D01*
X139559762Y-68695340D01*
X139669685Y-68764017D01*
X139764883Y-68843170D01*
X139842980Y-68931196D01*
X139901599Y-69026493D01*
X139925595Y-69078864D01*
X139951232Y-69149590D01*
X139967478Y-69220812D01*
X139975822Y-69299712D01*
X139977690Y-69390282D01*
X139977755Y-69393467D01*
G37*
X147525614Y-66861792D02*
X147526059Y-66993011D01*
X147526362Y-67140216D01*
X147526548Y-67304349D01*
X147526642Y-67486352D01*
X147526671Y-67687165D01*
X147526661Y-67907732D01*
X147526636Y-68148992D01*
X147526622Y-68411889D01*
X147526622Y-68454040D01*
X147526646Y-68714668D01*
X147526685Y-68953796D01*
X147526708Y-69172360D01*
X147526687Y-69371295D01*
X147526593Y-69551535D01*
X147526395Y-69714015D01*
X147526063Y-69859670D01*
X147525569Y-69989434D01*
X147524883Y-70104243D01*
X147523976Y-70205030D01*
X147522817Y-70292730D01*
X147521378Y-70368279D01*
X147519629Y-70432611D01*
X147517540Y-70486661D01*
X147515083Y-70531363D01*
X147512227Y-70567652D01*
X147508943Y-70596463D01*
X147505202Y-70618731D01*
X147500974Y-70635390D01*
X147496229Y-70647375D01*
X147490939Y-70655621D01*
X147485073Y-70661062D01*
X147478602Y-70664634D01*
X147471497Y-70667270D01*
X147463728Y-70669906D01*
X147455266Y-70673477D01*
X147450908Y-70675145D01*
X147442395Y-70677111D01*
X147429694Y-70678911D01*
X147411885Y-70680555D01*
X147388049Y-70682047D01*
X147357266Y-70683397D01*
X147318617Y-70684611D01*
X147271182Y-70685697D01*
X147214043Y-70686661D01*
X147146279Y-70687511D01*
X147066971Y-70688253D01*
X146975199Y-70688897D01*
X146870044Y-70689447D01*
X146750587Y-70689913D01*
X146615908Y-70690300D01*
X146465088Y-70690616D01*
X146297206Y-70690869D01*
X146111345Y-70691066D01*
X145906583Y-70691213D01*
X145682002Y-70691318D01*
X145436682Y-70691389D01*
X145169704Y-70691432D01*
X145131321Y-70691437D01*
X144865922Y-70691480D01*
X144622050Y-70691525D01*
X144398783Y-70691548D01*
X144195196Y-70691524D01*
X144010367Y-70691430D01*
X143843373Y-70691243D01*
X143693290Y-70690939D01*
X143559196Y-70690494D01*
X143440166Y-70689885D01*
X143335279Y-70689089D01*
X143243610Y-70688080D01*
X143164237Y-70686837D01*
X143096237Y-70685335D01*
X143038686Y-70683551D01*
X142990662Y-70681461D01*
X142951240Y-70679042D01*
X142919499Y-70676270D01*
X142894514Y-70673121D01*
X142875364Y-70669572D01*
X142861123Y-70665598D01*
X142850871Y-70661178D01*
X142843682Y-70656286D01*
X142838635Y-70650900D01*
X142834805Y-70644996D01*
X142831271Y-70638549D01*
X142827108Y-70631537D01*
X142826025Y-70629687D01*
X142823813Y-70624180D01*
X142821786Y-70615868D01*
X142819938Y-70603809D01*
X142818261Y-70587063D01*
X142816745Y-70564687D01*
X142815383Y-70535740D01*
X142814167Y-70499280D01*
X142813089Y-70454367D01*
X142812140Y-70400057D01*
X142811312Y-70335410D01*
X142810597Y-70259484D01*
X142809987Y-70171338D01*
X142809942Y-70162493D01*
X143101378Y-70162493D01*
X143105260Y-70163765D01*
X143128520Y-70165791D01*
X143170874Y-70167626D01*
X143230132Y-70169227D01*
X143304107Y-70170549D01*
X143390610Y-70171548D01*
X143487452Y-70172180D01*
X143592445Y-70172400D01*
X144290651Y-70172400D01*
X145445090Y-70172400D01*
X145444456Y-70096200D01*
X145445574Y-70054160D01*
X145451304Y-70018334D01*
X145463890Y-69980772D01*
X145485568Y-69932577D01*
X145488789Y-69925897D01*
X145514188Y-69876359D01*
X145540996Y-69828369D01*
X145563917Y-69791466D01*
X145568485Y-69784834D01*
X145590516Y-69753593D01*
X145622693Y-69708654D01*
X145663457Y-69652147D01*
X145711245Y-69586204D01*
X145764498Y-69512957D01*
X145821655Y-69434536D01*
X145881155Y-69353072D01*
X145941437Y-69270698D01*
X146000940Y-69189544D01*
X146058105Y-69111742D01*
X146111370Y-69039423D01*
X146159174Y-68974718D01*
X146199957Y-68919759D01*
X146232158Y-68876676D01*
X146254216Y-68847602D01*
X146264571Y-68834667D01*
X146269044Y-68830351D01*
X146273236Y-68828312D01*
X146276643Y-68830926D01*
X146279325Y-68839986D01*
X146281341Y-68857285D01*
X146282748Y-68884614D01*
X146283605Y-68923765D01*
X146283970Y-68976533D01*
X146283903Y-69044707D01*
X146283460Y-69130082D01*
X146282702Y-69234449D01*
X146281685Y-69359600D01*
X146281308Y-69404300D01*
X146280169Y-69525395D01*
X146278972Y-69626688D01*
X146277636Y-69710262D01*
X146276077Y-69778204D01*
X146274215Y-69832599D01*
X146271966Y-69875532D01*
X146269248Y-69909089D01*
X146265979Y-69935355D01*
X146262078Y-69956416D01*
X146257461Y-69974357D01*
X146249192Y-70000770D01*
X146225583Y-70062772D01*
X146199685Y-70115573D01*
X146174535Y-70152645D01*
X146173339Y-70154075D01*
X146171168Y-70158424D01*
X146173328Y-70162026D01*
X146181644Y-70164951D01*
X146197940Y-70167269D01*
X146224041Y-70169051D01*
X146261771Y-70170367D01*
X146312956Y-70171286D01*
X146379420Y-70171878D01*
X146462987Y-70172215D01*
X146565483Y-70172365D01*
X146688732Y-70172400D01*
X147220296Y-70172400D01*
X147181523Y-70114783D01*
X147175432Y-70105893D01*
X147164976Y-70091069D01*
X147155579Y-70077422D01*
X147147183Y-70063765D01*
X147139733Y-70048911D01*
X147133173Y-70031670D01*
X147127446Y-70010855D01*
X147122495Y-69985280D01*
X147118266Y-69953755D01*
X147114701Y-69915093D01*
X147111744Y-69868107D01*
X147109340Y-69811608D01*
X147107431Y-69744409D01*
X147105962Y-69665322D01*
X147104876Y-69573160D01*
X147104118Y-69466734D01*
X147103630Y-69344857D01*
X147103358Y-69206341D01*
X147103243Y-69049999D01*
X147103231Y-68874642D01*
X147103265Y-68679082D01*
X147103289Y-68462133D01*
X147103280Y-68339513D01*
X147103243Y-68134447D01*
X147103227Y-67950116D01*
X147103288Y-67785334D01*
X147103484Y-67638916D01*
X147103870Y-67509674D01*
X147104505Y-67396422D01*
X147105444Y-67297975D01*
X147106745Y-67213144D01*
X147108464Y-67140744D01*
X147110659Y-67079589D01*
X147113385Y-67028492D01*
X147116701Y-66986267D01*
X147120662Y-66951727D01*
X147125325Y-66923686D01*
X147130747Y-66900958D01*
X147136986Y-66882356D01*
X147144097Y-66866693D01*
X147152138Y-66852784D01*
X147161166Y-66839441D01*
X147171236Y-66825479D01*
X147182407Y-66809711D01*
X147222197Y-66751867D01*
X146162314Y-66751867D01*
X146200311Y-66814966D01*
X146214993Y-66840005D01*
X146229531Y-66867586D01*
X146241627Y-66895700D01*
X146251532Y-66926551D01*
X146259494Y-66962344D01*
X146265761Y-67005283D01*
X146270582Y-67057574D01*
X146274206Y-67121419D01*
X146276881Y-67199025D01*
X146278857Y-67292594D01*
X146280382Y-67404333D01*
X146281704Y-67536445D01*
X146282613Y-67656434D01*
X146283020Y-67773063D01*
X146282767Y-67868531D01*
X146281857Y-67942556D01*
X146280293Y-67994855D01*
X146278079Y-68025149D01*
X146275220Y-68033156D01*
X146272161Y-68029858D01*
X146254006Y-68008408D01*
X146224275Y-67971889D01*
X146184639Y-67922442D01*
X146136771Y-67862207D01*
X146082343Y-67793327D01*
X146023027Y-67717943D01*
X145960495Y-67638196D01*
X145896421Y-67556228D01*
X145832475Y-67474180D01*
X145770331Y-67394194D01*
X145711661Y-67318411D01*
X145658137Y-67248973D01*
X145611430Y-67188021D01*
X145573214Y-67137696D01*
X145545161Y-67100140D01*
X145528943Y-67077495D01*
X145483635Y-67005212D01*
X145443661Y-66925463D01*
X145422130Y-66857188D01*
X145418827Y-66799844D01*
X145424116Y-66751867D01*
X144292356Y-66752117D01*
X144331867Y-66782722D01*
X144341248Y-66790089D01*
X144404183Y-66844438D01*
X144472997Y-66912259D01*
X144549596Y-66995516D01*
X144635888Y-67096178D01*
X144653052Y-67116847D01*
X144693833Y-67166409D01*
X144743588Y-67227326D01*
X144800955Y-67297898D01*
X144864569Y-67376424D01*
X144933069Y-67461204D01*
X145005090Y-67550537D01*
X145079270Y-67642722D01*
X145094517Y-67661702D01*
X145154246Y-67736060D01*
X145228653Y-67828848D01*
X145301131Y-67919388D01*
X145370314Y-68005978D01*
X145434841Y-68086918D01*
X145493347Y-68160506D01*
X145544470Y-68225044D01*
X145586847Y-68278829D01*
X145619115Y-68320162D01*
X145639910Y-68347342D01*
X145647869Y-68358668D01*
X145646111Y-68362771D01*
X145633230Y-68383334D01*
X145608885Y-68419561D01*
X145574247Y-68469824D01*
X145530486Y-68532492D01*
X145478775Y-68605936D01*
X145420284Y-68688527D01*
X145356184Y-68778636D01*
X145287646Y-68874631D01*
X145215843Y-68974885D01*
X145141944Y-69077768D01*
X145067121Y-69181650D01*
X144992545Y-69284901D01*
X144919387Y-69385892D01*
X144848819Y-69482994D01*
X144782011Y-69574577D01*
X144720135Y-69659011D01*
X144664361Y-69734667D01*
X144615862Y-69799916D01*
X144575807Y-69853128D01*
X144545369Y-69892673D01*
X144524944Y-69918026D01*
X144478899Y-69972295D01*
X144428612Y-70028775D01*
X144381815Y-70078669D01*
X144290651Y-70172400D01*
X143592445Y-70172400D01*
X143661356Y-70172349D01*
X143759607Y-70172091D01*
X143849030Y-70171637D01*
X143927333Y-70171010D01*
X143992223Y-70170235D01*
X144041411Y-70169335D01*
X144072604Y-70168334D01*
X144083511Y-70167257D01*
X144082322Y-70164037D01*
X144072176Y-70146452D01*
X144055040Y-70120158D01*
X144046540Y-70107691D01*
X144037329Y-70093622D01*
X144029233Y-70079351D01*
X144022185Y-70063479D01*
X144016117Y-70044609D01*
X144010961Y-70021341D01*
X144006651Y-69992278D01*
X144003119Y-69956021D01*
X144000297Y-69911170D01*
X143998118Y-69856328D01*
X143996514Y-69790097D01*
X143995419Y-69711077D01*
X143994765Y-69617871D01*
X143994484Y-69509079D01*
X143994509Y-69383303D01*
X143994772Y-69239145D01*
X143995206Y-69075207D01*
X143995745Y-68890089D01*
X143996279Y-68711232D01*
X143996805Y-68552374D01*
X143997350Y-68413316D01*
X143997945Y-68292665D01*
X143998619Y-68189028D01*
X143999403Y-68101011D01*
X144000326Y-68027223D01*
X144001419Y-67966269D01*
X144002712Y-67916757D01*
X144004235Y-67877293D01*
X144006019Y-67846484D01*
X144008092Y-67822938D01*
X144010486Y-67805260D01*
X144013230Y-67792059D01*
X144016356Y-67781940D01*
X144019892Y-67773511D01*
X144023791Y-67765375D01*
X144043438Y-67728544D01*
X144062225Y-67698391D01*
X144063272Y-67696908D01*
X144077602Y-67674659D01*
X144083511Y-67661702D01*
X144082504Y-67661249D01*
X144065305Y-67659803D01*
X144028656Y-67658480D01*
X143974962Y-67657316D01*
X143906630Y-67656347D01*
X143826064Y-67655611D01*
X143735670Y-67655142D01*
X143637853Y-67654978D01*
X143192195Y-67654978D01*
X143189120Y-68831845D01*
X143186045Y-70008711D01*
X143159407Y-70067622D01*
X143147485Y-70092183D01*
X143130246Y-70122434D01*
X143117074Y-70139560D01*
X143109076Y-70147591D01*
X143101378Y-70162493D01*
X142809942Y-70162493D01*
X142809474Y-70070029D01*
X142809050Y-69954617D01*
X142808706Y-69824160D01*
X142808434Y-69677716D01*
X142808227Y-69514344D01*
X142808076Y-69333101D01*
X142807972Y-69133048D01*
X142807908Y-68913241D01*
X142807876Y-68672739D01*
X142807867Y-68410602D01*
X142807867Y-66219031D01*
X142846249Y-66180649D01*
X142873355Y-66156911D01*
X142900253Y-66145111D01*
X142936560Y-66142267D01*
X142988489Y-66142267D01*
X142988489Y-66230206D01*
X142990427Y-66280102D01*
X143009199Y-66390523D01*
X143046217Y-66491987D01*
X143099369Y-66583152D01*
X143166546Y-66662673D01*
X143245638Y-66729205D01*
X143334534Y-66781406D01*
X143431125Y-66817930D01*
X143533300Y-66837434D01*
X143638950Y-66838573D01*
X143745964Y-66820005D01*
X143852232Y-66780384D01*
X143949219Y-66722516D01*
X144034293Y-66647684D01*
X144103015Y-66559615D01*
X144153918Y-66460616D01*
X144185535Y-66352993D01*
X144196400Y-66239054D01*
X144196400Y-66142267D01*
X145816753Y-66142267D01*
X146027897Y-66142280D01*
X146232020Y-66142330D01*
X146415686Y-66142430D01*
X146579991Y-66142592D01*
X146726029Y-66142829D01*
X146854894Y-66143153D01*
X146967683Y-66143575D01*
X147065488Y-66144109D01*
X147149404Y-66144767D01*
X147220527Y-66145561D01*
X147279950Y-66146504D01*
X147328768Y-66147608D01*
X147368077Y-66148884D01*
X147398969Y-66150347D01*
X147422541Y-66152007D01*
X147439886Y-66153878D01*
X147452099Y-66155972D01*
X147460275Y-66158300D01*
X147465508Y-66160876D01*
X147471504Y-66164445D01*
X147478279Y-66167978D01*
X147484478Y-66171488D01*
X147490126Y-66175918D01*
X147495247Y-66182208D01*
X147499869Y-66191301D01*
X147504015Y-66204139D01*
X147507713Y-66221662D01*
X147510987Y-66244813D01*
X147513863Y-66274534D01*
X147516367Y-66311765D01*
X147518524Y-66357449D01*
X147520360Y-66412527D01*
X147521900Y-66477941D01*
X147523170Y-66554633D01*
X147524195Y-66643544D01*
X147525001Y-66745617D01*
X147525034Y-66751867D01*
X147525614Y-66861792D01*
G36*
X147525614Y-66861792D02*
G01*
X147526059Y-66993011D01*
X147526362Y-67140216D01*
X147526548Y-67304349D01*
X147526642Y-67486352D01*
X147526671Y-67687165D01*
X147526661Y-67907732D01*
X147526636Y-68148992D01*
X147526622Y-68411889D01*
X147526622Y-68454040D01*
X147526646Y-68714668D01*
X147526685Y-68953796D01*
X147526708Y-69172360D01*
X147526687Y-69371295D01*
X147526593Y-69551535D01*
X147526395Y-69714015D01*
X147526063Y-69859670D01*
X147525569Y-69989434D01*
X147524883Y-70104243D01*
X147523976Y-70205030D01*
X147522817Y-70292730D01*
X147521378Y-70368279D01*
X147519629Y-70432611D01*
X147517540Y-70486661D01*
X147515083Y-70531363D01*
X147512227Y-70567652D01*
X147508943Y-70596463D01*
X147505202Y-70618731D01*
X147500974Y-70635390D01*
X147496229Y-70647375D01*
X147490939Y-70655621D01*
X147485073Y-70661062D01*
X147478602Y-70664634D01*
X147471497Y-70667270D01*
X147463728Y-70669906D01*
X147455266Y-70673477D01*
X147450908Y-70675145D01*
X147442395Y-70677111D01*
X147429694Y-70678911D01*
X147411885Y-70680555D01*
X147388049Y-70682047D01*
X147357266Y-70683397D01*
X147318617Y-70684611D01*
X147271182Y-70685697D01*
X147214043Y-70686661D01*
X147146279Y-70687511D01*
X147066971Y-70688253D01*
X146975199Y-70688897D01*
X146870044Y-70689447D01*
X146750587Y-70689913D01*
X146615908Y-70690300D01*
X146465088Y-70690616D01*
X146297206Y-70690869D01*
X146111345Y-70691066D01*
X145906583Y-70691213D01*
X145682002Y-70691318D01*
X145436682Y-70691389D01*
X145169704Y-70691432D01*
X145131321Y-70691437D01*
X144865922Y-70691480D01*
X144622050Y-70691525D01*
X144398783Y-70691548D01*
X144195196Y-70691524D01*
X144010367Y-70691430D01*
X143843373Y-70691243D01*
X143693290Y-70690939D01*
X143559196Y-70690494D01*
X143440166Y-70689885D01*
X143335279Y-70689089D01*
X143243610Y-70688080D01*
X143164237Y-70686837D01*
X143096237Y-70685335D01*
X143038686Y-70683551D01*
X142990662Y-70681461D01*
X142951240Y-70679042D01*
X142919499Y-70676270D01*
X142894514Y-70673121D01*
X142875364Y-70669572D01*
X142861123Y-70665598D01*
X142850871Y-70661178D01*
X142843682Y-70656286D01*
X142838635Y-70650900D01*
X142834805Y-70644996D01*
X142831271Y-70638549D01*
X142827108Y-70631537D01*
X142826025Y-70629687D01*
X142823813Y-70624180D01*
X142821786Y-70615868D01*
X142819938Y-70603809D01*
X142818261Y-70587063D01*
X142816745Y-70564687D01*
X142815383Y-70535740D01*
X142814167Y-70499280D01*
X142813089Y-70454367D01*
X142812140Y-70400057D01*
X142811312Y-70335410D01*
X142810597Y-70259484D01*
X142809987Y-70171338D01*
X142809942Y-70162493D01*
X143101378Y-70162493D01*
X143105260Y-70163765D01*
X143128520Y-70165791D01*
X143170874Y-70167626D01*
X143230132Y-70169227D01*
X143304107Y-70170549D01*
X143390610Y-70171548D01*
X143487452Y-70172180D01*
X143592445Y-70172400D01*
X144290651Y-70172400D01*
X145445090Y-70172400D01*
X145444456Y-70096200D01*
X145445574Y-70054160D01*
X145451304Y-70018334D01*
X145463890Y-69980772D01*
X145485568Y-69932577D01*
X145488789Y-69925897D01*
X145514188Y-69876359D01*
X145540996Y-69828369D01*
X145563917Y-69791466D01*
X145568485Y-69784834D01*
X145590516Y-69753593D01*
X145622693Y-69708654D01*
X145663457Y-69652147D01*
X145711245Y-69586204D01*
X145764498Y-69512957D01*
X145821655Y-69434536D01*
X145881155Y-69353072D01*
X145941437Y-69270698D01*
X146000940Y-69189544D01*
X146058105Y-69111742D01*
X146111370Y-69039423D01*
X146159174Y-68974718D01*
X146199957Y-68919759D01*
X146232158Y-68876676D01*
X146254216Y-68847602D01*
X146264571Y-68834667D01*
X146269044Y-68830351D01*
X146273236Y-68828312D01*
X146276643Y-68830926D01*
X146279325Y-68839986D01*
X146281341Y-68857285D01*
X146282748Y-68884614D01*
X146283605Y-68923765D01*
X146283970Y-68976533D01*
X146283903Y-69044707D01*
X146283460Y-69130082D01*
X146282702Y-69234449D01*
X146281685Y-69359600D01*
X146281308Y-69404300D01*
X146280169Y-69525395D01*
X146278972Y-69626688D01*
X146277636Y-69710262D01*
X146276077Y-69778204D01*
X146274215Y-69832599D01*
X146271966Y-69875532D01*
X146269248Y-69909089D01*
X146265979Y-69935355D01*
X146262078Y-69956416D01*
X146257461Y-69974357D01*
X146249192Y-70000770D01*
X146225583Y-70062772D01*
X146199685Y-70115573D01*
X146174535Y-70152645D01*
X146173339Y-70154075D01*
X146171168Y-70158424D01*
X146173328Y-70162026D01*
X146181644Y-70164951D01*
X146197940Y-70167269D01*
X146224041Y-70169051D01*
X146261771Y-70170367D01*
X146312956Y-70171286D01*
X146379420Y-70171878D01*
X146462987Y-70172215D01*
X146565483Y-70172365D01*
X146688732Y-70172400D01*
X147220296Y-70172400D01*
X147181523Y-70114783D01*
X147175432Y-70105893D01*
X147164976Y-70091069D01*
X147155579Y-70077422D01*
X147147183Y-70063765D01*
X147139733Y-70048911D01*
X147133173Y-70031670D01*
X147127446Y-70010855D01*
X147122495Y-69985280D01*
X147118266Y-69953755D01*
X147114701Y-69915093D01*
X147111744Y-69868107D01*
X147109340Y-69811608D01*
X147107431Y-69744409D01*
X147105962Y-69665322D01*
X147104876Y-69573160D01*
X147104118Y-69466734D01*
X147103630Y-69344857D01*
X147103358Y-69206341D01*
X147103243Y-69049999D01*
X147103231Y-68874642D01*
X147103265Y-68679082D01*
X147103289Y-68462133D01*
X147103280Y-68339513D01*
X147103243Y-68134447D01*
X147103227Y-67950116D01*
X147103288Y-67785334D01*
X147103484Y-67638916D01*
X147103870Y-67509674D01*
X147104505Y-67396422D01*
X147105444Y-67297975D01*
X147106745Y-67213144D01*
X147108464Y-67140744D01*
X147110659Y-67079589D01*
X147113385Y-67028492D01*
X147116701Y-66986267D01*
X147120662Y-66951727D01*
X147125325Y-66923686D01*
X147130747Y-66900958D01*
X147136986Y-66882356D01*
X147144097Y-66866693D01*
X147152138Y-66852784D01*
X147161166Y-66839441D01*
X147171236Y-66825479D01*
X147182407Y-66809711D01*
X147222197Y-66751867D01*
X146162314Y-66751867D01*
X146200311Y-66814966D01*
X146214993Y-66840005D01*
X146229531Y-66867586D01*
X146241627Y-66895700D01*
X146251532Y-66926551D01*
X146259494Y-66962344D01*
X146265761Y-67005283D01*
X146270582Y-67057574D01*
X146274206Y-67121419D01*
X146276881Y-67199025D01*
X146278857Y-67292594D01*
X146280382Y-67404333D01*
X146281704Y-67536445D01*
X146282613Y-67656434D01*
X146283020Y-67773063D01*
X146282767Y-67868531D01*
X146281857Y-67942556D01*
X146280293Y-67994855D01*
X146278079Y-68025149D01*
X146275220Y-68033156D01*
X146272161Y-68029858D01*
X146254006Y-68008408D01*
X146224275Y-67971889D01*
X146184639Y-67922442D01*
X146136771Y-67862207D01*
X146082343Y-67793327D01*
X146023027Y-67717943D01*
X145960495Y-67638196D01*
X145896421Y-67556228D01*
X145832475Y-67474180D01*
X145770331Y-67394194D01*
X145711661Y-67318411D01*
X145658137Y-67248973D01*
X145611430Y-67188021D01*
X145573214Y-67137696D01*
X145545161Y-67100140D01*
X145528943Y-67077495D01*
X145483635Y-67005212D01*
X145443661Y-66925463D01*
X145422130Y-66857188D01*
X145418827Y-66799844D01*
X145424116Y-66751867D01*
X144292356Y-66752117D01*
X144331867Y-66782722D01*
X144341248Y-66790089D01*
X144404183Y-66844438D01*
X144472997Y-66912259D01*
X144549596Y-66995516D01*
X144635888Y-67096178D01*
X144653052Y-67116847D01*
X144693833Y-67166409D01*
X144743588Y-67227326D01*
X144800955Y-67297898D01*
X144864569Y-67376424D01*
X144933069Y-67461204D01*
X145005090Y-67550537D01*
X145079270Y-67642722D01*
X145094517Y-67661702D01*
X145154246Y-67736060D01*
X145228653Y-67828848D01*
X145301131Y-67919388D01*
X145370314Y-68005978D01*
X145434841Y-68086918D01*
X145493347Y-68160506D01*
X145544470Y-68225044D01*
X145586847Y-68278829D01*
X145619115Y-68320162D01*
X145639910Y-68347342D01*
X145647869Y-68358668D01*
X145646111Y-68362771D01*
X145633230Y-68383334D01*
X145608885Y-68419561D01*
X145574247Y-68469824D01*
X145530486Y-68532492D01*
X145478775Y-68605936D01*
X145420284Y-68688527D01*
X145356184Y-68778636D01*
X145287646Y-68874631D01*
X145215843Y-68974885D01*
X145141944Y-69077768D01*
X145067121Y-69181650D01*
X144992545Y-69284901D01*
X144919387Y-69385892D01*
X144848819Y-69482994D01*
X144782011Y-69574577D01*
X144720135Y-69659011D01*
X144664361Y-69734667D01*
X144615862Y-69799916D01*
X144575807Y-69853128D01*
X144545369Y-69892673D01*
X144524944Y-69918026D01*
X144478899Y-69972295D01*
X144428612Y-70028775D01*
X144381815Y-70078669D01*
X144290651Y-70172400D01*
X143592445Y-70172400D01*
X143661356Y-70172349D01*
X143759607Y-70172091D01*
X143849030Y-70171637D01*
X143927333Y-70171010D01*
X143992223Y-70170235D01*
X144041411Y-70169335D01*
X144072604Y-70168334D01*
X144083511Y-70167257D01*
X144082322Y-70164037D01*
X144072176Y-70146452D01*
X144055040Y-70120158D01*
X144046540Y-70107691D01*
X144037329Y-70093622D01*
X144029233Y-70079351D01*
X144022185Y-70063479D01*
X144016117Y-70044609D01*
X144010961Y-70021341D01*
X144006651Y-69992278D01*
X144003119Y-69956021D01*
X144000297Y-69911170D01*
X143998118Y-69856328D01*
X143996514Y-69790097D01*
X143995419Y-69711077D01*
X143994765Y-69617871D01*
X143994484Y-69509079D01*
X143994509Y-69383303D01*
X143994772Y-69239145D01*
X143995206Y-69075207D01*
X143995745Y-68890089D01*
X143996279Y-68711232D01*
X143996805Y-68552374D01*
X143997350Y-68413316D01*
X143997945Y-68292665D01*
X143998619Y-68189028D01*
X143999403Y-68101011D01*
X144000326Y-68027223D01*
X144001419Y-67966269D01*
X144002712Y-67916757D01*
X144004235Y-67877293D01*
X144006019Y-67846484D01*
X144008092Y-67822938D01*
X144010486Y-67805260D01*
X144013230Y-67792059D01*
X144016356Y-67781940D01*
X144019892Y-67773511D01*
X144023791Y-67765375D01*
X144043438Y-67728544D01*
X144062225Y-67698391D01*
X144063272Y-67696908D01*
X144077602Y-67674659D01*
X144083511Y-67661702D01*
X144082504Y-67661249D01*
X144065305Y-67659803D01*
X144028656Y-67658480D01*
X143974962Y-67657316D01*
X143906630Y-67656347D01*
X143826064Y-67655611D01*
X143735670Y-67655142D01*
X143637853Y-67654978D01*
X143192195Y-67654978D01*
X143189120Y-68831845D01*
X143186045Y-70008711D01*
X143159407Y-70067622D01*
X143147485Y-70092183D01*
X143130246Y-70122434D01*
X143117074Y-70139560D01*
X143109076Y-70147591D01*
X143101378Y-70162493D01*
X142809942Y-70162493D01*
X142809474Y-70070029D01*
X142809050Y-69954617D01*
X142808706Y-69824160D01*
X142808434Y-69677716D01*
X142808227Y-69514344D01*
X142808076Y-69333101D01*
X142807972Y-69133048D01*
X142807908Y-68913241D01*
X142807876Y-68672739D01*
X142807867Y-68410602D01*
X142807867Y-66219031D01*
X142846249Y-66180649D01*
X142873355Y-66156911D01*
X142900253Y-66145111D01*
X142936560Y-66142267D01*
X142988489Y-66142267D01*
X142988489Y-66230206D01*
X142990427Y-66280102D01*
X143009199Y-66390523D01*
X143046217Y-66491987D01*
X143099369Y-66583152D01*
X143166546Y-66662673D01*
X143245638Y-66729205D01*
X143334534Y-66781406D01*
X143431125Y-66817930D01*
X143533300Y-66837434D01*
X143638950Y-66838573D01*
X143745964Y-66820005D01*
X143852232Y-66780384D01*
X143949219Y-66722516D01*
X144034293Y-66647684D01*
X144103015Y-66559615D01*
X144153918Y-66460616D01*
X144185535Y-66352993D01*
X144196400Y-66239054D01*
X144196400Y-66142267D01*
X145816753Y-66142267D01*
X146027897Y-66142280D01*
X146232020Y-66142330D01*
X146415686Y-66142430D01*
X146579991Y-66142592D01*
X146726029Y-66142829D01*
X146854894Y-66143153D01*
X146967683Y-66143575D01*
X147065488Y-66144109D01*
X147149404Y-66144767D01*
X147220527Y-66145561D01*
X147279950Y-66146504D01*
X147328768Y-66147608D01*
X147368077Y-66148884D01*
X147398969Y-66150347D01*
X147422541Y-66152007D01*
X147439886Y-66153878D01*
X147452099Y-66155972D01*
X147460275Y-66158300D01*
X147465508Y-66160876D01*
X147471504Y-66164445D01*
X147478279Y-66167978D01*
X147484478Y-66171488D01*
X147490126Y-66175918D01*
X147495247Y-66182208D01*
X147499869Y-66191301D01*
X147504015Y-66204139D01*
X147507713Y-66221662D01*
X147510987Y-66244813D01*
X147513863Y-66274534D01*
X147516367Y-66311765D01*
X147518524Y-66357449D01*
X147520360Y-66412527D01*
X147521900Y-66477941D01*
X147523170Y-66554633D01*
X147524195Y-66643544D01*
X147525001Y-66745617D01*
X147525034Y-66751867D01*
X147525614Y-66861792D01*
G37*
D12*
%TO.C,LG3*%
X140085361Y-58274243D02*
X140149333Y-58450685D01*
X140135993Y-58555972D01*
X140041162Y-58681786D01*
X139820092Y-58792284D01*
X139774672Y-58811565D01*
X139540325Y-58958654D01*
X139396759Y-59128124D01*
X139368210Y-59233877D01*
X139334370Y-59495407D01*
X139311236Y-59847735D01*
X139302667Y-60245050D01*
X139302324Y-60344537D01*
X139288314Y-60804882D01*
X139254318Y-61111488D01*
X139201067Y-61257066D01*
X139033376Y-61369203D01*
X138892706Y-61329846D01*
X138791661Y-61128069D01*
X138730862Y-60765157D01*
X138710932Y-60242399D01*
X138712851Y-59962682D01*
X138729263Y-59498649D01*
X138768483Y-59155186D01*
X138837784Y-58899797D01*
X138944440Y-58699985D01*
X139095722Y-58523255D01*
X139149716Y-58472361D01*
X139413626Y-58292205D01*
X139681525Y-58197481D01*
X139917431Y-58190667D01*
X140085361Y-58274243D01*
G36*
X140085361Y-58274243D02*
G01*
X140149333Y-58450685D01*
X140135993Y-58555972D01*
X140041162Y-58681786D01*
X139820092Y-58792284D01*
X139774672Y-58811565D01*
X139540325Y-58958654D01*
X139396759Y-59128124D01*
X139368210Y-59233877D01*
X139334370Y-59495407D01*
X139311236Y-59847735D01*
X139302667Y-60245050D01*
X139302324Y-60344537D01*
X139288314Y-60804882D01*
X139254318Y-61111488D01*
X139201067Y-61257066D01*
X139033376Y-61369203D01*
X138892706Y-61329846D01*
X138791661Y-61128069D01*
X138730862Y-60765157D01*
X138710932Y-60242399D01*
X138712851Y-59962682D01*
X138729263Y-59498649D01*
X138768483Y-59155186D01*
X138837784Y-58899797D01*
X138944440Y-58699985D01*
X139095722Y-58523255D01*
X139149716Y-58472361D01*
X139413626Y-58292205D01*
X139681525Y-58197481D01*
X139917431Y-58190667D01*
X140085361Y-58274243D01*
G37*
X142335631Y-59091341D02*
X142603176Y-59111166D01*
X142747036Y-59145955D01*
X142805369Y-59212268D01*
X142816333Y-59326666D01*
X142807127Y-59431255D01*
X142749307Y-59509056D01*
X142602639Y-59555063D01*
X142327076Y-59590904D01*
X142125658Y-59620320D01*
X141775142Y-59735644D01*
X141570498Y-59922492D01*
X141504000Y-60186455D01*
X141504033Y-60195811D01*
X141537987Y-60430028D01*
X141650728Y-60593299D01*
X141864329Y-60696481D01*
X142200865Y-60750429D01*
X142682409Y-60766000D01*
X142907907Y-60767813D01*
X143253201Y-60778077D01*
X143517273Y-60795378D01*
X143656075Y-60817391D01*
X143713306Y-60857596D01*
X143781116Y-61011760D01*
X143773029Y-61189885D01*
X143684167Y-61306953D01*
X143581130Y-61322450D01*
X143339353Y-61333729D01*
X143001061Y-61337691D01*
X142604667Y-61333393D01*
X142383089Y-61327742D01*
X141994285Y-61308878D01*
X141723433Y-61277105D01*
X141535097Y-61227168D01*
X141393839Y-61153811D01*
X141119553Y-60884481D01*
X140954811Y-60534950D01*
X140907330Y-60151396D01*
X140975837Y-59774037D01*
X141159058Y-59443094D01*
X141455721Y-59198786D01*
X141550020Y-59156245D01*
X141849720Y-59091844D01*
X142266000Y-59087817D01*
X142335631Y-59091341D01*
G36*
X142335631Y-59091341D02*
G01*
X142603176Y-59111166D01*
X142747036Y-59145955D01*
X142805369Y-59212268D01*
X142816333Y-59326666D01*
X142807127Y-59431255D01*
X142749307Y-59509056D01*
X142602639Y-59555063D01*
X142327076Y-59590904D01*
X142125658Y-59620320D01*
X141775142Y-59735644D01*
X141570498Y-59922492D01*
X141504000Y-60186455D01*
X141504033Y-60195811D01*
X141537987Y-60430028D01*
X141650728Y-60593299D01*
X141864329Y-60696481D01*
X142200865Y-60750429D01*
X142682409Y-60766000D01*
X142907907Y-60767813D01*
X143253201Y-60778077D01*
X143517273Y-60795378D01*
X143656075Y-60817391D01*
X143713306Y-60857596D01*
X143781116Y-61011760D01*
X143773029Y-61189885D01*
X143684167Y-61306953D01*
X143581130Y-61322450D01*
X143339353Y-61333729D01*
X143001061Y-61337691D01*
X142604667Y-61333393D01*
X142383089Y-61327742D01*
X141994285Y-61308878D01*
X141723433Y-61277105D01*
X141535097Y-61227168D01*
X141393839Y-61153811D01*
X141119553Y-60884481D01*
X140954811Y-60534950D01*
X140907330Y-60151396D01*
X140975837Y-59774037D01*
X141159058Y-59443094D01*
X141455721Y-59198786D01*
X141550020Y-59156245D01*
X141849720Y-59091844D01*
X142266000Y-59087817D01*
X142335631Y-59091341D01*
G37*
X142552663Y-58149875D02*
X142777711Y-58175824D01*
X142961140Y-58226187D01*
X143144472Y-58305569D01*
X143275274Y-58379094D01*
X143564565Y-58649837D01*
X143732146Y-58984151D01*
X143782099Y-59348335D01*
X143718504Y-59708686D01*
X143545444Y-60031501D01*
X143266998Y-60283080D01*
X142887249Y-60429719D01*
X142870879Y-60432860D01*
X142410777Y-60494715D01*
X142088147Y-60476949D01*
X141891048Y-60378952D01*
X141890743Y-60378647D01*
X141767192Y-60196155D01*
X141805352Y-60056606D01*
X142006152Y-59959077D01*
X142370521Y-59902644D01*
X142454358Y-59894508D01*
X142803794Y-59823454D01*
X143026688Y-59708854D01*
X143083614Y-59648950D01*
X143190798Y-59401950D01*
X143153246Y-59138739D01*
X142974249Y-58909478D01*
X142936886Y-58881422D01*
X142798902Y-58805927D01*
X142618654Y-58761080D01*
X142353858Y-58739548D01*
X141962233Y-58734000D01*
X141795592Y-58736058D01*
X141434414Y-58754319D01*
X141139306Y-58787401D01*
X140961865Y-58830336D01*
X140897521Y-58865931D01*
X140715015Y-59077937D01*
X140607746Y-59427412D01*
X140572667Y-59922909D01*
X140562889Y-60154874D01*
X140504143Y-60391621D01*
X140383695Y-60488023D01*
X140191667Y-60457951D01*
X140130783Y-60383327D01*
X140078826Y-60173519D01*
X140054801Y-59876520D01*
X140057926Y-59536907D01*
X140087418Y-59199259D01*
X140142495Y-58908154D01*
X140222375Y-58708171D01*
X140320155Y-58569277D01*
X140478068Y-58401137D01*
X140668477Y-58287716D01*
X140925565Y-58216823D01*
X141283514Y-58176266D01*
X141776509Y-58153852D01*
X141811616Y-58152796D01*
X142244472Y-58143734D01*
X142552663Y-58149875D01*
G36*
X142552663Y-58149875D02*
G01*
X142777711Y-58175824D01*
X142961140Y-58226187D01*
X143144472Y-58305569D01*
X143275274Y-58379094D01*
X143564565Y-58649837D01*
X143732146Y-58984151D01*
X143782099Y-59348335D01*
X143718504Y-59708686D01*
X143545444Y-60031501D01*
X143266998Y-60283080D01*
X142887249Y-60429719D01*
X142870879Y-60432860D01*
X142410777Y-60494715D01*
X142088147Y-60476949D01*
X141891048Y-60378952D01*
X141890743Y-60378647D01*
X141767192Y-60196155D01*
X141805352Y-60056606D01*
X142006152Y-59959077D01*
X142370521Y-59902644D01*
X142454358Y-59894508D01*
X142803794Y-59823454D01*
X143026688Y-59708854D01*
X143083614Y-59648950D01*
X143190798Y-59401950D01*
X143153246Y-59138739D01*
X142974249Y-58909478D01*
X142936886Y-58881422D01*
X142798902Y-58805927D01*
X142618654Y-58761080D01*
X142353858Y-58739548D01*
X141962233Y-58734000D01*
X141795592Y-58736058D01*
X141434414Y-58754319D01*
X141139306Y-58787401D01*
X140961865Y-58830336D01*
X140897521Y-58865931D01*
X140715015Y-59077937D01*
X140607746Y-59427412D01*
X140572667Y-59922909D01*
X140562889Y-60154874D01*
X140504143Y-60391621D01*
X140383695Y-60488023D01*
X140191667Y-60457951D01*
X140130783Y-60383327D01*
X140078826Y-60173519D01*
X140054801Y-59876520D01*
X140057926Y-59536907D01*
X140087418Y-59199259D01*
X140142495Y-58908154D01*
X140222375Y-58708171D01*
X140320155Y-58569277D01*
X140478068Y-58401137D01*
X140668477Y-58287716D01*
X140925565Y-58216823D01*
X141283514Y-58176266D01*
X141776509Y-58153852D01*
X141811616Y-58152796D01*
X142244472Y-58143734D01*
X142552663Y-58149875D01*
G37*
X141880736Y-57491099D02*
X142529985Y-57523389D01*
X143127227Y-57572830D01*
X143643239Y-57638175D01*
X144048800Y-57718179D01*
X144314688Y-57811597D01*
X144339532Y-57827073D01*
X144383378Y-57877203D01*
X144415934Y-57968160D01*
X144438856Y-58121362D01*
X144453800Y-58358224D01*
X144462423Y-58700164D01*
X144466382Y-59168599D01*
X144467333Y-59784945D01*
X144466163Y-60247996D01*
X144459683Y-60807284D01*
X144446802Y-61223075D01*
X144426694Y-61510790D01*
X144398535Y-61685849D01*
X144361500Y-61763674D01*
X144227538Y-61823632D01*
X143942361Y-61899708D01*
X143534572Y-61982236D01*
X143028000Y-62065816D01*
X142946708Y-62073080D01*
X142701846Y-62084183D01*
X142343111Y-62094201D01*
X141904331Y-62102260D01*
X141419333Y-62107483D01*
X141267031Y-62107910D01*
X140655961Y-62097692D01*
X140050751Y-62070504D01*
X139478644Y-62029051D01*
X138966887Y-61976037D01*
X138542725Y-61914166D01*
X138371333Y-61876474D01*
X138233404Y-61846142D01*
X138066169Y-61774670D01*
X138053165Y-61761252D01*
X138016265Y-61678554D01*
X137988639Y-61522861D01*
X137969144Y-61274914D01*
X137956635Y-60915453D01*
X137949968Y-60425217D01*
X137948137Y-59829371D01*
X138371333Y-59829371D01*
X138371333Y-61422748D01*
X139027500Y-61525306D01*
X139162794Y-61543412D01*
X139529878Y-61577926D01*
X139991888Y-61608761D01*
X140511138Y-61634660D01*
X141049943Y-61654364D01*
X141570617Y-61666617D01*
X142035475Y-61670161D01*
X142406831Y-61663739D01*
X142647000Y-61646091D01*
X142833576Y-61618002D01*
X143138387Y-61570928D01*
X143474301Y-61518198D01*
X144047601Y-61427426D01*
X144024634Y-59806143D01*
X144001667Y-58184859D01*
X143451333Y-58080237D01*
X143053486Y-58018176D01*
X142369308Y-57952179D01*
X141613863Y-57916497D01*
X140843949Y-57912245D01*
X140116360Y-57940536D01*
X139487892Y-58002485D01*
X139140507Y-58054095D01*
X138804448Y-58109619D01*
X138562173Y-58156092D01*
X138450725Y-58186926D01*
X138426547Y-58272937D01*
X138404205Y-58505665D01*
X138386750Y-58859332D01*
X138375389Y-59308909D01*
X138371333Y-59829371D01*
X137948137Y-59829371D01*
X137948000Y-59784945D01*
X137947762Y-59600076D01*
X137945622Y-59006418D01*
X137950023Y-58554975D01*
X137972225Y-58224471D01*
X138023488Y-57993632D01*
X138115071Y-57841182D01*
X138258234Y-57745847D01*
X138464238Y-57686352D01*
X138744342Y-57641423D01*
X139109807Y-57589783D01*
X139348109Y-57558346D01*
X139913166Y-57509582D01*
X140543104Y-57482950D01*
X141208702Y-57477204D01*
X141880736Y-57491099D01*
G36*
X141880736Y-57491099D02*
G01*
X142529985Y-57523389D01*
X143127227Y-57572830D01*
X143643239Y-57638175D01*
X144048800Y-57718179D01*
X144314688Y-57811597D01*
X144339532Y-57827073D01*
X144383378Y-57877203D01*
X144415934Y-57968160D01*
X144438856Y-58121362D01*
X144453800Y-58358224D01*
X144462423Y-58700164D01*
X144466382Y-59168599D01*
X144467333Y-59784945D01*
X144466163Y-60247996D01*
X144459683Y-60807284D01*
X144446802Y-61223075D01*
X144426694Y-61510790D01*
X144398535Y-61685849D01*
X144361500Y-61763674D01*
X144227538Y-61823632D01*
X143942361Y-61899708D01*
X143534572Y-61982236D01*
X143028000Y-62065816D01*
X142946708Y-62073080D01*
X142701846Y-62084183D01*
X142343111Y-62094201D01*
X141904331Y-62102260D01*
X141419333Y-62107483D01*
X141267031Y-62107910D01*
X140655961Y-62097692D01*
X140050751Y-62070504D01*
X139478644Y-62029051D01*
X138966887Y-61976037D01*
X138542725Y-61914166D01*
X138371333Y-61876474D01*
X138233404Y-61846142D01*
X138066169Y-61774670D01*
X138053165Y-61761252D01*
X138016265Y-61678554D01*
X137988639Y-61522861D01*
X137969144Y-61274914D01*
X137956635Y-60915453D01*
X137949968Y-60425217D01*
X137948137Y-59829371D01*
X138371333Y-59829371D01*
X138371333Y-61422748D01*
X139027500Y-61525306D01*
X139162794Y-61543412D01*
X139529878Y-61577926D01*
X139991888Y-61608761D01*
X140511138Y-61634660D01*
X141049943Y-61654364D01*
X141570617Y-61666617D01*
X142035475Y-61670161D01*
X142406831Y-61663739D01*
X142647000Y-61646091D01*
X142833576Y-61618002D01*
X143138387Y-61570928D01*
X143474301Y-61518198D01*
X144047601Y-61427426D01*
X144024634Y-59806143D01*
X144001667Y-58184859D01*
X143451333Y-58080237D01*
X143053486Y-58018176D01*
X142369308Y-57952179D01*
X141613863Y-57916497D01*
X140843949Y-57912245D01*
X140116360Y-57940536D01*
X139487892Y-58002485D01*
X139140507Y-58054095D01*
X138804448Y-58109619D01*
X138562173Y-58156092D01*
X138450725Y-58186926D01*
X138426547Y-58272937D01*
X138404205Y-58505665D01*
X138386750Y-58859332D01*
X138375389Y-59308909D01*
X138371333Y-59829371D01*
X137948137Y-59829371D01*
X137948000Y-59784945D01*
X137947762Y-59600076D01*
X137945622Y-59006418D01*
X137950023Y-58554975D01*
X137972225Y-58224471D01*
X138023488Y-57993632D01*
X138115071Y-57841182D01*
X138258234Y-57745847D01*
X138464238Y-57686352D01*
X138744342Y-57641423D01*
X139109807Y-57589783D01*
X139348109Y-57558346D01*
X139913166Y-57509582D01*
X140543104Y-57482950D01*
X141208702Y-57477204D01*
X141880736Y-57491099D01*
G37*
%TD*%
M02*
