%TF.GenerationSoftware,KiCad,Pcbnew,10.0.1*%
%TF.CreationDate,2026-06-03T15:10:43+02:00*%
%TF.ProjectId,ATMega1608_Dev,41544d65-6761-4313-9630-385f4465762e,3.1.1*%
%TF.SameCoordinates,Original*%
%TF.FileFunction,Copper,L4,Bot*%
%TF.FilePolarity,Positive*%
%FSLAX46Y46*%
G04 Gerber Fmt 4.6, Leading zero omitted, Abs format (unit mm)*
G04 Created by KiCad (PCBNEW 10.0.1) date 2026-06-03 15:10:43*
%MOMM*%
%LPD*%
G01*
G04 APERTURE LIST*
%TA.AperFunction,ComponentPad*%
%ADD10R,1.700000X1.700000*%
%TD*%
%TA.AperFunction,ComponentPad*%
%ADD11C,1.700000*%
%TD*%
%TA.AperFunction,ComponentPad*%
%ADD12C,1.020000*%
%TD*%
%TA.AperFunction,ViaPad*%
%ADD13C,0.508000*%
%TD*%
%TA.AperFunction,Conductor*%
%ADD14C,0.152400*%
%TD*%
%TA.AperFunction,Conductor*%
%ADD15C,0.609600*%
%TD*%
G04 APERTURE END LIST*
D10*
%TO.P,J5,1,Pin_1_1*%
%TO.N,/UPDI*%
X137795001Y-52070000D03*
D11*
%TO.P,J5,2,Pin_2_2*%
%TO.N,/~{RESET}*%
X140335001Y-52070000D03*
%TO.P,J5,3,Pin_3_3*%
%TO.N,/PD4*%
X142875001Y-52070000D03*
%TO.P,J5,4,Pin_4_4*%
%TO.N,/PD5*%
X145415001Y-52070000D03*
%TO.P,J5,5,Pin_5_5*%
%TO.N,/PD6*%
X147955001Y-52070000D03*
%TO.P,J5,6,Pin_6_6*%
%TO.N,/PD7*%
X150495001Y-52070000D03*
%TO.P,J5,7,Pin_7_7*%
%TO.N,/PF5*%
X153035001Y-52070000D03*
%TO.P,J5,8,Pin_8_8*%
%TO.N,/PF4*%
X155575001Y-52070000D03*
%TO.P,J5,9,Pin_9_9*%
%TO.N,/SCL*%
X158115001Y-52070000D03*
%TO.P,J5,10,Pin_10_10*%
%TO.N,/SDA*%
X160655001Y-52070000D03*
%TO.P,J5,11,Pin_11_11*%
%TO.N,/PF1*%
X163195001Y-52070000D03*
%TO.P,J5,12,Pin_12_12*%
%TO.N,/PF0*%
X165735001Y-52070000D03*
%TD*%
D10*
%TO.P,J2,1,Pin_1_1*%
%TO.N,unconnected-(J2-Pin_1-Pad1)*%
X114122200Y-69265800D03*
D11*
%TO.P,J2,2,Pin_2_2*%
%TO.N,/DIN*%
X114122200Y-66725800D03*
%TO.P,J2,3,Pin_3_3*%
%TO.N,/DOUT*%
X114122200Y-64185800D03*
%TO.P,J2,4,Pin_4_4*%
%TO.N,GND*%
X114122200Y-61645800D03*
%TO.P,J2,5,Pin_5_5*%
%TO.N,Net-(J2-Pin_5)*%
X114122200Y-59105800D03*
%TO.P,J2,6,Pin_6_6*%
%TO.N,unconnected-(J2-Pin_6-Pad6)*%
X114122200Y-56565800D03*
%TD*%
D12*
%TO.P,TC1,1,Pin_1_1*%
%TO.N,/UPDI*%
X167640000Y-67818000D03*
%TO.P,TC1,2,Pin_2_2*%
%TO.N,+3.3V*%
X167640000Y-66548000D03*
%TO.P,TC1,3,Pin_3_3*%
%TO.N,unconnected-(TC1-Pin_3-Pad3)*%
X167630000Y-65278000D03*
%TO.P,TC1,4,Pin_4_4*%
%TO.N,unconnected-(TC1-Pin_4-Pad4)_1*%
X167640000Y-62738000D03*
%TO.P,TC1,5,Pin_5_5*%
%TO.N,unconnected-(TC1-Pin_5-Pad5)*%
X167640000Y-61468000D03*
%TO.P,TC1,6,Pin_6_6*%
%TO.N,GND*%
X167640000Y-60198000D03*
%TD*%
D10*
%TO.P,J3,1,Pin_1_1*%
%TO.N,/TxD0*%
X127550000Y-74041000D03*
D11*
%TO.P,J3,2,Pin_2_2*%
%TO.N,/RxD0*%
X130090000Y-74041000D03*
%TO.P,J3,3,Pin_3_3*%
%TO.N,/PA2*%
X132630000Y-74041000D03*
%TO.P,J3,4,Pin_4_4*%
%TO.N,/PA3*%
X135170000Y-74041000D03*
%TO.P,J3,5,Pin_5_5*%
%TO.N,/MOSI*%
X137710000Y-74041000D03*
%TO.P,J3,6,Pin_6_6*%
%TO.N,/MISO*%
X140250000Y-74041000D03*
%TO.P,J3,7,Pin_7_7*%
%TO.N,/SCK*%
X142790000Y-74041000D03*
%TO.P,J3,8,Pin_8_8*%
%TO.N,/SS*%
X145330000Y-74041000D03*
%TO.P,J3,9,Pin_9_9*%
%TO.N,/DIN*%
X147870000Y-74041000D03*
%TO.P,J3,10,Pin_10_10*%
%TO.N,/DOUT*%
X150410000Y-74041000D03*
%TO.P,J3,11,Pin_11_11*%
%TO.N,/PC2*%
X152950000Y-74041000D03*
%TO.P,J3,12,Pin_12_12*%
%TO.N,/PC3*%
X155490000Y-74041000D03*
%TO.P,J3,13,Pin_13_13*%
%TO.N,/PD0*%
X158030000Y-74041000D03*
%TO.P,J3,14,Pin_14_14*%
%TO.N,/PD1*%
X160570000Y-74041000D03*
%TO.P,J3,15,Pin_15_15*%
%TO.N,/PD2*%
X163110000Y-74041000D03*
%TO.P,J3,16,Pin_16_16*%
%TO.N,/PD3*%
X165650000Y-74041000D03*
%TD*%
D10*
%TO.P,J4,1,Pin_1_1*%
%TO.N,+3.3V*%
X114046000Y-74041000D03*
D11*
%TO.P,J4,2,Pin_2_2*%
%TO.N,GND*%
X116586000Y-74041000D03*
%TD*%
D10*
%TO.P,J1,1,Pin_1_1*%
%TO.N,Net-(D1-A)*%
X113533000Y-52070000D03*
D11*
%TO.P,J1,2,Pin_2_2*%
%TO.N,GND*%
X116073000Y-52070000D03*
%TD*%
D10*
%TO.P,JP101,1,A_1*%
%TO.N,/USB-5V*%
X122250000Y-59000000D03*
D11*
%TO.P,JP101,2,B_2*%
%TO.N,Net-(J2-Pin_5)*%
X119710000Y-59000000D03*
%TD*%
D13*
%TO.N,/~{RESET}*%
X142748000Y-55372000D03*
%TO.N,GND*%
X157200000Y-59800000D03*
X134340601Y-51359200D03*
X134384401Y-62650401D03*
X140208000Y-55753000D03*
X132225401Y-62650401D03*
X145500000Y-60500000D03*
%TO.N,/UPDI*%
X152313103Y-59903897D03*
%TO.N,/PD4*%
X154940000Y-64008000D03*
%TO.N,/PD5*%
X155518542Y-63628492D03*
%TO.N,/PD6*%
X156096422Y-63194200D03*
%TO.N,/PD7*%
X155448000Y-62230000D03*
%TO.N,+3.3V*%
X129431401Y-67857401D03*
X146431000Y-57150000D03*
X157900000Y-60200000D03*
X140335000Y-60579000D03*
X124587000Y-51308000D03*
%TO.N,/TxD0*%
X145542000Y-62103000D03*
%TO.N,/RxD0*%
X146024100Y-62865000D03*
%TO.N,/PA2*%
X148250000Y-62950000D03*
%TO.N,/PA3*%
X146582435Y-65850065D03*
%TO.N,/MOSI*%
X146558000Y-66548000D03*
%TO.N,/MISO*%
X147499154Y-66260782D03*
%TO.N,/SCK*%
X148054685Y-66617877D03*
%TO.N,/SS*%
X148509404Y-67096795D03*
%TO.N,/PC2*%
X150241000Y-68961000D03*
%TD*%
%TO.N,/~{RESET}*%
D14*
X142748000Y-54482999D02*
X140335001Y-52070000D01*
X142748000Y-55372000D02*
X142748000Y-54482999D01*
%TO.N,/UPDI*%
X166116000Y-67818000D02*
X167411400Y-67818000D01*
X152313103Y-59903897D02*
X155121306Y-62712100D01*
X155121306Y-62712100D02*
X161010100Y-62712100D01*
X161010100Y-62712100D02*
X166116000Y-67818000D01*
%TO.N,/PD4*%
X154940000Y-64008000D02*
X154051000Y-64008000D01*
X143002000Y-52959000D02*
X143002000Y-52070000D01*
X154051000Y-64008000D02*
X143002000Y-52959000D01*
%TO.N,/PD5*%
X155210752Y-63320702D02*
X155518542Y-63628492D01*
X154617769Y-63320702D02*
X155210752Y-63320702D01*
X145542000Y-54244933D02*
X154617769Y-63320702D01*
X145542000Y-52070000D02*
X145542000Y-54244933D01*
%TO.N,/PD6*%
X155550055Y-63016401D02*
X155727854Y-63194200D01*
X154743814Y-63016401D02*
X155550055Y-63016401D01*
X148082000Y-56354587D02*
X154743814Y-63016401D01*
X148082000Y-52070000D02*
X148082000Y-56354587D01*
X155727854Y-63194200D02*
X156096422Y-63194200D01*
%TO.N,/PD7*%
X150622000Y-57531000D02*
X155321000Y-62230000D01*
X155321000Y-62230000D02*
X155448000Y-62230000D01*
X150622000Y-52070000D02*
X150622000Y-57531000D01*
%TO.N,Net-(J2-Pin_5)*%
D15*
X114122200Y-59105800D02*
X119604200Y-59105800D01*
X119604200Y-59105800D02*
X119710000Y-59000000D01*
%TO.N,/TxD0*%
D14*
X127508000Y-73038600D02*
X127508000Y-74041000D01*
X139791215Y-70993000D02*
X129553600Y-70993000D01*
X145542000Y-62103000D02*
X145542000Y-65242215D01*
X145542000Y-65242215D02*
X139791215Y-70993000D01*
X129553600Y-70993000D02*
X127508000Y-73038600D01*
%TO.N,/RxD0*%
X140014767Y-71297301D02*
X132791699Y-71297301D01*
X146024100Y-65287968D02*
X140014767Y-71297301D01*
X146024100Y-62865000D02*
X146024100Y-65287968D01*
X132791699Y-71297301D02*
X130048000Y-74041000D01*
%TO.N,/PA2*%
X135027398Y-71601602D02*
X132588000Y-74041000D01*
X148250000Y-63500000D02*
X148250000Y-62950000D01*
X145878953Y-65863461D02*
X140140812Y-71601602D01*
X145886539Y-65863461D02*
X148250000Y-63500000D01*
X140140812Y-71601602D02*
X135027398Y-71601602D01*
X145878953Y-65863461D02*
X145886539Y-65863461D01*
%TO.N,/PA3*%
X135128000Y-74041000D02*
X137263097Y-71905903D01*
X146387973Y-65850065D02*
X146582435Y-65850065D01*
X137263097Y-71905903D02*
X140332135Y-71905903D01*
X140332135Y-71905903D02*
X146387973Y-65850065D01*
%TO.N,/MOSI*%
X139588000Y-72263000D02*
X140462000Y-72263000D01*
X140462000Y-72263000D02*
X140589000Y-72263000D01*
X137937000Y-73914000D02*
X139588000Y-72263000D01*
X140589000Y-72263000D02*
X140843000Y-72263000D01*
X140843000Y-72263000D02*
X146558000Y-66548000D01*
%TO.N,/MISO*%
X140477000Y-73329406D02*
X147499154Y-66307252D01*
X140477000Y-73914000D02*
X140477000Y-73329406D01*
X147499154Y-66307252D02*
X147499154Y-66260782D01*
%TO.N,/SCK*%
X143017000Y-73914000D02*
X143017000Y-71706267D01*
X143017000Y-71706267D02*
X148054685Y-66668582D01*
X148054685Y-66668582D02*
X148054685Y-66617877D01*
%TO.N,/SS*%
X145557000Y-73914000D02*
X148463000Y-71008000D01*
X148463000Y-71008000D02*
X148463000Y-67143199D01*
X148463000Y-67143199D02*
X148509404Y-67096795D01*
%TO.N,/PC2*%
X150241000Y-70993000D02*
X153162000Y-73914000D01*
X150241000Y-68961000D02*
X150241000Y-70993000D01*
%TD*%
M02*
