%TF.GenerationSoftware,KiCad,Pcbnew,10.0.1*%
%TF.CreationDate,2026-06-03T15:10:43+02:00*%
%TF.ProjectId,ATMega1608_Dev,41544d65-6761-4313-9630-385f4465762e,3.1.1*%
%TF.SameCoordinates,Original*%
%TF.FileFunction,Legend,Top*%
%TF.FilePolarity,Positive*%
%FSLAX46Y46*%
G04 Gerber Fmt 4.6, Leading zero omitted, Abs format (unit mm)*
G04 Created by KiCad (PCBNEW 10.0.1) date 2026-06-03 15:10:43*
%MOMM*%
%LPD*%
G01*
G04 APERTURE LIST*
%ADD10C,0.076200*%
%ADD11C,0.120000*%
%ADD12C,0.100000*%
G04 APERTURE END LIST*
D10*
X119919178Y-56715441D02*
X120085845Y-56715441D01*
X120157273Y-56977346D02*
X119919178Y-56977346D01*
X119919178Y-56977346D02*
X119919178Y-56477346D01*
X119919178Y-56477346D02*
X120157273Y-56477346D01*
X120371559Y-56644013D02*
X120371559Y-56977346D01*
X120371559Y-56691632D02*
X120395369Y-56667822D01*
X120395369Y-56667822D02*
X120442988Y-56644013D01*
X120442988Y-56644013D02*
X120514416Y-56644013D01*
X120514416Y-56644013D02*
X120562035Y-56667822D01*
X120562035Y-56667822D02*
X120585845Y-56715441D01*
X120585845Y-56715441D02*
X120585845Y-56977346D01*
X121038226Y-56977346D02*
X121038226Y-56715441D01*
X121038226Y-56715441D02*
X121014416Y-56667822D01*
X121014416Y-56667822D02*
X120966797Y-56644013D01*
X120966797Y-56644013D02*
X120871559Y-56644013D01*
X120871559Y-56644013D02*
X120823940Y-56667822D01*
X121038226Y-56953537D02*
X120990607Y-56977346D01*
X120990607Y-56977346D02*
X120871559Y-56977346D01*
X120871559Y-56977346D02*
X120823940Y-56953537D01*
X120823940Y-56953537D02*
X120800131Y-56905917D01*
X120800131Y-56905917D02*
X120800131Y-56858298D01*
X120800131Y-56858298D02*
X120823940Y-56810679D01*
X120823940Y-56810679D02*
X120871559Y-56786870D01*
X120871559Y-56786870D02*
X120990607Y-56786870D01*
X120990607Y-56786870D02*
X121038226Y-56763060D01*
X121276321Y-56977346D02*
X121276321Y-56477346D01*
X121276321Y-56667822D02*
X121323940Y-56644013D01*
X121323940Y-56644013D02*
X121419178Y-56644013D01*
X121419178Y-56644013D02*
X121466797Y-56667822D01*
X121466797Y-56667822D02*
X121490607Y-56691632D01*
X121490607Y-56691632D02*
X121514416Y-56739251D01*
X121514416Y-56739251D02*
X121514416Y-56882108D01*
X121514416Y-56882108D02*
X121490607Y-56929727D01*
X121490607Y-56929727D02*
X121466797Y-56953537D01*
X121466797Y-56953537D02*
X121419178Y-56977346D01*
X121419178Y-56977346D02*
X121323940Y-56977346D01*
X121323940Y-56977346D02*
X121276321Y-56953537D01*
X121800131Y-56977346D02*
X121752512Y-56953537D01*
X121752512Y-56953537D02*
X121728702Y-56905917D01*
X121728702Y-56905917D02*
X121728702Y-56477346D01*
X122181083Y-56953537D02*
X122133464Y-56977346D01*
X122133464Y-56977346D02*
X122038226Y-56977346D01*
X122038226Y-56977346D02*
X121990607Y-56953537D01*
X121990607Y-56953537D02*
X121966798Y-56905917D01*
X121966798Y-56905917D02*
X121966798Y-56715441D01*
X121966798Y-56715441D02*
X121990607Y-56667822D01*
X121990607Y-56667822D02*
X122038226Y-56644013D01*
X122038226Y-56644013D02*
X122133464Y-56644013D01*
X122133464Y-56644013D02*
X122181083Y-56667822D01*
X122181083Y-56667822D02*
X122204893Y-56715441D01*
X122204893Y-56715441D02*
X122204893Y-56763060D01*
X122204893Y-56763060D02*
X121966798Y-56810679D01*
X126678571Y-54879874D02*
X126440476Y-54879874D01*
X126440476Y-54879874D02*
X126440476Y-54379874D01*
X126845238Y-54617969D02*
X127011905Y-54617969D01*
X127083333Y-54879874D02*
X126845238Y-54879874D01*
X126845238Y-54879874D02*
X126845238Y-54379874D01*
X126845238Y-54379874D02*
X127083333Y-54379874D01*
X127297619Y-54879874D02*
X127297619Y-54379874D01*
X127297619Y-54379874D02*
X127416667Y-54379874D01*
X127416667Y-54379874D02*
X127488095Y-54403684D01*
X127488095Y-54403684D02*
X127535714Y-54451303D01*
X127535714Y-54451303D02*
X127559524Y-54498922D01*
X127559524Y-54498922D02*
X127583333Y-54594160D01*
X127583333Y-54594160D02*
X127583333Y-54665588D01*
X127583333Y-54665588D02*
X127559524Y-54760826D01*
X127559524Y-54760826D02*
X127535714Y-54808445D01*
X127535714Y-54808445D02*
X127488095Y-54856065D01*
X127488095Y-54856065D02*
X127416667Y-54879874D01*
X127416667Y-54879874D02*
X127297619Y-54879874D01*
X125916666Y-55184846D02*
X125916666Y-55541989D01*
X125916666Y-55541989D02*
X125892857Y-55613417D01*
X125892857Y-55613417D02*
X125845238Y-55661037D01*
X125845238Y-55661037D02*
X125773809Y-55684846D01*
X125773809Y-55684846D02*
X125726190Y-55684846D01*
X126369047Y-55351513D02*
X126369047Y-55684846D01*
X126154761Y-55351513D02*
X126154761Y-55613417D01*
X126154761Y-55613417D02*
X126178571Y-55661037D01*
X126178571Y-55661037D02*
X126226190Y-55684846D01*
X126226190Y-55684846D02*
X126297618Y-55684846D01*
X126297618Y-55684846D02*
X126345237Y-55661037D01*
X126345237Y-55661037D02*
X126369047Y-55637227D01*
X126607142Y-55684846D02*
X126607142Y-55351513D01*
X126607142Y-55399132D02*
X126630952Y-55375322D01*
X126630952Y-55375322D02*
X126678571Y-55351513D01*
X126678571Y-55351513D02*
X126749999Y-55351513D01*
X126749999Y-55351513D02*
X126797618Y-55375322D01*
X126797618Y-55375322D02*
X126821428Y-55422941D01*
X126821428Y-55422941D02*
X126821428Y-55684846D01*
X126821428Y-55422941D02*
X126845237Y-55375322D01*
X126845237Y-55375322D02*
X126892856Y-55351513D01*
X126892856Y-55351513D02*
X126964285Y-55351513D01*
X126964285Y-55351513D02*
X127011904Y-55375322D01*
X127011904Y-55375322D02*
X127035714Y-55422941D01*
X127035714Y-55422941D02*
X127035714Y-55684846D01*
X127273809Y-55351513D02*
X127273809Y-55851513D01*
X127273809Y-55375322D02*
X127321428Y-55351513D01*
X127321428Y-55351513D02*
X127416666Y-55351513D01*
X127416666Y-55351513D02*
X127464285Y-55375322D01*
X127464285Y-55375322D02*
X127488095Y-55399132D01*
X127488095Y-55399132D02*
X127511904Y-55446751D01*
X127511904Y-55446751D02*
X127511904Y-55589608D01*
X127511904Y-55589608D02*
X127488095Y-55637227D01*
X127488095Y-55637227D02*
X127464285Y-55661037D01*
X127464285Y-55661037D02*
X127416666Y-55684846D01*
X127416666Y-55684846D02*
X127321428Y-55684846D01*
X127321428Y-55684846D02*
X127273809Y-55661037D01*
X127916666Y-55661037D02*
X127869047Y-55684846D01*
X127869047Y-55684846D02*
X127773809Y-55684846D01*
X127773809Y-55684846D02*
X127726190Y-55661037D01*
X127726190Y-55661037D02*
X127702381Y-55613417D01*
X127702381Y-55613417D02*
X127702381Y-55422941D01*
X127702381Y-55422941D02*
X127726190Y-55375322D01*
X127726190Y-55375322D02*
X127773809Y-55351513D01*
X127773809Y-55351513D02*
X127869047Y-55351513D01*
X127869047Y-55351513D02*
X127916666Y-55375322D01*
X127916666Y-55375322D02*
X127940476Y-55422941D01*
X127940476Y-55422941D02*
X127940476Y-55470560D01*
X127940476Y-55470560D02*
X127702381Y-55518179D01*
X128154761Y-55684846D02*
X128154761Y-55351513D01*
X128154761Y-55446751D02*
X128178571Y-55399132D01*
X128178571Y-55399132D02*
X128202380Y-55375322D01*
X128202380Y-55375322D02*
X128249999Y-55351513D01*
X128249999Y-55351513D02*
X128297618Y-55351513D01*
X116641051Y-70011900D02*
X116664860Y-69940472D01*
X116664860Y-69940472D02*
X116664860Y-69821424D01*
X116664860Y-69821424D02*
X116641051Y-69773805D01*
X116641051Y-69773805D02*
X116617241Y-69749996D01*
X116617241Y-69749996D02*
X116569622Y-69726186D01*
X116569622Y-69726186D02*
X116522003Y-69726186D01*
X116522003Y-69726186D02*
X116474384Y-69749996D01*
X116474384Y-69749996D02*
X116450574Y-69773805D01*
X116450574Y-69773805D02*
X116426765Y-69821424D01*
X116426765Y-69821424D02*
X116402955Y-69916662D01*
X116402955Y-69916662D02*
X116379146Y-69964281D01*
X116379146Y-69964281D02*
X116355336Y-69988091D01*
X116355336Y-69988091D02*
X116307717Y-70011900D01*
X116307717Y-70011900D02*
X116260098Y-70011900D01*
X116260098Y-70011900D02*
X116212479Y-69988091D01*
X116212479Y-69988091D02*
X116188670Y-69964281D01*
X116188670Y-69964281D02*
X116164860Y-69916662D01*
X116164860Y-69916662D02*
X116164860Y-69797615D01*
X116164860Y-69797615D02*
X116188670Y-69726186D01*
X116164860Y-69511901D02*
X116569622Y-69511901D01*
X116569622Y-69511901D02*
X116617241Y-69488091D01*
X116617241Y-69488091D02*
X116641051Y-69464282D01*
X116641051Y-69464282D02*
X116664860Y-69416663D01*
X116664860Y-69416663D02*
X116664860Y-69321425D01*
X116664860Y-69321425D02*
X116641051Y-69273806D01*
X116641051Y-69273806D02*
X116617241Y-69249996D01*
X116617241Y-69249996D02*
X116569622Y-69226187D01*
X116569622Y-69226187D02*
X116164860Y-69226187D01*
X116641051Y-69011900D02*
X116664860Y-68940472D01*
X116664860Y-68940472D02*
X116664860Y-68821424D01*
X116664860Y-68821424D02*
X116641051Y-68773805D01*
X116641051Y-68773805D02*
X116617241Y-68749996D01*
X116617241Y-68749996D02*
X116569622Y-68726186D01*
X116569622Y-68726186D02*
X116522003Y-68726186D01*
X116522003Y-68726186D02*
X116474384Y-68749996D01*
X116474384Y-68749996D02*
X116450574Y-68773805D01*
X116450574Y-68773805D02*
X116426765Y-68821424D01*
X116426765Y-68821424D02*
X116402955Y-68916662D01*
X116402955Y-68916662D02*
X116379146Y-68964281D01*
X116379146Y-68964281D02*
X116355336Y-68988091D01*
X116355336Y-68988091D02*
X116307717Y-69011900D01*
X116307717Y-69011900D02*
X116260098Y-69011900D01*
X116260098Y-69011900D02*
X116212479Y-68988091D01*
X116212479Y-68988091D02*
X116188670Y-68964281D01*
X116188670Y-68964281D02*
X116164860Y-68916662D01*
X116164860Y-68916662D02*
X116164860Y-68797615D01*
X116164860Y-68797615D02*
X116188670Y-68726186D01*
X116026051Y-70057139D02*
X116026051Y-68680949D01*
X116164860Y-67440473D02*
X116164860Y-67154759D01*
X116664860Y-67297616D02*
X116164860Y-67297616D01*
X116664860Y-67035712D02*
X116331527Y-66773807D01*
X116331527Y-67035712D02*
X116664860Y-66773807D01*
X116664860Y-66583331D02*
X116164860Y-66583331D01*
X116164860Y-66583331D02*
X116164860Y-66464283D01*
X116164860Y-66464283D02*
X116188670Y-66392855D01*
X116188670Y-66392855D02*
X116236289Y-66345236D01*
X116236289Y-66345236D02*
X116283908Y-66321426D01*
X116283908Y-66321426D02*
X116379146Y-66297617D01*
X116379146Y-66297617D02*
X116450574Y-66297617D01*
X116450574Y-66297617D02*
X116545812Y-66321426D01*
X116545812Y-66321426D02*
X116593431Y-66345236D01*
X116593431Y-66345236D02*
X116641051Y-66392855D01*
X116641051Y-66392855D02*
X116664860Y-66464283D01*
X116664860Y-66464283D02*
X116664860Y-66583331D01*
X116664860Y-64273809D02*
X116426765Y-64440475D01*
X116664860Y-64559523D02*
X116164860Y-64559523D01*
X116164860Y-64559523D02*
X116164860Y-64369047D01*
X116164860Y-64369047D02*
X116188670Y-64321428D01*
X116188670Y-64321428D02*
X116212479Y-64297618D01*
X116212479Y-64297618D02*
X116260098Y-64273809D01*
X116260098Y-64273809D02*
X116331527Y-64273809D01*
X116331527Y-64273809D02*
X116379146Y-64297618D01*
X116379146Y-64297618D02*
X116402955Y-64321428D01*
X116402955Y-64321428D02*
X116426765Y-64369047D01*
X116426765Y-64369047D02*
X116426765Y-64559523D01*
X116664860Y-64107142D02*
X116331527Y-63845237D01*
X116331527Y-64107142D02*
X116664860Y-63845237D01*
X116664860Y-63654761D02*
X116164860Y-63654761D01*
X116164860Y-63654761D02*
X116164860Y-63535713D01*
X116164860Y-63535713D02*
X116188670Y-63464285D01*
X116188670Y-63464285D02*
X116236289Y-63416666D01*
X116236289Y-63416666D02*
X116283908Y-63392856D01*
X116283908Y-63392856D02*
X116379146Y-63369047D01*
X116379146Y-63369047D02*
X116450574Y-63369047D01*
X116450574Y-63369047D02*
X116545812Y-63392856D01*
X116545812Y-63392856D02*
X116593431Y-63416666D01*
X116593431Y-63416666D02*
X116641051Y-63464285D01*
X116641051Y-63464285D02*
X116664860Y-63535713D01*
X116664860Y-63535713D02*
X116664860Y-63654761D01*
X116188670Y-61750000D02*
X116164860Y-61797619D01*
X116164860Y-61797619D02*
X116164860Y-61869048D01*
X116164860Y-61869048D02*
X116188670Y-61940476D01*
X116188670Y-61940476D02*
X116236289Y-61988095D01*
X116236289Y-61988095D02*
X116283908Y-62011905D01*
X116283908Y-62011905D02*
X116379146Y-62035714D01*
X116379146Y-62035714D02*
X116450574Y-62035714D01*
X116450574Y-62035714D02*
X116545812Y-62011905D01*
X116545812Y-62011905D02*
X116593431Y-61988095D01*
X116593431Y-61988095D02*
X116641051Y-61940476D01*
X116641051Y-61940476D02*
X116664860Y-61869048D01*
X116664860Y-61869048D02*
X116664860Y-61821429D01*
X116664860Y-61821429D02*
X116641051Y-61750000D01*
X116641051Y-61750000D02*
X116617241Y-61726191D01*
X116617241Y-61726191D02*
X116450574Y-61726191D01*
X116450574Y-61726191D02*
X116450574Y-61821429D01*
X116664860Y-61511905D02*
X116164860Y-61511905D01*
X116164860Y-61511905D02*
X116664860Y-61226191D01*
X116664860Y-61226191D02*
X116164860Y-61226191D01*
X116664860Y-60988095D02*
X116164860Y-60988095D01*
X116164860Y-60988095D02*
X116164860Y-60869047D01*
X116164860Y-60869047D02*
X116188670Y-60797619D01*
X116188670Y-60797619D02*
X116236289Y-60750000D01*
X116236289Y-60750000D02*
X116283908Y-60726190D01*
X116283908Y-60726190D02*
X116379146Y-60702381D01*
X116379146Y-60702381D02*
X116450574Y-60702381D01*
X116450574Y-60702381D02*
X116545812Y-60726190D01*
X116545812Y-60726190D02*
X116593431Y-60750000D01*
X116593431Y-60750000D02*
X116641051Y-60797619D01*
X116641051Y-60797619D02*
X116664860Y-60869047D01*
X116664860Y-60869047D02*
X116664860Y-60988095D01*
X116164860Y-59107144D02*
X116164860Y-59345239D01*
X116164860Y-59345239D02*
X116402955Y-59369048D01*
X116402955Y-59369048D02*
X116379146Y-59345239D01*
X116379146Y-59345239D02*
X116355336Y-59297620D01*
X116355336Y-59297620D02*
X116355336Y-59178572D01*
X116355336Y-59178572D02*
X116379146Y-59130953D01*
X116379146Y-59130953D02*
X116402955Y-59107144D01*
X116402955Y-59107144D02*
X116450574Y-59083334D01*
X116450574Y-59083334D02*
X116569622Y-59083334D01*
X116569622Y-59083334D02*
X116617241Y-59107144D01*
X116617241Y-59107144D02*
X116641051Y-59130953D01*
X116641051Y-59130953D02*
X116664860Y-59178572D01*
X116664860Y-59178572D02*
X116664860Y-59297620D01*
X116664860Y-59297620D02*
X116641051Y-59345239D01*
X116641051Y-59345239D02*
X116617241Y-59369048D01*
X116164860Y-58940477D02*
X116664860Y-58773811D01*
X116664860Y-58773811D02*
X116164860Y-58607144D01*
X116664860Y-57297622D02*
X116164860Y-57297622D01*
X116164860Y-57297622D02*
X116664860Y-57011908D01*
X116664860Y-57011908D02*
X116164860Y-57011908D01*
X116617241Y-56488098D02*
X116641051Y-56511907D01*
X116641051Y-56511907D02*
X116664860Y-56583336D01*
X116664860Y-56583336D02*
X116664860Y-56630955D01*
X116664860Y-56630955D02*
X116641051Y-56702383D01*
X116641051Y-56702383D02*
X116593431Y-56750002D01*
X116593431Y-56750002D02*
X116545812Y-56773812D01*
X116545812Y-56773812D02*
X116450574Y-56797621D01*
X116450574Y-56797621D02*
X116379146Y-56797621D01*
X116379146Y-56797621D02*
X116283908Y-56773812D01*
X116283908Y-56773812D02*
X116236289Y-56750002D01*
X116236289Y-56750002D02*
X116188670Y-56702383D01*
X116188670Y-56702383D02*
X116164860Y-56630955D01*
X116164860Y-56630955D02*
X116164860Y-56583336D01*
X116164860Y-56583336D02*
X116188670Y-56511907D01*
X116188670Y-56511907D02*
X116212479Y-56488098D01*
X116969832Y-63880952D02*
X117374594Y-63880952D01*
X117374594Y-63880952D02*
X117422213Y-63857142D01*
X117422213Y-63857142D02*
X117446023Y-63833333D01*
X117446023Y-63833333D02*
X117469832Y-63785714D01*
X117469832Y-63785714D02*
X117469832Y-63690476D01*
X117469832Y-63690476D02*
X117446023Y-63642857D01*
X117446023Y-63642857D02*
X117422213Y-63619047D01*
X117422213Y-63619047D02*
X117374594Y-63595238D01*
X117374594Y-63595238D02*
X116969832Y-63595238D01*
X117446023Y-63380951D02*
X117469832Y-63309523D01*
X117469832Y-63309523D02*
X117469832Y-63190475D01*
X117469832Y-63190475D02*
X117446023Y-63142856D01*
X117446023Y-63142856D02*
X117422213Y-63119047D01*
X117422213Y-63119047D02*
X117374594Y-63095237D01*
X117374594Y-63095237D02*
X117326975Y-63095237D01*
X117326975Y-63095237D02*
X117279356Y-63119047D01*
X117279356Y-63119047D02*
X117255546Y-63142856D01*
X117255546Y-63142856D02*
X117231737Y-63190475D01*
X117231737Y-63190475D02*
X117207927Y-63285713D01*
X117207927Y-63285713D02*
X117184118Y-63333332D01*
X117184118Y-63333332D02*
X117160308Y-63357142D01*
X117160308Y-63357142D02*
X117112689Y-63380951D01*
X117112689Y-63380951D02*
X117065070Y-63380951D01*
X117065070Y-63380951D02*
X117017451Y-63357142D01*
X117017451Y-63357142D02*
X116993642Y-63333332D01*
X116993642Y-63333332D02*
X116969832Y-63285713D01*
X116969832Y-63285713D02*
X116969832Y-63166666D01*
X116969832Y-63166666D02*
X116993642Y-63095237D01*
X117207927Y-62714285D02*
X117231737Y-62642857D01*
X117231737Y-62642857D02*
X117255546Y-62619047D01*
X117255546Y-62619047D02*
X117303165Y-62595238D01*
X117303165Y-62595238D02*
X117374594Y-62595238D01*
X117374594Y-62595238D02*
X117422213Y-62619047D01*
X117422213Y-62619047D02*
X117446023Y-62642857D01*
X117446023Y-62642857D02*
X117469832Y-62690476D01*
X117469832Y-62690476D02*
X117469832Y-62880952D01*
X117469832Y-62880952D02*
X116969832Y-62880952D01*
X116969832Y-62880952D02*
X116969832Y-62714285D01*
X116969832Y-62714285D02*
X116993642Y-62666666D01*
X116993642Y-62666666D02*
X117017451Y-62642857D01*
X117017451Y-62642857D02*
X117065070Y-62619047D01*
X117065070Y-62619047D02*
X117112689Y-62619047D01*
X117112689Y-62619047D02*
X117160308Y-62642857D01*
X117160308Y-62642857D02*
X117184118Y-62666666D01*
X117184118Y-62666666D02*
X117207927Y-62714285D01*
X117207927Y-62714285D02*
X117207927Y-62880952D01*
X127691179Y-70698860D02*
X127691179Y-71103622D01*
X127691179Y-71103622D02*
X127715369Y-71151241D01*
X127715369Y-71151241D02*
X127739560Y-71175051D01*
X127739560Y-71175051D02*
X127787941Y-71198860D01*
X127787941Y-71198860D02*
X127884703Y-71198860D01*
X127884703Y-71198860D02*
X127933084Y-71175051D01*
X127933084Y-71175051D02*
X127957274Y-71151241D01*
X127957274Y-71151241D02*
X127981465Y-71103622D01*
X127981465Y-71103622D02*
X127981465Y-70698860D01*
X128199178Y-71175051D02*
X128271750Y-71198860D01*
X128271750Y-71198860D02*
X128392702Y-71198860D01*
X128392702Y-71198860D02*
X128441083Y-71175051D01*
X128441083Y-71175051D02*
X128465274Y-71151241D01*
X128465274Y-71151241D02*
X128489464Y-71103622D01*
X128489464Y-71103622D02*
X128489464Y-71056003D01*
X128489464Y-71056003D02*
X128465274Y-71008384D01*
X128465274Y-71008384D02*
X128441083Y-70984574D01*
X128441083Y-70984574D02*
X128392702Y-70960765D01*
X128392702Y-70960765D02*
X128295940Y-70936955D01*
X128295940Y-70936955D02*
X128247559Y-70913146D01*
X128247559Y-70913146D02*
X128223369Y-70889336D01*
X128223369Y-70889336D02*
X128199178Y-70841717D01*
X128199178Y-70841717D02*
X128199178Y-70794098D01*
X128199178Y-70794098D02*
X128223369Y-70746479D01*
X128223369Y-70746479D02*
X128247559Y-70722670D01*
X128247559Y-70722670D02*
X128295940Y-70698860D01*
X128295940Y-70698860D02*
X128416893Y-70698860D01*
X128416893Y-70698860D02*
X128489464Y-70722670D01*
X128682988Y-71056003D02*
X128924893Y-71056003D01*
X128634607Y-71198860D02*
X128803941Y-70698860D01*
X128803941Y-70698860D02*
X128973274Y-71198860D01*
X129432894Y-71198860D02*
X129263560Y-70960765D01*
X129142608Y-71198860D02*
X129142608Y-70698860D01*
X129142608Y-70698860D02*
X129336132Y-70698860D01*
X129336132Y-70698860D02*
X129384513Y-70722670D01*
X129384513Y-70722670D02*
X129408703Y-70746479D01*
X129408703Y-70746479D02*
X129432894Y-70794098D01*
X129432894Y-70794098D02*
X129432894Y-70865527D01*
X129432894Y-70865527D02*
X129408703Y-70913146D01*
X129408703Y-70913146D02*
X129384513Y-70936955D01*
X129384513Y-70936955D02*
X129336132Y-70960765D01*
X129336132Y-70960765D02*
X129142608Y-70960765D01*
X129578036Y-70698860D02*
X129868322Y-70698860D01*
X129723179Y-71198860D02*
X129723179Y-70698860D01*
X130134418Y-70698860D02*
X130182799Y-70698860D01*
X130182799Y-70698860D02*
X130231180Y-70722670D01*
X130231180Y-70722670D02*
X130255370Y-70746479D01*
X130255370Y-70746479D02*
X130279561Y-70794098D01*
X130279561Y-70794098D02*
X130303751Y-70889336D01*
X130303751Y-70889336D02*
X130303751Y-71008384D01*
X130303751Y-71008384D02*
X130279561Y-71103622D01*
X130279561Y-71103622D02*
X130255370Y-71151241D01*
X130255370Y-71151241D02*
X130231180Y-71175051D01*
X130231180Y-71175051D02*
X130182799Y-71198860D01*
X130182799Y-71198860D02*
X130134418Y-71198860D01*
X130134418Y-71198860D02*
X130086037Y-71175051D01*
X130086037Y-71175051D02*
X130061846Y-71151241D01*
X130061846Y-71151241D02*
X130037656Y-71103622D01*
X130037656Y-71103622D02*
X130013465Y-71008384D01*
X130013465Y-71008384D02*
X130013465Y-70889336D01*
X130013465Y-70889336D02*
X130037656Y-70794098D01*
X130037656Y-70794098D02*
X130061846Y-70746479D01*
X130061846Y-70746479D02*
X130086037Y-70722670D01*
X130086037Y-70722670D02*
X130134418Y-70698860D01*
X147938626Y-70698860D02*
X147938626Y-71103622D01*
X147938626Y-71103622D02*
X147962816Y-71151241D01*
X147962816Y-71151241D02*
X147987007Y-71175051D01*
X147987007Y-71175051D02*
X148035388Y-71198860D01*
X148035388Y-71198860D02*
X148132150Y-71198860D01*
X148132150Y-71198860D02*
X148180531Y-71175051D01*
X148180531Y-71175051D02*
X148204721Y-71151241D01*
X148204721Y-71151241D02*
X148228912Y-71103622D01*
X148228912Y-71103622D02*
X148228912Y-70698860D01*
X148446625Y-71175051D02*
X148519197Y-71198860D01*
X148519197Y-71198860D02*
X148640149Y-71198860D01*
X148640149Y-71198860D02*
X148688530Y-71175051D01*
X148688530Y-71175051D02*
X148712721Y-71151241D01*
X148712721Y-71151241D02*
X148736911Y-71103622D01*
X148736911Y-71103622D02*
X148736911Y-71056003D01*
X148736911Y-71056003D02*
X148712721Y-71008384D01*
X148712721Y-71008384D02*
X148688530Y-70984574D01*
X148688530Y-70984574D02*
X148640149Y-70960765D01*
X148640149Y-70960765D02*
X148543387Y-70936955D01*
X148543387Y-70936955D02*
X148495006Y-70913146D01*
X148495006Y-70913146D02*
X148470816Y-70889336D01*
X148470816Y-70889336D02*
X148446625Y-70841717D01*
X148446625Y-70841717D02*
X148446625Y-70794098D01*
X148446625Y-70794098D02*
X148470816Y-70746479D01*
X148470816Y-70746479D02*
X148495006Y-70722670D01*
X148495006Y-70722670D02*
X148543387Y-70698860D01*
X148543387Y-70698860D02*
X148664340Y-70698860D01*
X148664340Y-70698860D02*
X148736911Y-70722670D01*
X148930435Y-71056003D02*
X149172340Y-71056003D01*
X148882054Y-71198860D02*
X149051388Y-70698860D01*
X149051388Y-70698860D02*
X149220721Y-71198860D01*
X149680341Y-71198860D02*
X149511007Y-70960765D01*
X149390055Y-71198860D02*
X149390055Y-70698860D01*
X149390055Y-70698860D02*
X149583579Y-70698860D01*
X149583579Y-70698860D02*
X149631960Y-70722670D01*
X149631960Y-70722670D02*
X149656150Y-70746479D01*
X149656150Y-70746479D02*
X149680341Y-70794098D01*
X149680341Y-70794098D02*
X149680341Y-70865527D01*
X149680341Y-70865527D02*
X149656150Y-70913146D01*
X149656150Y-70913146D02*
X149631960Y-70936955D01*
X149631960Y-70936955D02*
X149583579Y-70960765D01*
X149583579Y-70960765D02*
X149390055Y-70960765D01*
X149825483Y-70698860D02*
X150115769Y-70698860D01*
X149970626Y-71198860D02*
X149970626Y-70698860D01*
X150551198Y-71198860D02*
X150260912Y-71198860D01*
X150406055Y-71198860D02*
X150406055Y-70698860D01*
X150406055Y-70698860D02*
X150357674Y-70770289D01*
X150357674Y-70770289D02*
X150309293Y-70817908D01*
X150309293Y-70817908D02*
X150260912Y-70841717D01*
X126844511Y-71503832D02*
X127134797Y-71503832D01*
X126989654Y-72003832D02*
X126989654Y-71503832D01*
X127255750Y-72003832D02*
X127521845Y-71670499D01*
X127255750Y-71670499D02*
X127521845Y-72003832D01*
X127715369Y-72003832D02*
X127715369Y-71503832D01*
X127715369Y-71503832D02*
X127836321Y-71503832D01*
X127836321Y-71503832D02*
X127908893Y-71527642D01*
X127908893Y-71527642D02*
X127957274Y-71575261D01*
X127957274Y-71575261D02*
X127981464Y-71622880D01*
X127981464Y-71622880D02*
X128005655Y-71718118D01*
X128005655Y-71718118D02*
X128005655Y-71789546D01*
X128005655Y-71789546D02*
X127981464Y-71884784D01*
X127981464Y-71884784D02*
X127957274Y-71932403D01*
X127957274Y-71932403D02*
X127908893Y-71980023D01*
X127908893Y-71980023D02*
X127836321Y-72003832D01*
X127836321Y-72003832D02*
X127715369Y-72003832D01*
X128320131Y-71503832D02*
X128368512Y-71503832D01*
X128368512Y-71503832D02*
X128416893Y-71527642D01*
X128416893Y-71527642D02*
X128441083Y-71551451D01*
X128441083Y-71551451D02*
X128465274Y-71599070D01*
X128465274Y-71599070D02*
X128489464Y-71694308D01*
X128489464Y-71694308D02*
X128489464Y-71813356D01*
X128489464Y-71813356D02*
X128465274Y-71908594D01*
X128465274Y-71908594D02*
X128441083Y-71956213D01*
X128441083Y-71956213D02*
X128416893Y-71980023D01*
X128416893Y-71980023D02*
X128368512Y-72003832D01*
X128368512Y-72003832D02*
X128320131Y-72003832D01*
X128320131Y-72003832D02*
X128271750Y-71980023D01*
X128271750Y-71980023D02*
X128247559Y-71956213D01*
X128247559Y-71956213D02*
X128223369Y-71908594D01*
X128223369Y-71908594D02*
X128199178Y-71813356D01*
X128199178Y-71813356D02*
X128199178Y-71694308D01*
X128199178Y-71694308D02*
X128223369Y-71599070D01*
X128223369Y-71599070D02*
X128247559Y-71551451D01*
X128247559Y-71551451D02*
X128271750Y-71527642D01*
X128271750Y-71527642D02*
X128320131Y-71503832D01*
X129771561Y-72003832D02*
X129602227Y-71765737D01*
X129481275Y-72003832D02*
X129481275Y-71503832D01*
X129481275Y-71503832D02*
X129674799Y-71503832D01*
X129674799Y-71503832D02*
X129723180Y-71527642D01*
X129723180Y-71527642D02*
X129747370Y-71551451D01*
X129747370Y-71551451D02*
X129771561Y-71599070D01*
X129771561Y-71599070D02*
X129771561Y-71670499D01*
X129771561Y-71670499D02*
X129747370Y-71718118D01*
X129747370Y-71718118D02*
X129723180Y-71741927D01*
X129723180Y-71741927D02*
X129674799Y-71765737D01*
X129674799Y-71765737D02*
X129481275Y-71765737D01*
X129940894Y-72003832D02*
X130206989Y-71670499D01*
X129940894Y-71670499D02*
X130206989Y-72003832D01*
X130400513Y-72003832D02*
X130400513Y-71503832D01*
X130400513Y-71503832D02*
X130521465Y-71503832D01*
X130521465Y-71503832D02*
X130594037Y-71527642D01*
X130594037Y-71527642D02*
X130642418Y-71575261D01*
X130642418Y-71575261D02*
X130666608Y-71622880D01*
X130666608Y-71622880D02*
X130690799Y-71718118D01*
X130690799Y-71718118D02*
X130690799Y-71789546D01*
X130690799Y-71789546D02*
X130666608Y-71884784D01*
X130666608Y-71884784D02*
X130642418Y-71932403D01*
X130642418Y-71932403D02*
X130594037Y-71980023D01*
X130594037Y-71980023D02*
X130521465Y-72003832D01*
X130521465Y-72003832D02*
X130400513Y-72003832D01*
X131005275Y-71503832D02*
X131053656Y-71503832D01*
X131053656Y-71503832D02*
X131102037Y-71527642D01*
X131102037Y-71527642D02*
X131126227Y-71551451D01*
X131126227Y-71551451D02*
X131150418Y-71599070D01*
X131150418Y-71599070D02*
X131174608Y-71694308D01*
X131174608Y-71694308D02*
X131174608Y-71813356D01*
X131174608Y-71813356D02*
X131150418Y-71908594D01*
X131150418Y-71908594D02*
X131126227Y-71956213D01*
X131126227Y-71956213D02*
X131102037Y-71980023D01*
X131102037Y-71980023D02*
X131053656Y-72003832D01*
X131053656Y-72003832D02*
X131005275Y-72003832D01*
X131005275Y-72003832D02*
X130956894Y-71980023D01*
X130956894Y-71980023D02*
X130932703Y-71956213D01*
X130932703Y-71956213D02*
X130908513Y-71908594D01*
X130908513Y-71908594D02*
X130884322Y-71813356D01*
X130884322Y-71813356D02*
X130884322Y-71694308D01*
X130884322Y-71694308D02*
X130908513Y-71599070D01*
X130908513Y-71599070D02*
X130932703Y-71551451D01*
X130932703Y-71551451D02*
X130956894Y-71527642D01*
X130956894Y-71527642D02*
X131005275Y-71503832D01*
X132166419Y-72003832D02*
X132166419Y-71503832D01*
X132166419Y-71503832D02*
X132359943Y-71503832D01*
X132359943Y-71503832D02*
X132408324Y-71527642D01*
X132408324Y-71527642D02*
X132432514Y-71551451D01*
X132432514Y-71551451D02*
X132456705Y-71599070D01*
X132456705Y-71599070D02*
X132456705Y-71670499D01*
X132456705Y-71670499D02*
X132432514Y-71718118D01*
X132432514Y-71718118D02*
X132408324Y-71741927D01*
X132408324Y-71741927D02*
X132359943Y-71765737D01*
X132359943Y-71765737D02*
X132166419Y-71765737D01*
X132650228Y-71860975D02*
X132892133Y-71860975D01*
X132601847Y-72003832D02*
X132771181Y-71503832D01*
X132771181Y-71503832D02*
X132940514Y-72003832D01*
X133085657Y-71551451D02*
X133109848Y-71527642D01*
X133109848Y-71527642D02*
X133158229Y-71503832D01*
X133158229Y-71503832D02*
X133279181Y-71503832D01*
X133279181Y-71503832D02*
X133327562Y-71527642D01*
X133327562Y-71527642D02*
X133351753Y-71551451D01*
X133351753Y-71551451D02*
X133375943Y-71599070D01*
X133375943Y-71599070D02*
X133375943Y-71646689D01*
X133375943Y-71646689D02*
X133351753Y-71718118D01*
X133351753Y-71718118D02*
X133061467Y-72003832D01*
X133061467Y-72003832D02*
X133375943Y-72003832D01*
X134754802Y-72003832D02*
X134754802Y-71503832D01*
X134754802Y-71503832D02*
X134948326Y-71503832D01*
X134948326Y-71503832D02*
X134996707Y-71527642D01*
X134996707Y-71527642D02*
X135020897Y-71551451D01*
X135020897Y-71551451D02*
X135045088Y-71599070D01*
X135045088Y-71599070D02*
X135045088Y-71670499D01*
X135045088Y-71670499D02*
X135020897Y-71718118D01*
X135020897Y-71718118D02*
X134996707Y-71741927D01*
X134996707Y-71741927D02*
X134948326Y-71765737D01*
X134948326Y-71765737D02*
X134754802Y-71765737D01*
X135238611Y-71860975D02*
X135480516Y-71860975D01*
X135190230Y-72003832D02*
X135359564Y-71503832D01*
X135359564Y-71503832D02*
X135528897Y-72003832D01*
X135649850Y-71503832D02*
X135964326Y-71503832D01*
X135964326Y-71503832D02*
X135794993Y-71694308D01*
X135794993Y-71694308D02*
X135867564Y-71694308D01*
X135867564Y-71694308D02*
X135915945Y-71718118D01*
X135915945Y-71718118D02*
X135940136Y-71741927D01*
X135940136Y-71741927D02*
X135964326Y-71789546D01*
X135964326Y-71789546D02*
X135964326Y-71908594D01*
X135964326Y-71908594D02*
X135940136Y-71956213D01*
X135940136Y-71956213D02*
X135915945Y-71980023D01*
X135915945Y-71980023D02*
X135867564Y-72003832D01*
X135867564Y-72003832D02*
X135722421Y-72003832D01*
X135722421Y-72003832D02*
X135674040Y-71980023D01*
X135674040Y-71980023D02*
X135649850Y-71956213D01*
X137343185Y-72003832D02*
X137343185Y-71503832D01*
X137343185Y-71503832D02*
X137512518Y-71860975D01*
X137512518Y-71860975D02*
X137681852Y-71503832D01*
X137681852Y-71503832D02*
X137681852Y-72003832D01*
X138020518Y-71503832D02*
X138117280Y-71503832D01*
X138117280Y-71503832D02*
X138165661Y-71527642D01*
X138165661Y-71527642D02*
X138214042Y-71575261D01*
X138214042Y-71575261D02*
X138238232Y-71670499D01*
X138238232Y-71670499D02*
X138238232Y-71837165D01*
X138238232Y-71837165D02*
X138214042Y-71932403D01*
X138214042Y-71932403D02*
X138165661Y-71980023D01*
X138165661Y-71980023D02*
X138117280Y-72003832D01*
X138117280Y-72003832D02*
X138020518Y-72003832D01*
X138020518Y-72003832D02*
X137972137Y-71980023D01*
X137972137Y-71980023D02*
X137923756Y-71932403D01*
X137923756Y-71932403D02*
X137899565Y-71837165D01*
X137899565Y-71837165D02*
X137899565Y-71670499D01*
X137899565Y-71670499D02*
X137923756Y-71575261D01*
X137923756Y-71575261D02*
X137972137Y-71527642D01*
X137972137Y-71527642D02*
X138020518Y-71503832D01*
X138431755Y-71980023D02*
X138504327Y-72003832D01*
X138504327Y-72003832D02*
X138625279Y-72003832D01*
X138625279Y-72003832D02*
X138673660Y-71980023D01*
X138673660Y-71980023D02*
X138697851Y-71956213D01*
X138697851Y-71956213D02*
X138722041Y-71908594D01*
X138722041Y-71908594D02*
X138722041Y-71860975D01*
X138722041Y-71860975D02*
X138697851Y-71813356D01*
X138697851Y-71813356D02*
X138673660Y-71789546D01*
X138673660Y-71789546D02*
X138625279Y-71765737D01*
X138625279Y-71765737D02*
X138528517Y-71741927D01*
X138528517Y-71741927D02*
X138480136Y-71718118D01*
X138480136Y-71718118D02*
X138455946Y-71694308D01*
X138455946Y-71694308D02*
X138431755Y-71646689D01*
X138431755Y-71646689D02*
X138431755Y-71599070D01*
X138431755Y-71599070D02*
X138455946Y-71551451D01*
X138455946Y-71551451D02*
X138480136Y-71527642D01*
X138480136Y-71527642D02*
X138528517Y-71503832D01*
X138528517Y-71503832D02*
X138649470Y-71503832D01*
X138649470Y-71503832D02*
X138722041Y-71527642D01*
X140100900Y-72003832D02*
X140100900Y-71503832D01*
X140100900Y-71503832D02*
X140270233Y-71860975D01*
X140270233Y-71860975D02*
X140439567Y-71503832D01*
X140439567Y-71503832D02*
X140439567Y-72003832D01*
X140681471Y-72003832D02*
X140681471Y-71503832D01*
X140899185Y-71980023D02*
X140971757Y-72003832D01*
X140971757Y-72003832D02*
X141092709Y-72003832D01*
X141092709Y-72003832D02*
X141141090Y-71980023D01*
X141141090Y-71980023D02*
X141165281Y-71956213D01*
X141165281Y-71956213D02*
X141189471Y-71908594D01*
X141189471Y-71908594D02*
X141189471Y-71860975D01*
X141189471Y-71860975D02*
X141165281Y-71813356D01*
X141165281Y-71813356D02*
X141141090Y-71789546D01*
X141141090Y-71789546D02*
X141092709Y-71765737D01*
X141092709Y-71765737D02*
X140995947Y-71741927D01*
X140995947Y-71741927D02*
X140947566Y-71718118D01*
X140947566Y-71718118D02*
X140923376Y-71694308D01*
X140923376Y-71694308D02*
X140899185Y-71646689D01*
X140899185Y-71646689D02*
X140899185Y-71599070D01*
X140899185Y-71599070D02*
X140923376Y-71551451D01*
X140923376Y-71551451D02*
X140947566Y-71527642D01*
X140947566Y-71527642D02*
X140995947Y-71503832D01*
X140995947Y-71503832D02*
X141116900Y-71503832D01*
X141116900Y-71503832D02*
X141189471Y-71527642D01*
X142157091Y-71980023D02*
X142229663Y-72003832D01*
X142229663Y-72003832D02*
X142350615Y-72003832D01*
X142350615Y-72003832D02*
X142398996Y-71980023D01*
X142398996Y-71980023D02*
X142423187Y-71956213D01*
X142423187Y-71956213D02*
X142447377Y-71908594D01*
X142447377Y-71908594D02*
X142447377Y-71860975D01*
X142447377Y-71860975D02*
X142423187Y-71813356D01*
X142423187Y-71813356D02*
X142398996Y-71789546D01*
X142398996Y-71789546D02*
X142350615Y-71765737D01*
X142350615Y-71765737D02*
X142253853Y-71741927D01*
X142253853Y-71741927D02*
X142205472Y-71718118D01*
X142205472Y-71718118D02*
X142181282Y-71694308D01*
X142181282Y-71694308D02*
X142157091Y-71646689D01*
X142157091Y-71646689D02*
X142157091Y-71599070D01*
X142157091Y-71599070D02*
X142181282Y-71551451D01*
X142181282Y-71551451D02*
X142205472Y-71527642D01*
X142205472Y-71527642D02*
X142253853Y-71503832D01*
X142253853Y-71503832D02*
X142374806Y-71503832D01*
X142374806Y-71503832D02*
X142447377Y-71527642D01*
X142955378Y-71956213D02*
X142931187Y-71980023D01*
X142931187Y-71980023D02*
X142858616Y-72003832D01*
X142858616Y-72003832D02*
X142810235Y-72003832D01*
X142810235Y-72003832D02*
X142737663Y-71980023D01*
X142737663Y-71980023D02*
X142689282Y-71932403D01*
X142689282Y-71932403D02*
X142665092Y-71884784D01*
X142665092Y-71884784D02*
X142640901Y-71789546D01*
X142640901Y-71789546D02*
X142640901Y-71718118D01*
X142640901Y-71718118D02*
X142665092Y-71622880D01*
X142665092Y-71622880D02*
X142689282Y-71575261D01*
X142689282Y-71575261D02*
X142737663Y-71527642D01*
X142737663Y-71527642D02*
X142810235Y-71503832D01*
X142810235Y-71503832D02*
X142858616Y-71503832D01*
X142858616Y-71503832D02*
X142931187Y-71527642D01*
X142931187Y-71527642D02*
X142955378Y-71551451D01*
X143173092Y-72003832D02*
X143173092Y-71503832D01*
X143463378Y-72003832D02*
X143245663Y-71718118D01*
X143463378Y-71503832D02*
X143173092Y-71789546D01*
X144818045Y-71980023D02*
X144890617Y-72003832D01*
X144890617Y-72003832D02*
X145011569Y-72003832D01*
X145011569Y-72003832D02*
X145059950Y-71980023D01*
X145059950Y-71980023D02*
X145084141Y-71956213D01*
X145084141Y-71956213D02*
X145108331Y-71908594D01*
X145108331Y-71908594D02*
X145108331Y-71860975D01*
X145108331Y-71860975D02*
X145084141Y-71813356D01*
X145084141Y-71813356D02*
X145059950Y-71789546D01*
X145059950Y-71789546D02*
X145011569Y-71765737D01*
X145011569Y-71765737D02*
X144914807Y-71741927D01*
X144914807Y-71741927D02*
X144866426Y-71718118D01*
X144866426Y-71718118D02*
X144842236Y-71694308D01*
X144842236Y-71694308D02*
X144818045Y-71646689D01*
X144818045Y-71646689D02*
X144818045Y-71599070D01*
X144818045Y-71599070D02*
X144842236Y-71551451D01*
X144842236Y-71551451D02*
X144866426Y-71527642D01*
X144866426Y-71527642D02*
X144914807Y-71503832D01*
X144914807Y-71503832D02*
X145035760Y-71503832D01*
X145035760Y-71503832D02*
X145108331Y-71527642D01*
X145301855Y-71980023D02*
X145374427Y-72003832D01*
X145374427Y-72003832D02*
X145495379Y-72003832D01*
X145495379Y-72003832D02*
X145543760Y-71980023D01*
X145543760Y-71980023D02*
X145567951Y-71956213D01*
X145567951Y-71956213D02*
X145592141Y-71908594D01*
X145592141Y-71908594D02*
X145592141Y-71860975D01*
X145592141Y-71860975D02*
X145567951Y-71813356D01*
X145567951Y-71813356D02*
X145543760Y-71789546D01*
X145543760Y-71789546D02*
X145495379Y-71765737D01*
X145495379Y-71765737D02*
X145398617Y-71741927D01*
X145398617Y-71741927D02*
X145350236Y-71718118D01*
X145350236Y-71718118D02*
X145326046Y-71694308D01*
X145326046Y-71694308D02*
X145301855Y-71646689D01*
X145301855Y-71646689D02*
X145301855Y-71599070D01*
X145301855Y-71599070D02*
X145326046Y-71551451D01*
X145326046Y-71551451D02*
X145350236Y-71527642D01*
X145350236Y-71527642D02*
X145398617Y-71503832D01*
X145398617Y-71503832D02*
X145519570Y-71503832D01*
X145519570Y-71503832D02*
X145592141Y-71527642D01*
X146971000Y-72003832D02*
X146971000Y-71503832D01*
X146971000Y-71503832D02*
X147091952Y-71503832D01*
X147091952Y-71503832D02*
X147164524Y-71527642D01*
X147164524Y-71527642D02*
X147212905Y-71575261D01*
X147212905Y-71575261D02*
X147237095Y-71622880D01*
X147237095Y-71622880D02*
X147261286Y-71718118D01*
X147261286Y-71718118D02*
X147261286Y-71789546D01*
X147261286Y-71789546D02*
X147237095Y-71884784D01*
X147237095Y-71884784D02*
X147212905Y-71932403D01*
X147212905Y-71932403D02*
X147164524Y-71980023D01*
X147164524Y-71980023D02*
X147091952Y-72003832D01*
X147091952Y-72003832D02*
X146971000Y-72003832D01*
X147479000Y-72003832D02*
X147479000Y-71503832D01*
X147720905Y-72003832D02*
X147720905Y-71503832D01*
X147720905Y-71503832D02*
X148011191Y-72003832D01*
X148011191Y-72003832D02*
X148011191Y-71503832D01*
X149027191Y-72003832D02*
X149027191Y-71503832D01*
X149027191Y-71503832D02*
X149148143Y-71503832D01*
X149148143Y-71503832D02*
X149220715Y-71527642D01*
X149220715Y-71527642D02*
X149269096Y-71575261D01*
X149269096Y-71575261D02*
X149293286Y-71622880D01*
X149293286Y-71622880D02*
X149317477Y-71718118D01*
X149317477Y-71718118D02*
X149317477Y-71789546D01*
X149317477Y-71789546D02*
X149293286Y-71884784D01*
X149293286Y-71884784D02*
X149269096Y-71932403D01*
X149269096Y-71932403D02*
X149220715Y-71980023D01*
X149220715Y-71980023D02*
X149148143Y-72003832D01*
X149148143Y-72003832D02*
X149027191Y-72003832D01*
X149631953Y-71503832D02*
X149728715Y-71503832D01*
X149728715Y-71503832D02*
X149777096Y-71527642D01*
X149777096Y-71527642D02*
X149825477Y-71575261D01*
X149825477Y-71575261D02*
X149849667Y-71670499D01*
X149849667Y-71670499D02*
X149849667Y-71837165D01*
X149849667Y-71837165D02*
X149825477Y-71932403D01*
X149825477Y-71932403D02*
X149777096Y-71980023D01*
X149777096Y-71980023D02*
X149728715Y-72003832D01*
X149728715Y-72003832D02*
X149631953Y-72003832D01*
X149631953Y-72003832D02*
X149583572Y-71980023D01*
X149583572Y-71980023D02*
X149535191Y-71932403D01*
X149535191Y-71932403D02*
X149511000Y-71837165D01*
X149511000Y-71837165D02*
X149511000Y-71670499D01*
X149511000Y-71670499D02*
X149535191Y-71575261D01*
X149535191Y-71575261D02*
X149583572Y-71527642D01*
X149583572Y-71527642D02*
X149631953Y-71503832D01*
X150067381Y-71503832D02*
X150067381Y-71908594D01*
X150067381Y-71908594D02*
X150091571Y-71956213D01*
X150091571Y-71956213D02*
X150115762Y-71980023D01*
X150115762Y-71980023D02*
X150164143Y-72003832D01*
X150164143Y-72003832D02*
X150260905Y-72003832D01*
X150260905Y-72003832D02*
X150309286Y-71980023D01*
X150309286Y-71980023D02*
X150333476Y-71956213D01*
X150333476Y-71956213D02*
X150357667Y-71908594D01*
X150357667Y-71908594D02*
X150357667Y-71503832D01*
X150526999Y-71503832D02*
X150817285Y-71503832D01*
X150672142Y-72003832D02*
X150672142Y-71503832D01*
X151760715Y-72003832D02*
X151760715Y-71503832D01*
X151760715Y-71503832D02*
X151954239Y-71503832D01*
X151954239Y-71503832D02*
X152002620Y-71527642D01*
X152002620Y-71527642D02*
X152026810Y-71551451D01*
X152026810Y-71551451D02*
X152051001Y-71599070D01*
X152051001Y-71599070D02*
X152051001Y-71670499D01*
X152051001Y-71670499D02*
X152026810Y-71718118D01*
X152026810Y-71718118D02*
X152002620Y-71741927D01*
X152002620Y-71741927D02*
X151954239Y-71765737D01*
X151954239Y-71765737D02*
X151760715Y-71765737D01*
X152559001Y-71956213D02*
X152534810Y-71980023D01*
X152534810Y-71980023D02*
X152462239Y-72003832D01*
X152462239Y-72003832D02*
X152413858Y-72003832D01*
X152413858Y-72003832D02*
X152341286Y-71980023D01*
X152341286Y-71980023D02*
X152292905Y-71932403D01*
X152292905Y-71932403D02*
X152268715Y-71884784D01*
X152268715Y-71884784D02*
X152244524Y-71789546D01*
X152244524Y-71789546D02*
X152244524Y-71718118D01*
X152244524Y-71718118D02*
X152268715Y-71622880D01*
X152268715Y-71622880D02*
X152292905Y-71575261D01*
X152292905Y-71575261D02*
X152341286Y-71527642D01*
X152341286Y-71527642D02*
X152413858Y-71503832D01*
X152413858Y-71503832D02*
X152462239Y-71503832D01*
X152462239Y-71503832D02*
X152534810Y-71527642D01*
X152534810Y-71527642D02*
X152559001Y-71551451D01*
X152752524Y-71551451D02*
X152776715Y-71527642D01*
X152776715Y-71527642D02*
X152825096Y-71503832D01*
X152825096Y-71503832D02*
X152946048Y-71503832D01*
X152946048Y-71503832D02*
X152994429Y-71527642D01*
X152994429Y-71527642D02*
X153018620Y-71551451D01*
X153018620Y-71551451D02*
X153042810Y-71599070D01*
X153042810Y-71599070D02*
X153042810Y-71646689D01*
X153042810Y-71646689D02*
X153018620Y-71718118D01*
X153018620Y-71718118D02*
X152728334Y-72003832D01*
X152728334Y-72003832D02*
X153042810Y-72003832D01*
X154421669Y-72003832D02*
X154421669Y-71503832D01*
X154421669Y-71503832D02*
X154615193Y-71503832D01*
X154615193Y-71503832D02*
X154663574Y-71527642D01*
X154663574Y-71527642D02*
X154687764Y-71551451D01*
X154687764Y-71551451D02*
X154711955Y-71599070D01*
X154711955Y-71599070D02*
X154711955Y-71670499D01*
X154711955Y-71670499D02*
X154687764Y-71718118D01*
X154687764Y-71718118D02*
X154663574Y-71741927D01*
X154663574Y-71741927D02*
X154615193Y-71765737D01*
X154615193Y-71765737D02*
X154421669Y-71765737D01*
X155219955Y-71956213D02*
X155195764Y-71980023D01*
X155195764Y-71980023D02*
X155123193Y-72003832D01*
X155123193Y-72003832D02*
X155074812Y-72003832D01*
X155074812Y-72003832D02*
X155002240Y-71980023D01*
X155002240Y-71980023D02*
X154953859Y-71932403D01*
X154953859Y-71932403D02*
X154929669Y-71884784D01*
X154929669Y-71884784D02*
X154905478Y-71789546D01*
X154905478Y-71789546D02*
X154905478Y-71718118D01*
X154905478Y-71718118D02*
X154929669Y-71622880D01*
X154929669Y-71622880D02*
X154953859Y-71575261D01*
X154953859Y-71575261D02*
X155002240Y-71527642D01*
X155002240Y-71527642D02*
X155074812Y-71503832D01*
X155074812Y-71503832D02*
X155123193Y-71503832D01*
X155123193Y-71503832D02*
X155195764Y-71527642D01*
X155195764Y-71527642D02*
X155219955Y-71551451D01*
X155389288Y-71503832D02*
X155703764Y-71503832D01*
X155703764Y-71503832D02*
X155534431Y-71694308D01*
X155534431Y-71694308D02*
X155607002Y-71694308D01*
X155607002Y-71694308D02*
X155655383Y-71718118D01*
X155655383Y-71718118D02*
X155679574Y-71741927D01*
X155679574Y-71741927D02*
X155703764Y-71789546D01*
X155703764Y-71789546D02*
X155703764Y-71908594D01*
X155703764Y-71908594D02*
X155679574Y-71956213D01*
X155679574Y-71956213D02*
X155655383Y-71980023D01*
X155655383Y-71980023D02*
X155607002Y-72003832D01*
X155607002Y-72003832D02*
X155461859Y-72003832D01*
X155461859Y-72003832D02*
X155413478Y-71980023D01*
X155413478Y-71980023D02*
X155389288Y-71956213D01*
X157082623Y-72003832D02*
X157082623Y-71503832D01*
X157082623Y-71503832D02*
X157276147Y-71503832D01*
X157276147Y-71503832D02*
X157324528Y-71527642D01*
X157324528Y-71527642D02*
X157348718Y-71551451D01*
X157348718Y-71551451D02*
X157372909Y-71599070D01*
X157372909Y-71599070D02*
X157372909Y-71670499D01*
X157372909Y-71670499D02*
X157348718Y-71718118D01*
X157348718Y-71718118D02*
X157324528Y-71741927D01*
X157324528Y-71741927D02*
X157276147Y-71765737D01*
X157276147Y-71765737D02*
X157082623Y-71765737D01*
X157590623Y-72003832D02*
X157590623Y-71503832D01*
X157590623Y-71503832D02*
X157711575Y-71503832D01*
X157711575Y-71503832D02*
X157784147Y-71527642D01*
X157784147Y-71527642D02*
X157832528Y-71575261D01*
X157832528Y-71575261D02*
X157856718Y-71622880D01*
X157856718Y-71622880D02*
X157880909Y-71718118D01*
X157880909Y-71718118D02*
X157880909Y-71789546D01*
X157880909Y-71789546D02*
X157856718Y-71884784D01*
X157856718Y-71884784D02*
X157832528Y-71932403D01*
X157832528Y-71932403D02*
X157784147Y-71980023D01*
X157784147Y-71980023D02*
X157711575Y-72003832D01*
X157711575Y-72003832D02*
X157590623Y-72003832D01*
X158195385Y-71503832D02*
X158243766Y-71503832D01*
X158243766Y-71503832D02*
X158292147Y-71527642D01*
X158292147Y-71527642D02*
X158316337Y-71551451D01*
X158316337Y-71551451D02*
X158340528Y-71599070D01*
X158340528Y-71599070D02*
X158364718Y-71694308D01*
X158364718Y-71694308D02*
X158364718Y-71813356D01*
X158364718Y-71813356D02*
X158340528Y-71908594D01*
X158340528Y-71908594D02*
X158316337Y-71956213D01*
X158316337Y-71956213D02*
X158292147Y-71980023D01*
X158292147Y-71980023D02*
X158243766Y-72003832D01*
X158243766Y-72003832D02*
X158195385Y-72003832D01*
X158195385Y-72003832D02*
X158147004Y-71980023D01*
X158147004Y-71980023D02*
X158122813Y-71956213D01*
X158122813Y-71956213D02*
X158098623Y-71908594D01*
X158098623Y-71908594D02*
X158074432Y-71813356D01*
X158074432Y-71813356D02*
X158074432Y-71694308D01*
X158074432Y-71694308D02*
X158098623Y-71599070D01*
X158098623Y-71599070D02*
X158122813Y-71551451D01*
X158122813Y-71551451D02*
X158147004Y-71527642D01*
X158147004Y-71527642D02*
X158195385Y-71503832D01*
X159743577Y-72003832D02*
X159743577Y-71503832D01*
X159743577Y-71503832D02*
X159937101Y-71503832D01*
X159937101Y-71503832D02*
X159985482Y-71527642D01*
X159985482Y-71527642D02*
X160009672Y-71551451D01*
X160009672Y-71551451D02*
X160033863Y-71599070D01*
X160033863Y-71599070D02*
X160033863Y-71670499D01*
X160033863Y-71670499D02*
X160009672Y-71718118D01*
X160009672Y-71718118D02*
X159985482Y-71741927D01*
X159985482Y-71741927D02*
X159937101Y-71765737D01*
X159937101Y-71765737D02*
X159743577Y-71765737D01*
X160251577Y-72003832D02*
X160251577Y-71503832D01*
X160251577Y-71503832D02*
X160372529Y-71503832D01*
X160372529Y-71503832D02*
X160445101Y-71527642D01*
X160445101Y-71527642D02*
X160493482Y-71575261D01*
X160493482Y-71575261D02*
X160517672Y-71622880D01*
X160517672Y-71622880D02*
X160541863Y-71718118D01*
X160541863Y-71718118D02*
X160541863Y-71789546D01*
X160541863Y-71789546D02*
X160517672Y-71884784D01*
X160517672Y-71884784D02*
X160493482Y-71932403D01*
X160493482Y-71932403D02*
X160445101Y-71980023D01*
X160445101Y-71980023D02*
X160372529Y-72003832D01*
X160372529Y-72003832D02*
X160251577Y-72003832D01*
X161025672Y-72003832D02*
X160735386Y-72003832D01*
X160880529Y-72003832D02*
X160880529Y-71503832D01*
X160880529Y-71503832D02*
X160832148Y-71575261D01*
X160832148Y-71575261D02*
X160783767Y-71622880D01*
X160783767Y-71622880D02*
X160735386Y-71646689D01*
X162404531Y-72003832D02*
X162404531Y-71503832D01*
X162404531Y-71503832D02*
X162598055Y-71503832D01*
X162598055Y-71503832D02*
X162646436Y-71527642D01*
X162646436Y-71527642D02*
X162670626Y-71551451D01*
X162670626Y-71551451D02*
X162694817Y-71599070D01*
X162694817Y-71599070D02*
X162694817Y-71670499D01*
X162694817Y-71670499D02*
X162670626Y-71718118D01*
X162670626Y-71718118D02*
X162646436Y-71741927D01*
X162646436Y-71741927D02*
X162598055Y-71765737D01*
X162598055Y-71765737D02*
X162404531Y-71765737D01*
X162912531Y-72003832D02*
X162912531Y-71503832D01*
X162912531Y-71503832D02*
X163033483Y-71503832D01*
X163033483Y-71503832D02*
X163106055Y-71527642D01*
X163106055Y-71527642D02*
X163154436Y-71575261D01*
X163154436Y-71575261D02*
X163178626Y-71622880D01*
X163178626Y-71622880D02*
X163202817Y-71718118D01*
X163202817Y-71718118D02*
X163202817Y-71789546D01*
X163202817Y-71789546D02*
X163178626Y-71884784D01*
X163178626Y-71884784D02*
X163154436Y-71932403D01*
X163154436Y-71932403D02*
X163106055Y-71980023D01*
X163106055Y-71980023D02*
X163033483Y-72003832D01*
X163033483Y-72003832D02*
X162912531Y-72003832D01*
X163396340Y-71551451D02*
X163420531Y-71527642D01*
X163420531Y-71527642D02*
X163468912Y-71503832D01*
X163468912Y-71503832D02*
X163589864Y-71503832D01*
X163589864Y-71503832D02*
X163638245Y-71527642D01*
X163638245Y-71527642D02*
X163662436Y-71551451D01*
X163662436Y-71551451D02*
X163686626Y-71599070D01*
X163686626Y-71599070D02*
X163686626Y-71646689D01*
X163686626Y-71646689D02*
X163662436Y-71718118D01*
X163662436Y-71718118D02*
X163372150Y-72003832D01*
X163372150Y-72003832D02*
X163686626Y-72003832D01*
X165065485Y-72003832D02*
X165065485Y-71503832D01*
X165065485Y-71503832D02*
X165259009Y-71503832D01*
X165259009Y-71503832D02*
X165307390Y-71527642D01*
X165307390Y-71527642D02*
X165331580Y-71551451D01*
X165331580Y-71551451D02*
X165355771Y-71599070D01*
X165355771Y-71599070D02*
X165355771Y-71670499D01*
X165355771Y-71670499D02*
X165331580Y-71718118D01*
X165331580Y-71718118D02*
X165307390Y-71741927D01*
X165307390Y-71741927D02*
X165259009Y-71765737D01*
X165259009Y-71765737D02*
X165065485Y-71765737D01*
X165573485Y-72003832D02*
X165573485Y-71503832D01*
X165573485Y-71503832D02*
X165694437Y-71503832D01*
X165694437Y-71503832D02*
X165767009Y-71527642D01*
X165767009Y-71527642D02*
X165815390Y-71575261D01*
X165815390Y-71575261D02*
X165839580Y-71622880D01*
X165839580Y-71622880D02*
X165863771Y-71718118D01*
X165863771Y-71718118D02*
X165863771Y-71789546D01*
X165863771Y-71789546D02*
X165839580Y-71884784D01*
X165839580Y-71884784D02*
X165815390Y-71932403D01*
X165815390Y-71932403D02*
X165767009Y-71980023D01*
X165767009Y-71980023D02*
X165694437Y-72003832D01*
X165694437Y-72003832D02*
X165573485Y-72003832D01*
X166033104Y-71503832D02*
X166347580Y-71503832D01*
X166347580Y-71503832D02*
X166178247Y-71694308D01*
X166178247Y-71694308D02*
X166250818Y-71694308D01*
X166250818Y-71694308D02*
X166299199Y-71718118D01*
X166299199Y-71718118D02*
X166323390Y-71741927D01*
X166323390Y-71741927D02*
X166347580Y-71789546D01*
X166347580Y-71789546D02*
X166347580Y-71908594D01*
X166347580Y-71908594D02*
X166323390Y-71956213D01*
X166323390Y-71956213D02*
X166299199Y-71980023D01*
X166299199Y-71980023D02*
X166250818Y-72003832D01*
X166250818Y-72003832D02*
X166105675Y-72003832D01*
X166105675Y-72003832D02*
X166057294Y-71980023D01*
X166057294Y-71980023D02*
X166033104Y-71956213D01*
X136950083Y-53956346D02*
X136950083Y-54361108D01*
X136950083Y-54361108D02*
X136974273Y-54408727D01*
X136974273Y-54408727D02*
X136998464Y-54432537D01*
X136998464Y-54432537D02*
X137046845Y-54456346D01*
X137046845Y-54456346D02*
X137143607Y-54456346D01*
X137143607Y-54456346D02*
X137191988Y-54432537D01*
X137191988Y-54432537D02*
X137216178Y-54408727D01*
X137216178Y-54408727D02*
X137240369Y-54361108D01*
X137240369Y-54361108D02*
X137240369Y-53956346D01*
X137482273Y-54456346D02*
X137482273Y-53956346D01*
X137482273Y-53956346D02*
X137675797Y-53956346D01*
X137675797Y-53956346D02*
X137724178Y-53980156D01*
X137724178Y-53980156D02*
X137748368Y-54003965D01*
X137748368Y-54003965D02*
X137772559Y-54051584D01*
X137772559Y-54051584D02*
X137772559Y-54123013D01*
X137772559Y-54123013D02*
X137748368Y-54170632D01*
X137748368Y-54170632D02*
X137724178Y-54194441D01*
X137724178Y-54194441D02*
X137675797Y-54218251D01*
X137675797Y-54218251D02*
X137482273Y-54218251D01*
X137990273Y-54456346D02*
X137990273Y-53956346D01*
X137990273Y-53956346D02*
X138111225Y-53956346D01*
X138111225Y-53956346D02*
X138183797Y-53980156D01*
X138183797Y-53980156D02*
X138232178Y-54027775D01*
X138232178Y-54027775D02*
X138256368Y-54075394D01*
X138256368Y-54075394D02*
X138280559Y-54170632D01*
X138280559Y-54170632D02*
X138280559Y-54242060D01*
X138280559Y-54242060D02*
X138256368Y-54337298D01*
X138256368Y-54337298D02*
X138232178Y-54384917D01*
X138232178Y-54384917D02*
X138183797Y-54432537D01*
X138183797Y-54432537D02*
X138111225Y-54456346D01*
X138111225Y-54456346D02*
X137990273Y-54456346D01*
X138498273Y-54456346D02*
X138498273Y-53956346D01*
X139804560Y-54456346D02*
X139635226Y-54218251D01*
X139514274Y-54456346D02*
X139514274Y-53956346D01*
X139514274Y-53956346D02*
X139707798Y-53956346D01*
X139707798Y-53956346D02*
X139756179Y-53980156D01*
X139756179Y-53980156D02*
X139780369Y-54003965D01*
X139780369Y-54003965D02*
X139804560Y-54051584D01*
X139804560Y-54051584D02*
X139804560Y-54123013D01*
X139804560Y-54123013D02*
X139780369Y-54170632D01*
X139780369Y-54170632D02*
X139756179Y-54194441D01*
X139756179Y-54194441D02*
X139707798Y-54218251D01*
X139707798Y-54218251D02*
X139514274Y-54218251D01*
X139998083Y-54432537D02*
X140070655Y-54456346D01*
X140070655Y-54456346D02*
X140191607Y-54456346D01*
X140191607Y-54456346D02*
X140239988Y-54432537D01*
X140239988Y-54432537D02*
X140264179Y-54408727D01*
X140264179Y-54408727D02*
X140288369Y-54361108D01*
X140288369Y-54361108D02*
X140288369Y-54313489D01*
X140288369Y-54313489D02*
X140264179Y-54265870D01*
X140264179Y-54265870D02*
X140239988Y-54242060D01*
X140239988Y-54242060D02*
X140191607Y-54218251D01*
X140191607Y-54218251D02*
X140094845Y-54194441D01*
X140094845Y-54194441D02*
X140046464Y-54170632D01*
X140046464Y-54170632D02*
X140022274Y-54146822D01*
X140022274Y-54146822D02*
X139998083Y-54099203D01*
X139998083Y-54099203D02*
X139998083Y-54051584D01*
X139998083Y-54051584D02*
X140022274Y-54003965D01*
X140022274Y-54003965D02*
X140046464Y-53980156D01*
X140046464Y-53980156D02*
X140094845Y-53956346D01*
X140094845Y-53956346D02*
X140215798Y-53956346D01*
X140215798Y-53956346D02*
X140288369Y-53980156D01*
X140433512Y-53956346D02*
X140723798Y-53956346D01*
X140578655Y-54456346D02*
X140578655Y-53956346D01*
X142054276Y-54456346D02*
X142054276Y-53956346D01*
X142054276Y-53956346D02*
X142247800Y-53956346D01*
X142247800Y-53956346D02*
X142296181Y-53980156D01*
X142296181Y-53980156D02*
X142320371Y-54003965D01*
X142320371Y-54003965D02*
X142344562Y-54051584D01*
X142344562Y-54051584D02*
X142344562Y-54123013D01*
X142344562Y-54123013D02*
X142320371Y-54170632D01*
X142320371Y-54170632D02*
X142296181Y-54194441D01*
X142296181Y-54194441D02*
X142247800Y-54218251D01*
X142247800Y-54218251D02*
X142054276Y-54218251D01*
X142562276Y-54456346D02*
X142562276Y-53956346D01*
X142562276Y-53956346D02*
X142683228Y-53956346D01*
X142683228Y-53956346D02*
X142755800Y-53980156D01*
X142755800Y-53980156D02*
X142804181Y-54027775D01*
X142804181Y-54027775D02*
X142828371Y-54075394D01*
X142828371Y-54075394D02*
X142852562Y-54170632D01*
X142852562Y-54170632D02*
X142852562Y-54242060D01*
X142852562Y-54242060D02*
X142828371Y-54337298D01*
X142828371Y-54337298D02*
X142804181Y-54384917D01*
X142804181Y-54384917D02*
X142755800Y-54432537D01*
X142755800Y-54432537D02*
X142683228Y-54456346D01*
X142683228Y-54456346D02*
X142562276Y-54456346D01*
X143287990Y-54123013D02*
X143287990Y-54456346D01*
X143167038Y-53932537D02*
X143046085Y-54289679D01*
X143046085Y-54289679D02*
X143360562Y-54289679D01*
X144715230Y-54456346D02*
X144715230Y-53956346D01*
X144715230Y-53956346D02*
X144908754Y-53956346D01*
X144908754Y-53956346D02*
X144957135Y-53980156D01*
X144957135Y-53980156D02*
X144981325Y-54003965D01*
X144981325Y-54003965D02*
X145005516Y-54051584D01*
X145005516Y-54051584D02*
X145005516Y-54123013D01*
X145005516Y-54123013D02*
X144981325Y-54170632D01*
X144981325Y-54170632D02*
X144957135Y-54194441D01*
X144957135Y-54194441D02*
X144908754Y-54218251D01*
X144908754Y-54218251D02*
X144715230Y-54218251D01*
X145223230Y-54456346D02*
X145223230Y-53956346D01*
X145223230Y-53956346D02*
X145344182Y-53956346D01*
X145344182Y-53956346D02*
X145416754Y-53980156D01*
X145416754Y-53980156D02*
X145465135Y-54027775D01*
X145465135Y-54027775D02*
X145489325Y-54075394D01*
X145489325Y-54075394D02*
X145513516Y-54170632D01*
X145513516Y-54170632D02*
X145513516Y-54242060D01*
X145513516Y-54242060D02*
X145489325Y-54337298D01*
X145489325Y-54337298D02*
X145465135Y-54384917D01*
X145465135Y-54384917D02*
X145416754Y-54432537D01*
X145416754Y-54432537D02*
X145344182Y-54456346D01*
X145344182Y-54456346D02*
X145223230Y-54456346D01*
X145973135Y-53956346D02*
X145731230Y-53956346D01*
X145731230Y-53956346D02*
X145707039Y-54194441D01*
X145707039Y-54194441D02*
X145731230Y-54170632D01*
X145731230Y-54170632D02*
X145779611Y-54146822D01*
X145779611Y-54146822D02*
X145900563Y-54146822D01*
X145900563Y-54146822D02*
X145948944Y-54170632D01*
X145948944Y-54170632D02*
X145973135Y-54194441D01*
X145973135Y-54194441D02*
X145997325Y-54242060D01*
X145997325Y-54242060D02*
X145997325Y-54361108D01*
X145997325Y-54361108D02*
X145973135Y-54408727D01*
X145973135Y-54408727D02*
X145948944Y-54432537D01*
X145948944Y-54432537D02*
X145900563Y-54456346D01*
X145900563Y-54456346D02*
X145779611Y-54456346D01*
X145779611Y-54456346D02*
X145731230Y-54432537D01*
X145731230Y-54432537D02*
X145707039Y-54408727D01*
X147376184Y-54456346D02*
X147376184Y-53956346D01*
X147376184Y-53956346D02*
X147569708Y-53956346D01*
X147569708Y-53956346D02*
X147618089Y-53980156D01*
X147618089Y-53980156D02*
X147642279Y-54003965D01*
X147642279Y-54003965D02*
X147666470Y-54051584D01*
X147666470Y-54051584D02*
X147666470Y-54123013D01*
X147666470Y-54123013D02*
X147642279Y-54170632D01*
X147642279Y-54170632D02*
X147618089Y-54194441D01*
X147618089Y-54194441D02*
X147569708Y-54218251D01*
X147569708Y-54218251D02*
X147376184Y-54218251D01*
X147884184Y-54456346D02*
X147884184Y-53956346D01*
X147884184Y-53956346D02*
X148005136Y-53956346D01*
X148005136Y-53956346D02*
X148077708Y-53980156D01*
X148077708Y-53980156D02*
X148126089Y-54027775D01*
X148126089Y-54027775D02*
X148150279Y-54075394D01*
X148150279Y-54075394D02*
X148174470Y-54170632D01*
X148174470Y-54170632D02*
X148174470Y-54242060D01*
X148174470Y-54242060D02*
X148150279Y-54337298D01*
X148150279Y-54337298D02*
X148126089Y-54384917D01*
X148126089Y-54384917D02*
X148077708Y-54432537D01*
X148077708Y-54432537D02*
X148005136Y-54456346D01*
X148005136Y-54456346D02*
X147884184Y-54456346D01*
X148609898Y-53956346D02*
X148513136Y-53956346D01*
X148513136Y-53956346D02*
X148464755Y-53980156D01*
X148464755Y-53980156D02*
X148440565Y-54003965D01*
X148440565Y-54003965D02*
X148392184Y-54075394D01*
X148392184Y-54075394D02*
X148367993Y-54170632D01*
X148367993Y-54170632D02*
X148367993Y-54361108D01*
X148367993Y-54361108D02*
X148392184Y-54408727D01*
X148392184Y-54408727D02*
X148416374Y-54432537D01*
X148416374Y-54432537D02*
X148464755Y-54456346D01*
X148464755Y-54456346D02*
X148561517Y-54456346D01*
X148561517Y-54456346D02*
X148609898Y-54432537D01*
X148609898Y-54432537D02*
X148634089Y-54408727D01*
X148634089Y-54408727D02*
X148658279Y-54361108D01*
X148658279Y-54361108D02*
X148658279Y-54242060D01*
X148658279Y-54242060D02*
X148634089Y-54194441D01*
X148634089Y-54194441D02*
X148609898Y-54170632D01*
X148609898Y-54170632D02*
X148561517Y-54146822D01*
X148561517Y-54146822D02*
X148464755Y-54146822D01*
X148464755Y-54146822D02*
X148416374Y-54170632D01*
X148416374Y-54170632D02*
X148392184Y-54194441D01*
X148392184Y-54194441D02*
X148367993Y-54242060D01*
X150037138Y-54456346D02*
X150037138Y-53956346D01*
X150037138Y-53956346D02*
X150230662Y-53956346D01*
X150230662Y-53956346D02*
X150279043Y-53980156D01*
X150279043Y-53980156D02*
X150303233Y-54003965D01*
X150303233Y-54003965D02*
X150327424Y-54051584D01*
X150327424Y-54051584D02*
X150327424Y-54123013D01*
X150327424Y-54123013D02*
X150303233Y-54170632D01*
X150303233Y-54170632D02*
X150279043Y-54194441D01*
X150279043Y-54194441D02*
X150230662Y-54218251D01*
X150230662Y-54218251D02*
X150037138Y-54218251D01*
X150545138Y-54456346D02*
X150545138Y-53956346D01*
X150545138Y-53956346D02*
X150666090Y-53956346D01*
X150666090Y-53956346D02*
X150738662Y-53980156D01*
X150738662Y-53980156D02*
X150787043Y-54027775D01*
X150787043Y-54027775D02*
X150811233Y-54075394D01*
X150811233Y-54075394D02*
X150835424Y-54170632D01*
X150835424Y-54170632D02*
X150835424Y-54242060D01*
X150835424Y-54242060D02*
X150811233Y-54337298D01*
X150811233Y-54337298D02*
X150787043Y-54384917D01*
X150787043Y-54384917D02*
X150738662Y-54432537D01*
X150738662Y-54432537D02*
X150666090Y-54456346D01*
X150666090Y-54456346D02*
X150545138Y-54456346D01*
X151004757Y-53956346D02*
X151343424Y-53956346D01*
X151343424Y-53956346D02*
X151125709Y-54456346D01*
X152311044Y-54456346D02*
X152311044Y-53956346D01*
X152311044Y-53956346D02*
X152504568Y-53956346D01*
X152504568Y-53956346D02*
X152552949Y-53980156D01*
X152552949Y-53980156D02*
X152577139Y-54003965D01*
X152577139Y-54003965D02*
X152601330Y-54051584D01*
X152601330Y-54051584D02*
X152601330Y-54123013D01*
X152601330Y-54123013D02*
X152577139Y-54170632D01*
X152577139Y-54170632D02*
X152552949Y-54194441D01*
X152552949Y-54194441D02*
X152504568Y-54218251D01*
X152504568Y-54218251D02*
X152311044Y-54218251D01*
X152988377Y-54194441D02*
X152819044Y-54194441D01*
X152819044Y-54456346D02*
X152819044Y-53956346D01*
X152819044Y-53956346D02*
X153060949Y-53956346D01*
X153496378Y-53956346D02*
X153254473Y-53956346D01*
X153254473Y-53956346D02*
X153230282Y-54194441D01*
X153230282Y-54194441D02*
X153254473Y-54170632D01*
X153254473Y-54170632D02*
X153302854Y-54146822D01*
X153302854Y-54146822D02*
X153423806Y-54146822D01*
X153423806Y-54146822D02*
X153472187Y-54170632D01*
X153472187Y-54170632D02*
X153496378Y-54194441D01*
X153496378Y-54194441D02*
X153520568Y-54242060D01*
X153520568Y-54242060D02*
X153520568Y-54361108D01*
X153520568Y-54361108D02*
X153496378Y-54408727D01*
X153496378Y-54408727D02*
X153472187Y-54432537D01*
X153472187Y-54432537D02*
X153423806Y-54456346D01*
X153423806Y-54456346D02*
X153302854Y-54456346D01*
X153302854Y-54456346D02*
X153254473Y-54432537D01*
X153254473Y-54432537D02*
X153230282Y-54408727D01*
X154899427Y-54456346D02*
X154899427Y-53956346D01*
X154899427Y-53956346D02*
X155092951Y-53956346D01*
X155092951Y-53956346D02*
X155141332Y-53980156D01*
X155141332Y-53980156D02*
X155165522Y-54003965D01*
X155165522Y-54003965D02*
X155189713Y-54051584D01*
X155189713Y-54051584D02*
X155189713Y-54123013D01*
X155189713Y-54123013D02*
X155165522Y-54170632D01*
X155165522Y-54170632D02*
X155141332Y-54194441D01*
X155141332Y-54194441D02*
X155092951Y-54218251D01*
X155092951Y-54218251D02*
X154899427Y-54218251D01*
X155576760Y-54194441D02*
X155407427Y-54194441D01*
X155407427Y-54456346D02*
X155407427Y-53956346D01*
X155407427Y-53956346D02*
X155649332Y-53956346D01*
X156060570Y-54123013D02*
X156060570Y-54456346D01*
X155939618Y-53932537D02*
X155818665Y-54289679D01*
X155818665Y-54289679D02*
X156133142Y-54289679D01*
X157463619Y-54432537D02*
X157536191Y-54456346D01*
X157536191Y-54456346D02*
X157657143Y-54456346D01*
X157657143Y-54456346D02*
X157705524Y-54432537D01*
X157705524Y-54432537D02*
X157729715Y-54408727D01*
X157729715Y-54408727D02*
X157753905Y-54361108D01*
X157753905Y-54361108D02*
X157753905Y-54313489D01*
X157753905Y-54313489D02*
X157729715Y-54265870D01*
X157729715Y-54265870D02*
X157705524Y-54242060D01*
X157705524Y-54242060D02*
X157657143Y-54218251D01*
X157657143Y-54218251D02*
X157560381Y-54194441D01*
X157560381Y-54194441D02*
X157512000Y-54170632D01*
X157512000Y-54170632D02*
X157487810Y-54146822D01*
X157487810Y-54146822D02*
X157463619Y-54099203D01*
X157463619Y-54099203D02*
X157463619Y-54051584D01*
X157463619Y-54051584D02*
X157487810Y-54003965D01*
X157487810Y-54003965D02*
X157512000Y-53980156D01*
X157512000Y-53980156D02*
X157560381Y-53956346D01*
X157560381Y-53956346D02*
X157681334Y-53956346D01*
X157681334Y-53956346D02*
X157753905Y-53980156D01*
X158261906Y-54408727D02*
X158237715Y-54432537D01*
X158237715Y-54432537D02*
X158165144Y-54456346D01*
X158165144Y-54456346D02*
X158116763Y-54456346D01*
X158116763Y-54456346D02*
X158044191Y-54432537D01*
X158044191Y-54432537D02*
X157995810Y-54384917D01*
X157995810Y-54384917D02*
X157971620Y-54337298D01*
X157971620Y-54337298D02*
X157947429Y-54242060D01*
X157947429Y-54242060D02*
X157947429Y-54170632D01*
X157947429Y-54170632D02*
X157971620Y-54075394D01*
X157971620Y-54075394D02*
X157995810Y-54027775D01*
X157995810Y-54027775D02*
X158044191Y-53980156D01*
X158044191Y-53980156D02*
X158116763Y-53956346D01*
X158116763Y-53956346D02*
X158165144Y-53956346D01*
X158165144Y-53956346D02*
X158237715Y-53980156D01*
X158237715Y-53980156D02*
X158261906Y-54003965D01*
X158721525Y-54456346D02*
X158479620Y-54456346D01*
X158479620Y-54456346D02*
X158479620Y-53956346D01*
X160027811Y-54432537D02*
X160100383Y-54456346D01*
X160100383Y-54456346D02*
X160221335Y-54456346D01*
X160221335Y-54456346D02*
X160269716Y-54432537D01*
X160269716Y-54432537D02*
X160293907Y-54408727D01*
X160293907Y-54408727D02*
X160318097Y-54361108D01*
X160318097Y-54361108D02*
X160318097Y-54313489D01*
X160318097Y-54313489D02*
X160293907Y-54265870D01*
X160293907Y-54265870D02*
X160269716Y-54242060D01*
X160269716Y-54242060D02*
X160221335Y-54218251D01*
X160221335Y-54218251D02*
X160124573Y-54194441D01*
X160124573Y-54194441D02*
X160076192Y-54170632D01*
X160076192Y-54170632D02*
X160052002Y-54146822D01*
X160052002Y-54146822D02*
X160027811Y-54099203D01*
X160027811Y-54099203D02*
X160027811Y-54051584D01*
X160027811Y-54051584D02*
X160052002Y-54003965D01*
X160052002Y-54003965D02*
X160076192Y-53980156D01*
X160076192Y-53980156D02*
X160124573Y-53956346D01*
X160124573Y-53956346D02*
X160245526Y-53956346D01*
X160245526Y-53956346D02*
X160318097Y-53980156D01*
X160535812Y-54456346D02*
X160535812Y-53956346D01*
X160535812Y-53956346D02*
X160656764Y-53956346D01*
X160656764Y-53956346D02*
X160729336Y-53980156D01*
X160729336Y-53980156D02*
X160777717Y-54027775D01*
X160777717Y-54027775D02*
X160801907Y-54075394D01*
X160801907Y-54075394D02*
X160826098Y-54170632D01*
X160826098Y-54170632D02*
X160826098Y-54242060D01*
X160826098Y-54242060D02*
X160801907Y-54337298D01*
X160801907Y-54337298D02*
X160777717Y-54384917D01*
X160777717Y-54384917D02*
X160729336Y-54432537D01*
X160729336Y-54432537D02*
X160656764Y-54456346D01*
X160656764Y-54456346D02*
X160535812Y-54456346D01*
X161019621Y-54313489D02*
X161261526Y-54313489D01*
X160971240Y-54456346D02*
X161140574Y-53956346D01*
X161140574Y-53956346D02*
X161309907Y-54456346D01*
X162640385Y-54456346D02*
X162640385Y-53956346D01*
X162640385Y-53956346D02*
X162833909Y-53956346D01*
X162833909Y-53956346D02*
X162882290Y-53980156D01*
X162882290Y-53980156D02*
X162906480Y-54003965D01*
X162906480Y-54003965D02*
X162930671Y-54051584D01*
X162930671Y-54051584D02*
X162930671Y-54123013D01*
X162930671Y-54123013D02*
X162906480Y-54170632D01*
X162906480Y-54170632D02*
X162882290Y-54194441D01*
X162882290Y-54194441D02*
X162833909Y-54218251D01*
X162833909Y-54218251D02*
X162640385Y-54218251D01*
X163317718Y-54194441D02*
X163148385Y-54194441D01*
X163148385Y-54456346D02*
X163148385Y-53956346D01*
X163148385Y-53956346D02*
X163390290Y-53956346D01*
X163849909Y-54456346D02*
X163559623Y-54456346D01*
X163704766Y-54456346D02*
X163704766Y-53956346D01*
X163704766Y-53956346D02*
X163656385Y-54027775D01*
X163656385Y-54027775D02*
X163608004Y-54075394D01*
X163608004Y-54075394D02*
X163559623Y-54099203D01*
X165228768Y-54456346D02*
X165228768Y-53956346D01*
X165228768Y-53956346D02*
X165422292Y-53956346D01*
X165422292Y-53956346D02*
X165470673Y-53980156D01*
X165470673Y-53980156D02*
X165494863Y-54003965D01*
X165494863Y-54003965D02*
X165519054Y-54051584D01*
X165519054Y-54051584D02*
X165519054Y-54123013D01*
X165519054Y-54123013D02*
X165494863Y-54170632D01*
X165494863Y-54170632D02*
X165470673Y-54194441D01*
X165470673Y-54194441D02*
X165422292Y-54218251D01*
X165422292Y-54218251D02*
X165228768Y-54218251D01*
X165906101Y-54194441D02*
X165736768Y-54194441D01*
X165736768Y-54456346D02*
X165736768Y-53956346D01*
X165736768Y-53956346D02*
X165978673Y-53956346D01*
X166268959Y-53956346D02*
X166317340Y-53956346D01*
X166317340Y-53956346D02*
X166365721Y-53980156D01*
X166365721Y-53980156D02*
X166389911Y-54003965D01*
X166389911Y-54003965D02*
X166414102Y-54051584D01*
X166414102Y-54051584D02*
X166438292Y-54146822D01*
X166438292Y-54146822D02*
X166438292Y-54265870D01*
X166438292Y-54265870D02*
X166414102Y-54361108D01*
X166414102Y-54361108D02*
X166389911Y-54408727D01*
X166389911Y-54408727D02*
X166365721Y-54432537D01*
X166365721Y-54432537D02*
X166317340Y-54456346D01*
X166317340Y-54456346D02*
X166268959Y-54456346D01*
X166268959Y-54456346D02*
X166220578Y-54432537D01*
X166220578Y-54432537D02*
X166196387Y-54408727D01*
X166196387Y-54408727D02*
X166172197Y-54361108D01*
X166172197Y-54361108D02*
X166148006Y-54265870D01*
X166148006Y-54265870D02*
X166148006Y-54146822D01*
X166148006Y-54146822D02*
X166172197Y-54051584D01*
X166172197Y-54051584D02*
X166196387Y-54003965D01*
X166196387Y-54003965D02*
X166220578Y-53980156D01*
X166220578Y-53980156D02*
X166268959Y-53956346D01*
X118896892Y-73926978D02*
X119138797Y-73926978D01*
X118848511Y-74072121D02*
X119017845Y-73564121D01*
X119017845Y-73564121D02*
X119187178Y-74072121D01*
X119283940Y-73564121D02*
X119574226Y-73564121D01*
X119429083Y-74072121D02*
X119429083Y-73564121D01*
X119743560Y-74072121D02*
X119743560Y-73564121D01*
X119743560Y-73564121D02*
X119912893Y-73926978D01*
X119912893Y-73926978D02*
X120082227Y-73564121D01*
X120082227Y-73564121D02*
X120082227Y-74072121D01*
X120517655Y-74047931D02*
X120469274Y-74072121D01*
X120469274Y-74072121D02*
X120372512Y-74072121D01*
X120372512Y-74072121D02*
X120324131Y-74047931D01*
X120324131Y-74047931D02*
X120299940Y-73999550D01*
X120299940Y-73999550D02*
X120299940Y-73806026D01*
X120299940Y-73806026D02*
X120324131Y-73757645D01*
X120324131Y-73757645D02*
X120372512Y-73733454D01*
X120372512Y-73733454D02*
X120469274Y-73733454D01*
X120469274Y-73733454D02*
X120517655Y-73757645D01*
X120517655Y-73757645D02*
X120541845Y-73806026D01*
X120541845Y-73806026D02*
X120541845Y-73854407D01*
X120541845Y-73854407D02*
X120299940Y-73902788D01*
X120977274Y-73733454D02*
X120977274Y-74144692D01*
X120977274Y-74144692D02*
X120953084Y-74193073D01*
X120953084Y-74193073D02*
X120928893Y-74217264D01*
X120928893Y-74217264D02*
X120880512Y-74241454D01*
X120880512Y-74241454D02*
X120807941Y-74241454D01*
X120807941Y-74241454D02*
X120759560Y-74217264D01*
X120977274Y-74047931D02*
X120928893Y-74072121D01*
X120928893Y-74072121D02*
X120832131Y-74072121D01*
X120832131Y-74072121D02*
X120783750Y-74047931D01*
X120783750Y-74047931D02*
X120759560Y-74023740D01*
X120759560Y-74023740D02*
X120735369Y-73975359D01*
X120735369Y-73975359D02*
X120735369Y-73830216D01*
X120735369Y-73830216D02*
X120759560Y-73781835D01*
X120759560Y-73781835D02*
X120783750Y-73757645D01*
X120783750Y-73757645D02*
X120832131Y-73733454D01*
X120832131Y-73733454D02*
X120928893Y-73733454D01*
X120928893Y-73733454D02*
X120977274Y-73757645D01*
X121436893Y-74072121D02*
X121436893Y-73806026D01*
X121436893Y-73806026D02*
X121412703Y-73757645D01*
X121412703Y-73757645D02*
X121364322Y-73733454D01*
X121364322Y-73733454D02*
X121267560Y-73733454D01*
X121267560Y-73733454D02*
X121219179Y-73757645D01*
X121436893Y-74047931D02*
X121388512Y-74072121D01*
X121388512Y-74072121D02*
X121267560Y-74072121D01*
X121267560Y-74072121D02*
X121219179Y-74047931D01*
X121219179Y-74047931D02*
X121194988Y-73999550D01*
X121194988Y-73999550D02*
X121194988Y-73951169D01*
X121194988Y-73951169D02*
X121219179Y-73902788D01*
X121219179Y-73902788D02*
X121267560Y-73878597D01*
X121267560Y-73878597D02*
X121388512Y-73878597D01*
X121388512Y-73878597D02*
X121436893Y-73854407D01*
X121944893Y-74072121D02*
X121654607Y-74072121D01*
X121799750Y-74072121D02*
X121799750Y-73564121D01*
X121799750Y-73564121D02*
X121751369Y-73636692D01*
X121751369Y-73636692D02*
X121702988Y-73685073D01*
X121702988Y-73685073D02*
X121654607Y-73709264D01*
X122380322Y-73564121D02*
X122283560Y-73564121D01*
X122283560Y-73564121D02*
X122235179Y-73588311D01*
X122235179Y-73588311D02*
X122210989Y-73612502D01*
X122210989Y-73612502D02*
X122162608Y-73685073D01*
X122162608Y-73685073D02*
X122138417Y-73781835D01*
X122138417Y-73781835D02*
X122138417Y-73975359D01*
X122138417Y-73975359D02*
X122162608Y-74023740D01*
X122162608Y-74023740D02*
X122186798Y-74047931D01*
X122186798Y-74047931D02*
X122235179Y-74072121D01*
X122235179Y-74072121D02*
X122331941Y-74072121D01*
X122331941Y-74072121D02*
X122380322Y-74047931D01*
X122380322Y-74047931D02*
X122404513Y-74023740D01*
X122404513Y-74023740D02*
X122428703Y-73975359D01*
X122428703Y-73975359D02*
X122428703Y-73854407D01*
X122428703Y-73854407D02*
X122404513Y-73806026D01*
X122404513Y-73806026D02*
X122380322Y-73781835D01*
X122380322Y-73781835D02*
X122331941Y-73757645D01*
X122331941Y-73757645D02*
X122235179Y-73757645D01*
X122235179Y-73757645D02*
X122186798Y-73781835D01*
X122186798Y-73781835D02*
X122162608Y-73806026D01*
X122162608Y-73806026D02*
X122138417Y-73854407D01*
X122743180Y-73564121D02*
X122791561Y-73564121D01*
X122791561Y-73564121D02*
X122839942Y-73588311D01*
X122839942Y-73588311D02*
X122864132Y-73612502D01*
X122864132Y-73612502D02*
X122888323Y-73660883D01*
X122888323Y-73660883D02*
X122912513Y-73757645D01*
X122912513Y-73757645D02*
X122912513Y-73878597D01*
X122912513Y-73878597D02*
X122888323Y-73975359D01*
X122888323Y-73975359D02*
X122864132Y-74023740D01*
X122864132Y-74023740D02*
X122839942Y-74047931D01*
X122839942Y-74047931D02*
X122791561Y-74072121D01*
X122791561Y-74072121D02*
X122743180Y-74072121D01*
X122743180Y-74072121D02*
X122694799Y-74047931D01*
X122694799Y-74047931D02*
X122670608Y-74023740D01*
X122670608Y-74023740D02*
X122646418Y-73975359D01*
X122646418Y-73975359D02*
X122622227Y-73878597D01*
X122622227Y-73878597D02*
X122622227Y-73757645D01*
X122622227Y-73757645D02*
X122646418Y-73660883D01*
X122646418Y-73660883D02*
X122670608Y-73612502D01*
X122670608Y-73612502D02*
X122694799Y-73588311D01*
X122694799Y-73588311D02*
X122743180Y-73564121D01*
X123202799Y-73781835D02*
X123154418Y-73757645D01*
X123154418Y-73757645D02*
X123130228Y-73733454D01*
X123130228Y-73733454D02*
X123106037Y-73685073D01*
X123106037Y-73685073D02*
X123106037Y-73660883D01*
X123106037Y-73660883D02*
X123130228Y-73612502D01*
X123130228Y-73612502D02*
X123154418Y-73588311D01*
X123154418Y-73588311D02*
X123202799Y-73564121D01*
X123202799Y-73564121D02*
X123299561Y-73564121D01*
X123299561Y-73564121D02*
X123347942Y-73588311D01*
X123347942Y-73588311D02*
X123372133Y-73612502D01*
X123372133Y-73612502D02*
X123396323Y-73660883D01*
X123396323Y-73660883D02*
X123396323Y-73685073D01*
X123396323Y-73685073D02*
X123372133Y-73733454D01*
X123372133Y-73733454D02*
X123347942Y-73757645D01*
X123347942Y-73757645D02*
X123299561Y-73781835D01*
X123299561Y-73781835D02*
X123202799Y-73781835D01*
X123202799Y-73781835D02*
X123154418Y-73806026D01*
X123154418Y-73806026D02*
X123130228Y-73830216D01*
X123130228Y-73830216D02*
X123106037Y-73878597D01*
X123106037Y-73878597D02*
X123106037Y-73975359D01*
X123106037Y-73975359D02*
X123130228Y-74023740D01*
X123130228Y-74023740D02*
X123154418Y-74047931D01*
X123154418Y-74047931D02*
X123202799Y-74072121D01*
X123202799Y-74072121D02*
X123299561Y-74072121D01*
X123299561Y-74072121D02*
X123347942Y-74047931D01*
X123347942Y-74047931D02*
X123372133Y-74023740D01*
X123372133Y-74023740D02*
X123396323Y-73975359D01*
X123396323Y-73975359D02*
X123396323Y-73878597D01*
X123396323Y-73878597D02*
X123372133Y-73830216D01*
X123372133Y-73830216D02*
X123347942Y-73806026D01*
X123347942Y-73806026D02*
X123299561Y-73781835D01*
X124001086Y-74072121D02*
X124001086Y-73564121D01*
X124001086Y-73564121D02*
X124122038Y-73564121D01*
X124122038Y-73564121D02*
X124194610Y-73588311D01*
X124194610Y-73588311D02*
X124242991Y-73636692D01*
X124242991Y-73636692D02*
X124267181Y-73685073D01*
X124267181Y-73685073D02*
X124291372Y-73781835D01*
X124291372Y-73781835D02*
X124291372Y-73854407D01*
X124291372Y-73854407D02*
X124267181Y-73951169D01*
X124267181Y-73951169D02*
X124242991Y-73999550D01*
X124242991Y-73999550D02*
X124194610Y-74047931D01*
X124194610Y-74047931D02*
X124122038Y-74072121D01*
X124122038Y-74072121D02*
X124001086Y-74072121D01*
X124702610Y-74047931D02*
X124654229Y-74072121D01*
X124654229Y-74072121D02*
X124557467Y-74072121D01*
X124557467Y-74072121D02*
X124509086Y-74047931D01*
X124509086Y-74047931D02*
X124484895Y-73999550D01*
X124484895Y-73999550D02*
X124484895Y-73806026D01*
X124484895Y-73806026D02*
X124509086Y-73757645D01*
X124509086Y-73757645D02*
X124557467Y-73733454D01*
X124557467Y-73733454D02*
X124654229Y-73733454D01*
X124654229Y-73733454D02*
X124702610Y-73757645D01*
X124702610Y-73757645D02*
X124726800Y-73806026D01*
X124726800Y-73806026D02*
X124726800Y-73854407D01*
X124726800Y-73854407D02*
X124484895Y-73902788D01*
X124896134Y-73733454D02*
X125017086Y-74072121D01*
X125017086Y-74072121D02*
X125138039Y-73733454D01*
X119211369Y-74889973D02*
X119042035Y-74648068D01*
X118921083Y-74889973D02*
X118921083Y-74381973D01*
X118921083Y-74381973D02*
X119114607Y-74381973D01*
X119114607Y-74381973D02*
X119162988Y-74406163D01*
X119162988Y-74406163D02*
X119187178Y-74430354D01*
X119187178Y-74430354D02*
X119211369Y-74478735D01*
X119211369Y-74478735D02*
X119211369Y-74551306D01*
X119211369Y-74551306D02*
X119187178Y-74599687D01*
X119187178Y-74599687D02*
X119162988Y-74623878D01*
X119162988Y-74623878D02*
X119114607Y-74648068D01*
X119114607Y-74648068D02*
X118921083Y-74648068D01*
X119622607Y-74865783D02*
X119574226Y-74889973D01*
X119574226Y-74889973D02*
X119477464Y-74889973D01*
X119477464Y-74889973D02*
X119429083Y-74865783D01*
X119429083Y-74865783D02*
X119404892Y-74817402D01*
X119404892Y-74817402D02*
X119404892Y-74623878D01*
X119404892Y-74623878D02*
X119429083Y-74575497D01*
X119429083Y-74575497D02*
X119477464Y-74551306D01*
X119477464Y-74551306D02*
X119574226Y-74551306D01*
X119574226Y-74551306D02*
X119622607Y-74575497D01*
X119622607Y-74575497D02*
X119646797Y-74623878D01*
X119646797Y-74623878D02*
X119646797Y-74672259D01*
X119646797Y-74672259D02*
X119404892Y-74720640D01*
X119816131Y-74551306D02*
X119937083Y-74889973D01*
X119937083Y-74889973D02*
X120058036Y-74551306D01*
X120590227Y-74381973D02*
X120904703Y-74381973D01*
X120904703Y-74381973D02*
X120735370Y-74575497D01*
X120735370Y-74575497D02*
X120807941Y-74575497D01*
X120807941Y-74575497D02*
X120856322Y-74599687D01*
X120856322Y-74599687D02*
X120880513Y-74623878D01*
X120880513Y-74623878D02*
X120904703Y-74672259D01*
X120904703Y-74672259D02*
X120904703Y-74793211D01*
X120904703Y-74793211D02*
X120880513Y-74841592D01*
X120880513Y-74841592D02*
X120856322Y-74865783D01*
X120856322Y-74865783D02*
X120807941Y-74889973D01*
X120807941Y-74889973D02*
X120662798Y-74889973D01*
X120662798Y-74889973D02*
X120614417Y-74865783D01*
X120614417Y-74865783D02*
X120590227Y-74841592D01*
X121122418Y-74841592D02*
X121146608Y-74865783D01*
X121146608Y-74865783D02*
X121122418Y-74889973D01*
X121122418Y-74889973D02*
X121098227Y-74865783D01*
X121098227Y-74865783D02*
X121122418Y-74841592D01*
X121122418Y-74841592D02*
X121122418Y-74889973D01*
X121630418Y-74889973D02*
X121340132Y-74889973D01*
X121485275Y-74889973D02*
X121485275Y-74381973D01*
X121485275Y-74381973D02*
X121436894Y-74454544D01*
X121436894Y-74454544D02*
X121388513Y-74502925D01*
X121388513Y-74502925D02*
X121340132Y-74527116D01*
X121848133Y-74841592D02*
X121872323Y-74865783D01*
X121872323Y-74865783D02*
X121848133Y-74889973D01*
X121848133Y-74889973D02*
X121823942Y-74865783D01*
X121823942Y-74865783D02*
X121848133Y-74841592D01*
X121848133Y-74841592D02*
X121848133Y-74889973D01*
X122356133Y-74889973D02*
X122065847Y-74889973D01*
X122210990Y-74889973D02*
X122210990Y-74381973D01*
X122210990Y-74381973D02*
X122162609Y-74454544D01*
X122162609Y-74454544D02*
X122114228Y-74502925D01*
X122114228Y-74502925D02*
X122065847Y-74527116D01*
X139488333Y-57205666D02*
X139464142Y-57229857D01*
X139464142Y-57229857D02*
X139391571Y-57254047D01*
X139391571Y-57254047D02*
X139343190Y-57254047D01*
X139343190Y-57254047D02*
X139270618Y-57229857D01*
X139270618Y-57229857D02*
X139222237Y-57181476D01*
X139222237Y-57181476D02*
X139198047Y-57133095D01*
X139198047Y-57133095D02*
X139173856Y-57036333D01*
X139173856Y-57036333D02*
X139173856Y-56963761D01*
X139173856Y-56963761D02*
X139198047Y-56866999D01*
X139198047Y-56866999D02*
X139222237Y-56818618D01*
X139222237Y-56818618D02*
X139270618Y-56770237D01*
X139270618Y-56770237D02*
X139343190Y-56746047D01*
X139343190Y-56746047D02*
X139391571Y-56746047D01*
X139391571Y-56746047D02*
X139464142Y-56770237D01*
X139464142Y-56770237D02*
X139488333Y-56794428D01*
X139923761Y-56746047D02*
X139826999Y-56746047D01*
X139826999Y-56746047D02*
X139778618Y-56770237D01*
X139778618Y-56770237D02*
X139754428Y-56794428D01*
X139754428Y-56794428D02*
X139706047Y-56866999D01*
X139706047Y-56866999D02*
X139681856Y-56963761D01*
X139681856Y-56963761D02*
X139681856Y-57157285D01*
X139681856Y-57157285D02*
X139706047Y-57205666D01*
X139706047Y-57205666D02*
X139730237Y-57229857D01*
X139730237Y-57229857D02*
X139778618Y-57254047D01*
X139778618Y-57254047D02*
X139875380Y-57254047D01*
X139875380Y-57254047D02*
X139923761Y-57229857D01*
X139923761Y-57229857D02*
X139947952Y-57205666D01*
X139947952Y-57205666D02*
X139972142Y-57157285D01*
X139972142Y-57157285D02*
X139972142Y-57036333D01*
X139972142Y-57036333D02*
X139947952Y-56987952D01*
X139947952Y-56987952D02*
X139923761Y-56963761D01*
X139923761Y-56963761D02*
X139875380Y-56939571D01*
X139875380Y-56939571D02*
X139778618Y-56939571D01*
X139778618Y-56939571D02*
X139730237Y-56963761D01*
X139730237Y-56963761D02*
X139706047Y-56987952D01*
X139706047Y-56987952D02*
X139681856Y-57036333D01*
X128096666Y-67637266D02*
X128120857Y-67661457D01*
X128120857Y-67661457D02*
X128145047Y-67734028D01*
X128145047Y-67734028D02*
X128145047Y-67782409D01*
X128145047Y-67782409D02*
X128120857Y-67854981D01*
X128120857Y-67854981D02*
X128072476Y-67903362D01*
X128072476Y-67903362D02*
X128024095Y-67927552D01*
X128024095Y-67927552D02*
X127927333Y-67951743D01*
X127927333Y-67951743D02*
X127854761Y-67951743D01*
X127854761Y-67951743D02*
X127757999Y-67927552D01*
X127757999Y-67927552D02*
X127709618Y-67903362D01*
X127709618Y-67903362D02*
X127661237Y-67854981D01*
X127661237Y-67854981D02*
X127637047Y-67782409D01*
X127637047Y-67782409D02*
X127637047Y-67734028D01*
X127637047Y-67734028D02*
X127661237Y-67661457D01*
X127661237Y-67661457D02*
X127685428Y-67637266D01*
X127637047Y-67177647D02*
X127637047Y-67419552D01*
X127637047Y-67419552D02*
X127878952Y-67443743D01*
X127878952Y-67443743D02*
X127854761Y-67419552D01*
X127854761Y-67419552D02*
X127830571Y-67371171D01*
X127830571Y-67371171D02*
X127830571Y-67250219D01*
X127830571Y-67250219D02*
X127854761Y-67201838D01*
X127854761Y-67201838D02*
X127878952Y-67177647D01*
X127878952Y-67177647D02*
X127927333Y-67153457D01*
X127927333Y-67153457D02*
X128048285Y-67153457D01*
X128048285Y-67153457D02*
X128096666Y-67177647D01*
X128096666Y-67177647D02*
X128120857Y-67201838D01*
X128120857Y-67201838D02*
X128145047Y-67250219D01*
X128145047Y-67250219D02*
X128145047Y-67371171D01*
X128145047Y-67371171D02*
X128120857Y-67419552D01*
X128120857Y-67419552D02*
X128096666Y-67443743D01*
X119013046Y-67434951D02*
X118505046Y-67434951D01*
X118505046Y-67434951D02*
X118505046Y-67313999D01*
X118505046Y-67313999D02*
X118529236Y-67241427D01*
X118529236Y-67241427D02*
X118577617Y-67193046D01*
X118577617Y-67193046D02*
X118625998Y-67168856D01*
X118625998Y-67168856D02*
X118722760Y-67144665D01*
X118722760Y-67144665D02*
X118795332Y-67144665D01*
X118795332Y-67144665D02*
X118892094Y-67168856D01*
X118892094Y-67168856D02*
X118940475Y-67193046D01*
X118940475Y-67193046D02*
X118988856Y-67241427D01*
X118988856Y-67241427D02*
X119013046Y-67313999D01*
X119013046Y-67313999D02*
X119013046Y-67434951D01*
X119013046Y-66660856D02*
X119013046Y-66951142D01*
X119013046Y-66805999D02*
X118505046Y-66805999D01*
X118505046Y-66805999D02*
X118577617Y-66854380D01*
X118577617Y-66854380D02*
X118625998Y-66902761D01*
X118625998Y-66902761D02*
X118650189Y-66951142D01*
X140642247Y-68931971D02*
X140400342Y-69101305D01*
X140642247Y-69222257D02*
X140134247Y-69222257D01*
X140134247Y-69222257D02*
X140134247Y-69028733D01*
X140134247Y-69028733D02*
X140158437Y-68980352D01*
X140158437Y-68980352D02*
X140182628Y-68956162D01*
X140182628Y-68956162D02*
X140231009Y-68931971D01*
X140231009Y-68931971D02*
X140303580Y-68931971D01*
X140303580Y-68931971D02*
X140351961Y-68956162D01*
X140351961Y-68956162D02*
X140376152Y-68980352D01*
X140376152Y-68980352D02*
X140400342Y-69028733D01*
X140400342Y-69028733D02*
X140400342Y-69222257D01*
X140642247Y-68448162D02*
X140642247Y-68738448D01*
X140642247Y-68593305D02*
X140134247Y-68593305D01*
X140134247Y-68593305D02*
X140206818Y-68641686D01*
X140206818Y-68641686D02*
X140255199Y-68690067D01*
X140255199Y-68690067D02*
X140279390Y-68738448D01*
X140182628Y-68254638D02*
X140158437Y-68230447D01*
X140158437Y-68230447D02*
X140134247Y-68182066D01*
X140134247Y-68182066D02*
X140134247Y-68061114D01*
X140134247Y-68061114D02*
X140158437Y-68012733D01*
X140158437Y-68012733D02*
X140182628Y-67988542D01*
X140182628Y-67988542D02*
X140231009Y-67964352D01*
X140231009Y-67964352D02*
X140279390Y-67964352D01*
X140279390Y-67964352D02*
X140351961Y-67988542D01*
X140351961Y-67988542D02*
X140642247Y-68278828D01*
X140642247Y-68278828D02*
X140642247Y-67964352D01*
X165249952Y-67049951D02*
X165249952Y-67340237D01*
X164741952Y-67195094D02*
X165249952Y-67195094D01*
X164790333Y-67799857D02*
X164766143Y-67775666D01*
X164766143Y-67775666D02*
X164741952Y-67703095D01*
X164741952Y-67703095D02*
X164741952Y-67654714D01*
X164741952Y-67654714D02*
X164766143Y-67582142D01*
X164766143Y-67582142D02*
X164814523Y-67533761D01*
X164814523Y-67533761D02*
X164862904Y-67509571D01*
X164862904Y-67509571D02*
X164959666Y-67485380D01*
X164959666Y-67485380D02*
X165032238Y-67485380D01*
X165032238Y-67485380D02*
X165129000Y-67509571D01*
X165129000Y-67509571D02*
X165177381Y-67533761D01*
X165177381Y-67533761D02*
X165225762Y-67582142D01*
X165225762Y-67582142D02*
X165249952Y-67654714D01*
X165249952Y-67654714D02*
X165249952Y-67703095D01*
X165249952Y-67703095D02*
X165225762Y-67775666D01*
X165225762Y-67775666D02*
X165201571Y-67799857D01*
X164741952Y-68283666D02*
X164741952Y-67993380D01*
X164741952Y-68138523D02*
X165249952Y-68138523D01*
X165249952Y-68138523D02*
X165177381Y-68090142D01*
X165177381Y-68090142D02*
X165129000Y-68041761D01*
X165129000Y-68041761D02*
X165104809Y-67993380D01*
X130130248Y-55019248D02*
X130130248Y-54511248D01*
X130130248Y-54511248D02*
X130251200Y-54511248D01*
X130251200Y-54511248D02*
X130323772Y-54535438D01*
X130323772Y-54535438D02*
X130372153Y-54583819D01*
X130372153Y-54583819D02*
X130396343Y-54632200D01*
X130396343Y-54632200D02*
X130420534Y-54728962D01*
X130420534Y-54728962D02*
X130420534Y-54801534D01*
X130420534Y-54801534D02*
X130396343Y-54898296D01*
X130396343Y-54898296D02*
X130372153Y-54946677D01*
X130372153Y-54946677D02*
X130323772Y-54995058D01*
X130323772Y-54995058D02*
X130251200Y-55019248D01*
X130251200Y-55019248D02*
X130130248Y-55019248D01*
X130589867Y-54511248D02*
X130904343Y-54511248D01*
X130904343Y-54511248D02*
X130735010Y-54704772D01*
X130735010Y-54704772D02*
X130807581Y-54704772D01*
X130807581Y-54704772D02*
X130855962Y-54728962D01*
X130855962Y-54728962D02*
X130880153Y-54753153D01*
X130880153Y-54753153D02*
X130904343Y-54801534D01*
X130904343Y-54801534D02*
X130904343Y-54922486D01*
X130904343Y-54922486D02*
X130880153Y-54970867D01*
X130880153Y-54970867D02*
X130855962Y-54995058D01*
X130855962Y-54995058D02*
X130807581Y-55019248D01*
X130807581Y-55019248D02*
X130662438Y-55019248D01*
X130662438Y-55019248D02*
X130614057Y-54995058D01*
X130614057Y-54995058D02*
X130589867Y-54970867D01*
X138992428Y-59286047D02*
X138823094Y-59044142D01*
X138702142Y-59286047D02*
X138702142Y-58778047D01*
X138702142Y-58778047D02*
X138895666Y-58778047D01*
X138895666Y-58778047D02*
X138944047Y-58802237D01*
X138944047Y-58802237D02*
X138968237Y-58826428D01*
X138968237Y-58826428D02*
X138992428Y-58874809D01*
X138992428Y-58874809D02*
X138992428Y-58947380D01*
X138992428Y-58947380D02*
X138968237Y-58995761D01*
X138968237Y-58995761D02*
X138944047Y-59019952D01*
X138944047Y-59019952D02*
X138895666Y-59044142D01*
X138895666Y-59044142D02*
X138702142Y-59044142D01*
X139476237Y-59286047D02*
X139185951Y-59286047D01*
X139331094Y-59286047D02*
X139331094Y-58778047D01*
X139331094Y-58778047D02*
X139282713Y-58850618D01*
X139282713Y-58850618D02*
X139234332Y-58898999D01*
X139234332Y-58898999D02*
X139185951Y-58923190D01*
X139790714Y-58778047D02*
X139839095Y-58778047D01*
X139839095Y-58778047D02*
X139887476Y-58802237D01*
X139887476Y-58802237D02*
X139911666Y-58826428D01*
X139911666Y-58826428D02*
X139935857Y-58874809D01*
X139935857Y-58874809D02*
X139960047Y-58971571D01*
X139960047Y-58971571D02*
X139960047Y-59092523D01*
X139960047Y-59092523D02*
X139935857Y-59189285D01*
X139935857Y-59189285D02*
X139911666Y-59237666D01*
X139911666Y-59237666D02*
X139887476Y-59261857D01*
X139887476Y-59261857D02*
X139839095Y-59286047D01*
X139839095Y-59286047D02*
X139790714Y-59286047D01*
X139790714Y-59286047D02*
X139742333Y-59261857D01*
X139742333Y-59261857D02*
X139718142Y-59237666D01*
X139718142Y-59237666D02*
X139693952Y-59189285D01*
X139693952Y-59189285D02*
X139669761Y-59092523D01*
X139669761Y-59092523D02*
X139669761Y-58971571D01*
X139669761Y-58971571D02*
X139693952Y-58874809D01*
X139693952Y-58874809D02*
X139718142Y-58826428D01*
X139718142Y-58826428D02*
X139742333Y-58802237D01*
X139742333Y-58802237D02*
X139790714Y-58778047D01*
X129152952Y-59159047D02*
X129152952Y-59570285D01*
X129152952Y-59570285D02*
X129177142Y-59618666D01*
X129177142Y-59618666D02*
X129201333Y-59642857D01*
X129201333Y-59642857D02*
X129249714Y-59667047D01*
X129249714Y-59667047D02*
X129346476Y-59667047D01*
X129346476Y-59667047D02*
X129394857Y-59642857D01*
X129394857Y-59642857D02*
X129419047Y-59618666D01*
X129419047Y-59618666D02*
X129443238Y-59570285D01*
X129443238Y-59570285D02*
X129443238Y-59159047D01*
X129951237Y-59667047D02*
X129660951Y-59667047D01*
X129806094Y-59667047D02*
X129806094Y-59159047D01*
X129806094Y-59159047D02*
X129757713Y-59231618D01*
X129757713Y-59231618D02*
X129709332Y-59279999D01*
X129709332Y-59279999D02*
X129660951Y-59304190D01*
X113569905Y-53956346D02*
X113331810Y-53956346D01*
X113331810Y-53956346D02*
X113308001Y-54194441D01*
X113308001Y-54194441D02*
X113331810Y-54170632D01*
X113331810Y-54170632D02*
X113379429Y-54146822D01*
X113379429Y-54146822D02*
X113498477Y-54146822D01*
X113498477Y-54146822D02*
X113546096Y-54170632D01*
X113546096Y-54170632D02*
X113569905Y-54194441D01*
X113569905Y-54194441D02*
X113593715Y-54242060D01*
X113593715Y-54242060D02*
X113593715Y-54361108D01*
X113593715Y-54361108D02*
X113569905Y-54408727D01*
X113569905Y-54408727D02*
X113546096Y-54432537D01*
X113546096Y-54432537D02*
X113498477Y-54456346D01*
X113498477Y-54456346D02*
X113379429Y-54456346D01*
X113379429Y-54456346D02*
X113331810Y-54432537D01*
X113331810Y-54432537D02*
X113308001Y-54408727D01*
X113736572Y-53956346D02*
X113903238Y-54456346D01*
X113903238Y-54456346D02*
X114069905Y-53956346D01*
X115760379Y-54456346D02*
X115760379Y-53956346D01*
X115998474Y-54456346D02*
X115998474Y-53956346D01*
X115998474Y-53956346D02*
X116284188Y-54456346D01*
X116284188Y-54456346D02*
X116284188Y-53956346D01*
X113665191Y-71355346D02*
X113974715Y-71355346D01*
X113974715Y-71355346D02*
X113808048Y-71545822D01*
X113808048Y-71545822D02*
X113879477Y-71545822D01*
X113879477Y-71545822D02*
X113927096Y-71569632D01*
X113927096Y-71569632D02*
X113950905Y-71593441D01*
X113950905Y-71593441D02*
X113974715Y-71641060D01*
X113974715Y-71641060D02*
X113974715Y-71760108D01*
X113974715Y-71760108D02*
X113950905Y-71807727D01*
X113950905Y-71807727D02*
X113927096Y-71831537D01*
X113927096Y-71831537D02*
X113879477Y-71855346D01*
X113879477Y-71855346D02*
X113736620Y-71855346D01*
X113736620Y-71855346D02*
X113689001Y-71831537D01*
X113689001Y-71831537D02*
X113665191Y-71807727D01*
X114117572Y-71355346D02*
X114284238Y-71855346D01*
X114284238Y-71855346D02*
X114450905Y-71355346D01*
X114569952Y-71355346D02*
X114879476Y-71355346D01*
X114879476Y-71355346D02*
X114712809Y-71545822D01*
X114712809Y-71545822D02*
X114784238Y-71545822D01*
X114784238Y-71545822D02*
X114831857Y-71569632D01*
X114831857Y-71569632D02*
X114855666Y-71593441D01*
X114855666Y-71593441D02*
X114879476Y-71641060D01*
X114879476Y-71641060D02*
X114879476Y-71760108D01*
X114879476Y-71760108D02*
X114855666Y-71807727D01*
X114855666Y-71807727D02*
X114831857Y-71831537D01*
X114831857Y-71831537D02*
X114784238Y-71855346D01*
X114784238Y-71855346D02*
X114641381Y-71855346D01*
X114641381Y-71855346D02*
X114593762Y-71831537D01*
X114593762Y-71831537D02*
X114569952Y-71807727D01*
X115569951Y-71355346D02*
X115665189Y-71355346D01*
X115665189Y-71355346D02*
X115712808Y-71379156D01*
X115712808Y-71379156D02*
X115760427Y-71426775D01*
X115760427Y-71426775D02*
X115784237Y-71522013D01*
X115784237Y-71522013D02*
X115784237Y-71688679D01*
X115784237Y-71688679D02*
X115760427Y-71783917D01*
X115760427Y-71783917D02*
X115712808Y-71831537D01*
X115712808Y-71831537D02*
X115665189Y-71855346D01*
X115665189Y-71855346D02*
X115569951Y-71855346D01*
X115569951Y-71855346D02*
X115522332Y-71831537D01*
X115522332Y-71831537D02*
X115474713Y-71783917D01*
X115474713Y-71783917D02*
X115450904Y-71688679D01*
X115450904Y-71688679D02*
X115450904Y-71522013D01*
X115450904Y-71522013D02*
X115474713Y-71426775D01*
X115474713Y-71426775D02*
X115522332Y-71379156D01*
X115522332Y-71379156D02*
X115569951Y-71355346D01*
X115998523Y-71355346D02*
X115998523Y-71760108D01*
X115998523Y-71760108D02*
X116022333Y-71807727D01*
X116022333Y-71807727D02*
X116046142Y-71831537D01*
X116046142Y-71831537D02*
X116093761Y-71855346D01*
X116093761Y-71855346D02*
X116188999Y-71855346D01*
X116188999Y-71855346D02*
X116236618Y-71831537D01*
X116236618Y-71831537D02*
X116260428Y-71807727D01*
X116260428Y-71807727D02*
X116284237Y-71760108D01*
X116284237Y-71760108D02*
X116284237Y-71355346D01*
X116450905Y-71355346D02*
X116736619Y-71355346D01*
X116593762Y-71855346D02*
X116593762Y-71355346D01*
X119785715Y-55727346D02*
X119785715Y-56132108D01*
X119785715Y-56132108D02*
X119809525Y-56179727D01*
X119809525Y-56179727D02*
X119833334Y-56203537D01*
X119833334Y-56203537D02*
X119880953Y-56227346D01*
X119880953Y-56227346D02*
X119976191Y-56227346D01*
X119976191Y-56227346D02*
X120023810Y-56203537D01*
X120023810Y-56203537D02*
X120047620Y-56179727D01*
X120047620Y-56179727D02*
X120071429Y-56132108D01*
X120071429Y-56132108D02*
X120071429Y-55727346D01*
X120285716Y-56203537D02*
X120357144Y-56227346D01*
X120357144Y-56227346D02*
X120476192Y-56227346D01*
X120476192Y-56227346D02*
X120523811Y-56203537D01*
X120523811Y-56203537D02*
X120547620Y-56179727D01*
X120547620Y-56179727D02*
X120571430Y-56132108D01*
X120571430Y-56132108D02*
X120571430Y-56084489D01*
X120571430Y-56084489D02*
X120547620Y-56036870D01*
X120547620Y-56036870D02*
X120523811Y-56013060D01*
X120523811Y-56013060D02*
X120476192Y-55989251D01*
X120476192Y-55989251D02*
X120380954Y-55965441D01*
X120380954Y-55965441D02*
X120333335Y-55941632D01*
X120333335Y-55941632D02*
X120309525Y-55917822D01*
X120309525Y-55917822D02*
X120285716Y-55870203D01*
X120285716Y-55870203D02*
X120285716Y-55822584D01*
X120285716Y-55822584D02*
X120309525Y-55774965D01*
X120309525Y-55774965D02*
X120333335Y-55751156D01*
X120333335Y-55751156D02*
X120380954Y-55727346D01*
X120380954Y-55727346D02*
X120500001Y-55727346D01*
X120500001Y-55727346D02*
X120571430Y-55751156D01*
X120952382Y-55965441D02*
X121023810Y-55989251D01*
X121023810Y-55989251D02*
X121047620Y-56013060D01*
X121047620Y-56013060D02*
X121071429Y-56060679D01*
X121071429Y-56060679D02*
X121071429Y-56132108D01*
X121071429Y-56132108D02*
X121047620Y-56179727D01*
X121047620Y-56179727D02*
X121023810Y-56203537D01*
X121023810Y-56203537D02*
X120976191Y-56227346D01*
X120976191Y-56227346D02*
X120785715Y-56227346D01*
X120785715Y-56227346D02*
X120785715Y-55727346D01*
X120785715Y-55727346D02*
X120952382Y-55727346D01*
X120952382Y-55727346D02*
X121000001Y-55751156D01*
X121000001Y-55751156D02*
X121023810Y-55774965D01*
X121023810Y-55774965D02*
X121047620Y-55822584D01*
X121047620Y-55822584D02*
X121047620Y-55870203D01*
X121047620Y-55870203D02*
X121023810Y-55917822D01*
X121023810Y-55917822D02*
X121000001Y-55941632D01*
X121000001Y-55941632D02*
X120952382Y-55965441D01*
X120952382Y-55965441D02*
X120785715Y-55965441D01*
X122285714Y-55727346D02*
X122047619Y-55727346D01*
X122047619Y-55727346D02*
X122023810Y-55965441D01*
X122023810Y-55965441D02*
X122047619Y-55941632D01*
X122047619Y-55941632D02*
X122095238Y-55917822D01*
X122095238Y-55917822D02*
X122214286Y-55917822D01*
X122214286Y-55917822D02*
X122261905Y-55941632D01*
X122261905Y-55941632D02*
X122285714Y-55965441D01*
X122285714Y-55965441D02*
X122309524Y-56013060D01*
X122309524Y-56013060D02*
X122309524Y-56132108D01*
X122309524Y-56132108D02*
X122285714Y-56179727D01*
X122285714Y-56179727D02*
X122261905Y-56203537D01*
X122261905Y-56203537D02*
X122214286Y-56227346D01*
X122214286Y-56227346D02*
X122095238Y-56227346D01*
X122095238Y-56227346D02*
X122047619Y-56203537D01*
X122047619Y-56203537D02*
X122023810Y-56179727D01*
X122452381Y-55727346D02*
X122619047Y-56227346D01*
X122619047Y-56227346D02*
X122785714Y-55727346D01*
X132579534Y-55019248D02*
X132410200Y-54777343D01*
X132289248Y-55019248D02*
X132289248Y-54511248D01*
X132289248Y-54511248D02*
X132482772Y-54511248D01*
X132482772Y-54511248D02*
X132531153Y-54535438D01*
X132531153Y-54535438D02*
X132555343Y-54559629D01*
X132555343Y-54559629D02*
X132579534Y-54608010D01*
X132579534Y-54608010D02*
X132579534Y-54680581D01*
X132579534Y-54680581D02*
X132555343Y-54728962D01*
X132555343Y-54728962D02*
X132531153Y-54753153D01*
X132531153Y-54753153D02*
X132482772Y-54777343D01*
X132482772Y-54777343D02*
X132289248Y-54777343D01*
X132773057Y-54559629D02*
X132797248Y-54535438D01*
X132797248Y-54535438D02*
X132845629Y-54511248D01*
X132845629Y-54511248D02*
X132966581Y-54511248D01*
X132966581Y-54511248D02*
X133014962Y-54535438D01*
X133014962Y-54535438D02*
X133039153Y-54559629D01*
X133039153Y-54559629D02*
X133063343Y-54608010D01*
X133063343Y-54608010D02*
X133063343Y-54656391D01*
X133063343Y-54656391D02*
X133039153Y-54728962D01*
X133039153Y-54728962D02*
X132748867Y-55019248D01*
X132748867Y-55019248D02*
X133063343Y-55019248D01*
X144630047Y-69922571D02*
X144388142Y-70091905D01*
X144630047Y-70212857D02*
X144122047Y-70212857D01*
X144122047Y-70212857D02*
X144122047Y-70019333D01*
X144122047Y-70019333D02*
X144146237Y-69970952D01*
X144146237Y-69970952D02*
X144170428Y-69946762D01*
X144170428Y-69946762D02*
X144218809Y-69922571D01*
X144218809Y-69922571D02*
X144291380Y-69922571D01*
X144291380Y-69922571D02*
X144339761Y-69946762D01*
X144339761Y-69946762D02*
X144363952Y-69970952D01*
X144363952Y-69970952D02*
X144388142Y-70019333D01*
X144388142Y-70019333D02*
X144388142Y-70212857D01*
X144630047Y-69438762D02*
X144630047Y-69729048D01*
X144630047Y-69583905D02*
X144122047Y-69583905D01*
X144122047Y-69583905D02*
X144194618Y-69632286D01*
X144194618Y-69632286D02*
X144242999Y-69680667D01*
X144242999Y-69680667D02*
X144267190Y-69729048D01*
X144630047Y-68954952D02*
X144630047Y-69245238D01*
X144630047Y-69100095D02*
X144122047Y-69100095D01*
X144122047Y-69100095D02*
X144194618Y-69148476D01*
X144194618Y-69148476D02*
X144242999Y-69196857D01*
X144242999Y-69196857D02*
X144267190Y-69245238D01*
X145992296Y-57720032D02*
X145992296Y-57754242D01*
X145992296Y-57754242D02*
X145958085Y-57822663D01*
X145958085Y-57822663D02*
X145923875Y-57856874D01*
X145923875Y-57856874D02*
X145855454Y-57891084D01*
X145855454Y-57891084D02*
X145787033Y-57891084D01*
X145787033Y-57891084D02*
X145735717Y-57873979D01*
X145735717Y-57873979D02*
X145650191Y-57822663D01*
X145650191Y-57822663D02*
X145598875Y-57771348D01*
X145598875Y-57771348D02*
X145547559Y-57685821D01*
X145547559Y-57685821D02*
X145530454Y-57634506D01*
X145530454Y-57634506D02*
X145530454Y-57566085D01*
X145530454Y-57566085D02*
X145564664Y-57497664D01*
X145564664Y-57497664D02*
X145598875Y-57463453D01*
X145598875Y-57463453D02*
X145667296Y-57429243D01*
X145667296Y-57429243D02*
X145701506Y-57429243D01*
X145787033Y-57275295D02*
X146026506Y-57035822D01*
X146026506Y-57035822D02*
X146231769Y-57548979D01*
X145834480Y-63196848D02*
X146125270Y-63487638D01*
X146125270Y-63487638D02*
X146176585Y-63504743D01*
X146176585Y-63504743D02*
X146210796Y-63504743D01*
X146210796Y-63504743D02*
X146262112Y-63487638D01*
X146262112Y-63487638D02*
X146330533Y-63419217D01*
X146330533Y-63419217D02*
X146347638Y-63367901D01*
X146347638Y-63367901D02*
X146347638Y-63333690D01*
X146347638Y-63333690D02*
X146330533Y-63282375D01*
X146330533Y-63282375D02*
X146039743Y-62991585D01*
X146176585Y-62854744D02*
X146398953Y-62632376D01*
X146398953Y-62632376D02*
X146416059Y-62888954D01*
X146416059Y-62888954D02*
X146467374Y-62837639D01*
X146467374Y-62837639D02*
X146518690Y-62820533D01*
X146518690Y-62820533D02*
X146552901Y-62820533D01*
X146552901Y-62820533D02*
X146604216Y-62837639D01*
X146604216Y-62837639D02*
X146689743Y-62923165D01*
X146689743Y-62923165D02*
X146706848Y-62974481D01*
X146706848Y-62974481D02*
X146706848Y-63008691D01*
X146706848Y-63008691D02*
X146689743Y-63060007D01*
X146689743Y-63060007D02*
X146587111Y-63162638D01*
X146587111Y-63162638D02*
X146535795Y-63179744D01*
X146535795Y-63179744D02*
X146501585Y-63179744D01*
X118981047Y-64001952D02*
X118473047Y-64001952D01*
X118473047Y-64001952D02*
X118473047Y-63881000D01*
X118473047Y-63881000D02*
X118497237Y-63808428D01*
X118497237Y-63808428D02*
X118545618Y-63760047D01*
X118545618Y-63760047D02*
X118593999Y-63735857D01*
X118593999Y-63735857D02*
X118690761Y-63711666D01*
X118690761Y-63711666D02*
X118763333Y-63711666D01*
X118763333Y-63711666D02*
X118860095Y-63735857D01*
X118860095Y-63735857D02*
X118908476Y-63760047D01*
X118908476Y-63760047D02*
X118956857Y-63808428D01*
X118956857Y-63808428D02*
X118981047Y-63881000D01*
X118981047Y-63881000D02*
X118981047Y-64001952D01*
X118521428Y-63518143D02*
X118497237Y-63493952D01*
X118497237Y-63493952D02*
X118473047Y-63445571D01*
X118473047Y-63445571D02*
X118473047Y-63324619D01*
X118473047Y-63324619D02*
X118497237Y-63276238D01*
X118497237Y-63276238D02*
X118521428Y-63252047D01*
X118521428Y-63252047D02*
X118569809Y-63227857D01*
X118569809Y-63227857D02*
X118618190Y-63227857D01*
X118618190Y-63227857D02*
X118690761Y-63252047D01*
X118690761Y-63252047D02*
X118981047Y-63542333D01*
X118981047Y-63542333D02*
X118981047Y-63227857D01*
%TO.C,C6*%
D11*
X142629512Y-56097499D02*
X142107008Y-56097499D01*
X142629512Y-57567499D02*
X142107008Y-57567499D01*
%TO.C,J5*%
X136415001Y-53450000D02*
X136415001Y-52070000D01*
X137795001Y-53450000D02*
X136415001Y-53450000D01*
X139065001Y-50690000D02*
X167115001Y-50690000D01*
X139065001Y-53450000D02*
X139065001Y-50690000D01*
X139065001Y-53450000D02*
X167115001Y-53450000D01*
X167115001Y-53450000D02*
X167115001Y-50690000D01*
%TO.C,C5*%
X126975800Y-65121452D02*
X126975800Y-64598948D01*
X128445800Y-65121452D02*
X128445800Y-64598948D01*
%TO.C,D1*%
X126128999Y-65151999D02*
X120618999Y-65151999D01*
X126128999Y-68451999D02*
X120618999Y-68451999D01*
X126128999Y-68451999D02*
X126128999Y-65151999D01*
%TO.C,J2*%
X112792200Y-67995800D02*
X112792200Y-55235800D01*
X112792200Y-70595800D02*
X112792200Y-69265800D01*
X114122200Y-70595800D02*
X112792200Y-70595800D01*
X115452200Y-55235800D02*
X112792200Y-55235800D01*
X115452200Y-67995800D02*
X112792200Y-67995800D01*
X115452200Y-67995800D02*
X115452200Y-55235800D01*
%TO.C,R12*%
X141200200Y-68304036D02*
X141200200Y-68758164D01*
X142670200Y-68304036D02*
X142670200Y-68758164D01*
%TO.C,D3*%
X129469001Y-51601501D02*
X129469001Y-54286501D01*
X129469001Y-54286501D02*
X131389001Y-54286501D01*
X131389001Y-54286501D02*
X131389001Y-51601501D01*
%TO.C,R10*%
X142635927Y-58256501D02*
X142181799Y-58256501D01*
X142635927Y-59726501D02*
X142181799Y-59726501D01*
%TO.C,J3*%
X126170000Y-75421000D02*
X126170000Y-74041000D01*
X127550000Y-75421000D02*
X126170000Y-75421000D01*
X128820000Y-72661000D02*
X167030000Y-72661000D01*
X128820000Y-75421000D02*
X128820000Y-72661000D01*
X128820000Y-75421000D02*
X167030000Y-75421000D01*
X167030000Y-75421000D02*
X167030000Y-72661000D01*
%TO.C,JP102*%
X125600001Y-52980001D02*
X125600001Y-52380001D01*
X126300001Y-51680001D02*
X127700001Y-51680001D01*
X127700001Y-53680001D02*
X126300001Y-53680001D01*
X128400001Y-52380001D02*
X128400001Y-52980001D01*
X125600001Y-52380001D02*
G75*
G02*
X126300001Y-51680001I700000J0D01*
G01*
X126300001Y-53680001D02*
G75*
G02*
X125600001Y-52980001I0J700000D01*
G01*
X127700001Y-51680001D02*
G75*
G02*
X128400001Y-52380001I1J-699999D01*
G01*
X128400001Y-52980001D02*
G75*
G02*
X127700001Y-53680001I-699999J-1D01*
G01*
%TO.C,J4*%
X112666000Y-75421000D02*
X112666000Y-74041000D01*
X114046000Y-75421000D02*
X112666000Y-75421000D01*
X115316000Y-72661000D02*
X117966000Y-72661000D01*
X115316000Y-75421000D02*
X115316000Y-72661000D01*
X115316000Y-75421000D02*
X117966000Y-75421000D01*
X117966000Y-75421000D02*
X117966000Y-72661000D01*
D12*
%TO.C,LG1*%
X123568475Y-69447481D02*
X123836374Y-69542205D01*
X124100284Y-69722361D01*
X124154278Y-69773255D01*
X124305560Y-69949985D01*
X124412216Y-70149797D01*
X124481517Y-70405186D01*
X124520737Y-70748649D01*
X124537149Y-71212682D01*
X124539068Y-71492399D01*
X124519138Y-72015157D01*
X124458339Y-72378069D01*
X124357294Y-72579846D01*
X124216624Y-72619203D01*
X124048933Y-72507066D01*
X123995682Y-72361488D01*
X123961686Y-72054882D01*
X123947676Y-71594537D01*
X123947333Y-71495050D01*
X123938764Y-71097735D01*
X123915630Y-70745407D01*
X123881790Y-70483877D01*
X123853241Y-70378124D01*
X123709675Y-70208654D01*
X123475328Y-70061565D01*
X123429908Y-70042284D01*
X123208838Y-69931786D01*
X123114007Y-69805972D01*
X123100667Y-69700685D01*
X123164639Y-69524243D01*
X123332569Y-69440667D01*
X123568475Y-69447481D01*
G36*
X123568475Y-69447481D02*
G01*
X123836374Y-69542205D01*
X124100284Y-69722361D01*
X124154278Y-69773255D01*
X124305560Y-69949985D01*
X124412216Y-70149797D01*
X124481517Y-70405186D01*
X124520737Y-70748649D01*
X124537149Y-71212682D01*
X124539068Y-71492399D01*
X124519138Y-72015157D01*
X124458339Y-72378069D01*
X124357294Y-72579846D01*
X124216624Y-72619203D01*
X124048933Y-72507066D01*
X123995682Y-72361488D01*
X123961686Y-72054882D01*
X123947676Y-71594537D01*
X123947333Y-71495050D01*
X123938764Y-71097735D01*
X123915630Y-70745407D01*
X123881790Y-70483877D01*
X123853241Y-70378124D01*
X123709675Y-70208654D01*
X123475328Y-70061565D01*
X123429908Y-70042284D01*
X123208838Y-69931786D01*
X123114007Y-69805972D01*
X123100667Y-69700685D01*
X123164639Y-69524243D01*
X123332569Y-69440667D01*
X123568475Y-69447481D01*
G37*
X121400280Y-70341844D02*
X121699980Y-70406245D01*
X121794279Y-70448786D01*
X122090942Y-70693094D01*
X122274163Y-71024037D01*
X122342670Y-71401396D01*
X122295189Y-71784950D01*
X122130447Y-72134481D01*
X121856161Y-72403811D01*
X121714903Y-72477168D01*
X121526567Y-72527105D01*
X121255715Y-72558878D01*
X120866911Y-72577742D01*
X120645333Y-72583393D01*
X120248939Y-72587691D01*
X119910647Y-72583729D01*
X119668870Y-72572450D01*
X119565833Y-72556953D01*
X119476971Y-72439885D01*
X119468884Y-72261760D01*
X119536694Y-72107596D01*
X119593925Y-72067391D01*
X119732727Y-72045378D01*
X119996799Y-72028077D01*
X120342093Y-72017813D01*
X120567591Y-72016000D01*
X121049135Y-72000429D01*
X121385671Y-71946481D01*
X121599272Y-71843299D01*
X121712013Y-71680028D01*
X121745967Y-71445811D01*
X121746000Y-71436455D01*
X121679502Y-71172492D01*
X121474858Y-70985644D01*
X121124342Y-70870320D01*
X120922924Y-70840904D01*
X120647361Y-70805063D01*
X120500693Y-70759056D01*
X120442873Y-70681255D01*
X120433667Y-70576666D01*
X120444631Y-70462268D01*
X120502964Y-70395955D01*
X120646824Y-70361166D01*
X120914369Y-70341341D01*
X120984000Y-70337817D01*
X121400280Y-70341844D01*
G36*
X121400280Y-70341844D02*
G01*
X121699980Y-70406245D01*
X121794279Y-70448786D01*
X122090942Y-70693094D01*
X122274163Y-71024037D01*
X122342670Y-71401396D01*
X122295189Y-71784950D01*
X122130447Y-72134481D01*
X121856161Y-72403811D01*
X121714903Y-72477168D01*
X121526567Y-72527105D01*
X121255715Y-72558878D01*
X120866911Y-72577742D01*
X120645333Y-72583393D01*
X120248939Y-72587691D01*
X119910647Y-72583729D01*
X119668870Y-72572450D01*
X119565833Y-72556953D01*
X119476971Y-72439885D01*
X119468884Y-72261760D01*
X119536694Y-72107596D01*
X119593925Y-72067391D01*
X119732727Y-72045378D01*
X119996799Y-72028077D01*
X120342093Y-72017813D01*
X120567591Y-72016000D01*
X121049135Y-72000429D01*
X121385671Y-71946481D01*
X121599272Y-71843299D01*
X121712013Y-71680028D01*
X121745967Y-71445811D01*
X121746000Y-71436455D01*
X121679502Y-71172492D01*
X121474858Y-70985644D01*
X121124342Y-70870320D01*
X120922924Y-70840904D01*
X120647361Y-70805063D01*
X120500693Y-70759056D01*
X120442873Y-70681255D01*
X120433667Y-70576666D01*
X120444631Y-70462268D01*
X120502964Y-70395955D01*
X120646824Y-70361166D01*
X120914369Y-70341341D01*
X120984000Y-70337817D01*
X121400280Y-70341844D01*
G37*
X121438384Y-69402796D02*
X121473491Y-69403852D01*
X121966486Y-69426266D01*
X122324435Y-69466823D01*
X122581523Y-69537716D01*
X122771932Y-69651137D01*
X122929845Y-69819277D01*
X123027625Y-69958171D01*
X123107505Y-70158154D01*
X123162582Y-70449259D01*
X123192074Y-70786907D01*
X123195199Y-71126520D01*
X123171174Y-71423519D01*
X123119217Y-71633327D01*
X123058333Y-71707951D01*
X122866305Y-71738023D01*
X122745857Y-71641621D01*
X122687111Y-71404874D01*
X122677333Y-71172909D01*
X122642254Y-70677412D01*
X122534985Y-70327937D01*
X122352479Y-70115931D01*
X122288135Y-70080336D01*
X122110694Y-70037401D01*
X121815586Y-70004319D01*
X121454408Y-69986058D01*
X121287767Y-69984000D01*
X120896142Y-69989548D01*
X120631346Y-70011080D01*
X120451098Y-70055927D01*
X120313114Y-70131422D01*
X120275751Y-70159478D01*
X120096754Y-70388739D01*
X120059202Y-70651950D01*
X120166386Y-70898950D01*
X120223312Y-70958854D01*
X120446206Y-71073454D01*
X120795642Y-71144508D01*
X120879479Y-71152644D01*
X121243848Y-71209077D01*
X121444648Y-71306606D01*
X121482808Y-71446155D01*
X121359257Y-71628647D01*
X121358952Y-71628952D01*
X121161853Y-71726949D01*
X120839223Y-71744715D01*
X120379121Y-71682860D01*
X120362751Y-71679719D01*
X119983002Y-71533080D01*
X119704556Y-71281501D01*
X119531496Y-70958686D01*
X119467901Y-70598335D01*
X119517854Y-70234151D01*
X119685435Y-69899837D01*
X119974726Y-69629094D01*
X120105528Y-69555569D01*
X120288860Y-69476187D01*
X120472289Y-69425824D01*
X120697337Y-69399875D01*
X121005528Y-69393734D01*
X121438384Y-69402796D01*
G36*
X121438384Y-69402796D02*
G01*
X121473491Y-69403852D01*
X121966486Y-69426266D01*
X122324435Y-69466823D01*
X122581523Y-69537716D01*
X122771932Y-69651137D01*
X122929845Y-69819277D01*
X123027625Y-69958171D01*
X123107505Y-70158154D01*
X123162582Y-70449259D01*
X123192074Y-70786907D01*
X123195199Y-71126520D01*
X123171174Y-71423519D01*
X123119217Y-71633327D01*
X123058333Y-71707951D01*
X122866305Y-71738023D01*
X122745857Y-71641621D01*
X122687111Y-71404874D01*
X122677333Y-71172909D01*
X122642254Y-70677412D01*
X122534985Y-70327937D01*
X122352479Y-70115931D01*
X122288135Y-70080336D01*
X122110694Y-70037401D01*
X121815586Y-70004319D01*
X121454408Y-69986058D01*
X121287767Y-69984000D01*
X120896142Y-69989548D01*
X120631346Y-70011080D01*
X120451098Y-70055927D01*
X120313114Y-70131422D01*
X120275751Y-70159478D01*
X120096754Y-70388739D01*
X120059202Y-70651950D01*
X120166386Y-70898950D01*
X120223312Y-70958854D01*
X120446206Y-71073454D01*
X120795642Y-71144508D01*
X120879479Y-71152644D01*
X121243848Y-71209077D01*
X121444648Y-71306606D01*
X121482808Y-71446155D01*
X121359257Y-71628647D01*
X121358952Y-71628952D01*
X121161853Y-71726949D01*
X120839223Y-71744715D01*
X120379121Y-71682860D01*
X120362751Y-71679719D01*
X119983002Y-71533080D01*
X119704556Y-71281501D01*
X119531496Y-70958686D01*
X119467901Y-70598335D01*
X119517854Y-70234151D01*
X119685435Y-69899837D01*
X119974726Y-69629094D01*
X120105528Y-69555569D01*
X120288860Y-69476187D01*
X120472289Y-69425824D01*
X120697337Y-69399875D01*
X121005528Y-69393734D01*
X121438384Y-69402796D01*
G37*
X122706896Y-68732950D02*
X123336834Y-68759582D01*
X123901891Y-68808346D01*
X124140193Y-68839783D01*
X124505658Y-68891423D01*
X124785762Y-68936352D01*
X124991766Y-68995847D01*
X125134929Y-69091182D01*
X125226512Y-69243632D01*
X125277775Y-69474471D01*
X125299977Y-69804975D01*
X125304378Y-70256418D01*
X125302238Y-70850076D01*
X125302000Y-71034945D01*
X125300032Y-71675217D01*
X125293365Y-72165453D01*
X125280856Y-72524914D01*
X125261361Y-72772861D01*
X125233735Y-72928554D01*
X125196835Y-73011252D01*
X125183831Y-73024670D01*
X125016596Y-73096142D01*
X124878667Y-73126474D01*
X124707275Y-73164166D01*
X124283113Y-73226037D01*
X123771356Y-73279051D01*
X123199249Y-73320504D01*
X122594039Y-73347692D01*
X121982969Y-73357910D01*
X121830667Y-73357483D01*
X121345669Y-73352260D01*
X120906889Y-73344201D01*
X120548154Y-73334183D01*
X120303292Y-73323080D01*
X120222000Y-73315816D01*
X119715428Y-73232236D01*
X119307639Y-73149708D01*
X119022462Y-73073632D01*
X118888500Y-73013674D01*
X118851465Y-72935849D01*
X118823306Y-72760790D01*
X118817480Y-72677426D01*
X119202399Y-72677426D01*
X119775699Y-72768198D01*
X120111613Y-72820928D01*
X120416424Y-72868002D01*
X120603000Y-72896091D01*
X120843169Y-72913739D01*
X121214525Y-72920161D01*
X121679383Y-72916617D01*
X122200057Y-72904364D01*
X122738862Y-72884660D01*
X123258112Y-72858761D01*
X123720122Y-72827926D01*
X124087206Y-72793412D01*
X124222500Y-72775306D01*
X124878667Y-72672748D01*
X124878667Y-71079371D01*
X124874611Y-70558909D01*
X124863250Y-70109332D01*
X124845795Y-69755665D01*
X124823453Y-69522937D01*
X124799275Y-69436926D01*
X124687827Y-69406092D01*
X124445552Y-69359619D01*
X124109493Y-69304095D01*
X123762108Y-69252485D01*
X123133640Y-69190536D01*
X122406051Y-69162245D01*
X121636137Y-69166497D01*
X120880692Y-69202179D01*
X120196514Y-69268176D01*
X119798667Y-69330237D01*
X119248333Y-69434859D01*
X119225366Y-71056143D01*
X119202399Y-72677426D01*
X118817480Y-72677426D01*
X118803198Y-72473075D01*
X118790317Y-72057284D01*
X118783837Y-71497996D01*
X118782667Y-71034945D01*
X118783618Y-70418599D01*
X118787577Y-69950164D01*
X118796200Y-69608224D01*
X118811144Y-69371362D01*
X118834066Y-69218160D01*
X118866622Y-69127203D01*
X118910468Y-69077073D01*
X118935312Y-69061597D01*
X119201200Y-68968179D01*
X119606761Y-68888175D01*
X120122773Y-68822830D01*
X120720015Y-68773389D01*
X121369264Y-68741099D01*
X122041298Y-68727204D01*
X122706896Y-68732950D01*
G36*
X122706896Y-68732950D02*
G01*
X123336834Y-68759582D01*
X123901891Y-68808346D01*
X124140193Y-68839783D01*
X124505658Y-68891423D01*
X124785762Y-68936352D01*
X124991766Y-68995847D01*
X125134929Y-69091182D01*
X125226512Y-69243632D01*
X125277775Y-69474471D01*
X125299977Y-69804975D01*
X125304378Y-70256418D01*
X125302238Y-70850076D01*
X125302000Y-71034945D01*
X125300032Y-71675217D01*
X125293365Y-72165453D01*
X125280856Y-72524914D01*
X125261361Y-72772861D01*
X125233735Y-72928554D01*
X125196835Y-73011252D01*
X125183831Y-73024670D01*
X125016596Y-73096142D01*
X124878667Y-73126474D01*
X124707275Y-73164166D01*
X124283113Y-73226037D01*
X123771356Y-73279051D01*
X123199249Y-73320504D01*
X122594039Y-73347692D01*
X121982969Y-73357910D01*
X121830667Y-73357483D01*
X121345669Y-73352260D01*
X120906889Y-73344201D01*
X120548154Y-73334183D01*
X120303292Y-73323080D01*
X120222000Y-73315816D01*
X119715428Y-73232236D01*
X119307639Y-73149708D01*
X119022462Y-73073632D01*
X118888500Y-73013674D01*
X118851465Y-72935849D01*
X118823306Y-72760790D01*
X118817480Y-72677426D01*
X119202399Y-72677426D01*
X119775699Y-72768198D01*
X120111613Y-72820928D01*
X120416424Y-72868002D01*
X120603000Y-72896091D01*
X120843169Y-72913739D01*
X121214525Y-72920161D01*
X121679383Y-72916617D01*
X122200057Y-72904364D01*
X122738862Y-72884660D01*
X123258112Y-72858761D01*
X123720122Y-72827926D01*
X124087206Y-72793412D01*
X124222500Y-72775306D01*
X124878667Y-72672748D01*
X124878667Y-71079371D01*
X124874611Y-70558909D01*
X124863250Y-70109332D01*
X124845795Y-69755665D01*
X124823453Y-69522937D01*
X124799275Y-69436926D01*
X124687827Y-69406092D01*
X124445552Y-69359619D01*
X124109493Y-69304095D01*
X123762108Y-69252485D01*
X123133640Y-69190536D01*
X122406051Y-69162245D01*
X121636137Y-69166497D01*
X120880692Y-69202179D01*
X120196514Y-69268176D01*
X119798667Y-69330237D01*
X119248333Y-69434859D01*
X119225366Y-71056143D01*
X119202399Y-72677426D01*
X118817480Y-72677426D01*
X118803198Y-72473075D01*
X118790317Y-72057284D01*
X118783837Y-71497996D01*
X118782667Y-71034945D01*
X118783618Y-70418599D01*
X118787577Y-69950164D01*
X118796200Y-69608224D01*
X118811144Y-69371362D01*
X118834066Y-69218160D01*
X118866622Y-69127203D01*
X118910468Y-69077073D01*
X118935312Y-69061597D01*
X119201200Y-68968179D01*
X119606761Y-68888175D01*
X120122773Y-68822830D01*
X120720015Y-68773389D01*
X121369264Y-68741099D01*
X122041298Y-68727204D01*
X122706896Y-68732950D01*
G37*
%TO.C,U1*%
D11*
X131500000Y-60090000D02*
X135260000Y-60090000D01*
X131500000Y-66910000D02*
X135260000Y-66910000D01*
X135260000Y-60090000D02*
X135260000Y-61350000D01*
X135260000Y-66910000D02*
X135260000Y-65650000D01*
X130220000Y-60190000D02*
X129980000Y-59860000D01*
X130460000Y-59860000D01*
X130220000Y-60190000D01*
G36*
X130220000Y-60190000D02*
G01*
X129980000Y-59860000D01*
X130460000Y-59860000D01*
X130220000Y-60190000D01*
G37*
%TO.C,J1*%
X112153000Y-53450000D02*
X112153000Y-52070000D01*
X113533000Y-53450000D02*
X112153000Y-53450000D01*
X114803000Y-50690000D02*
X117453000Y-50690000D01*
X114803000Y-53450000D02*
X114803000Y-50690000D01*
X114803000Y-53450000D02*
X117453000Y-53450000D01*
X117453000Y-53450000D02*
X117453000Y-50690000D01*
%TO.C,JP101*%
X118330000Y-57620000D02*
X118330000Y-60380000D01*
X120980000Y-57620000D02*
X118330000Y-57620000D01*
X120980000Y-57620000D02*
X120980000Y-60380000D01*
X120980000Y-60380000D02*
X118330000Y-60380000D01*
X122250000Y-57620000D02*
X123630000Y-57620000D01*
X123630000Y-57620000D02*
X123630000Y-59000000D01*
%TO.C,R2*%
X131980000Y-52828564D02*
X131980000Y-52374436D01*
X133450000Y-52828564D02*
X133450000Y-52374436D01*
%TO.C,R11*%
X143664000Y-66551436D02*
X143664000Y-67005564D01*
X145134000Y-66551436D02*
X145134000Y-67005564D01*
%TO.C,C7*%
X146604010Y-57969543D02*
X146234543Y-58339010D01*
X147643457Y-59008990D02*
X147273990Y-59378457D01*
%TO.C,U3*%
X147167689Y-62992000D02*
X147362143Y-62797546D01*
X147362143Y-63186454D02*
X147167689Y-62992000D01*
X152078546Y-58081143D02*
X152273000Y-57886689D01*
X152273000Y-57886689D02*
X152467454Y-58081143D01*
X152273000Y-68097311D02*
X152078546Y-67902857D01*
X152467454Y-67902857D02*
X152273000Y-68097311D01*
X157183857Y-62797546D02*
X157378311Y-62992000D01*
X157378311Y-62992000D02*
X157183857Y-63186454D01*
X146906060Y-63635467D02*
X146333303Y-63543543D01*
X146814136Y-63062711D01*
X146906060Y-63635467D01*
G36*
X146906060Y-63635467D02*
G01*
X146333303Y-63543543D01*
X146814136Y-63062711D01*
X146906060Y-63635467D01*
G37*
%TO.C,D2*%
X126128999Y-61342000D02*
X120618999Y-61342000D01*
X126128999Y-64642000D02*
X120618999Y-64642000D01*
X126128999Y-64642000D02*
X126128999Y-61342000D01*
%TD*%
M02*
